<svg width="81" height="87" viewBox="0 0 81 87" fill="none" xmlns="http://www.w3.org/2000/svg">
<g clip-path="url(#clip0_47_14007)">
<path d="M46.5343 6.64516L46.1106 7.28067L47.2037 7.54109L48.0849 6.64658L46.9085 6.90559L46.5343 6.64375V6.64516ZM44.2734 8.62385C44.2226 8.28699 44.4739 7.87371 44.4217 7.56799C44.2494 6.56024 43.0024 8.0846 44.2734 8.62385ZM45.6856 7.06695L45.5444 6.36209C46.3295 6.38049 46.4397 6.54326 46.7588 5.80302L47.52 5.93606L46.7447 4.94814C46.3055 5.07127 46.2801 5.8653 46.2293 5.91625C46.153 5.99268 44.697 6.35077 44.7013 6.43144C45.091 6.77113 45.0543 7.22547 45.6856 7.06553V7.06695ZM47.2347 4.66506L47.3788 3.95879L47.729 4.24045L47.9408 3.81725L46.8139 3.95738L47.2362 3.52993L46.9509 2.96945L46.249 3.53276L46.667 3.60212C46.338 4.14845 46.7956 4.45276 47.2333 4.66506H47.2347ZM51.7481 5.30198L51.1874 5.79594L52.0192 5.52561L52.5926 5.94456L52.457 6.64375C53.4173 6.86738 53.0614 5.61619 53.711 5.14063C52.9979 4.20648 53.9864 4.273 54.1319 3.85972C54.2265 3.5908 53.9991 3.2412 54.1078 3.00342C54.29 2.60428 55.5384 2.65382 54.8916 1.50878L55.0229 1.1507C55.167 1.087 55.4282 1.18042 55.5327 1.10824C55.5709 1.08134 55.8477 0.281659 55.8335 0.220798L55.1345 0L55.0653 0.561902L54.6416 0.144368C54.0923 0.554825 54.3296 0.989344 54.7123 1.41254C53.8508 1.49463 53.9299 1.32903 53.4794 2.12164L52.899 2.09758L52.8072 1.70128C52.5672 1.36725 52.3525 1.84281 52.7366 2.11881L52.313 2.4033L53.3552 2.38773L53.9906 3.58089C53.5458 4.36642 53.1532 3.66298 52.5968 3.53701C52.8185 4.05928 52.9922 4.31688 52.5234 4.8066L52.313 4.10174H50.761L50.8457 4.53909C51.5024 4.55749 51.4247 4.86887 51.7467 5.30339L51.7481 5.30198ZM50.9064 6.64658C50.9728 6.97636 52.2536 6.83624 52.3172 6.78529C52.1266 5.4421 51.6182 6.09883 50.9064 6.64658ZM31.4974 81.7702L32.7966 82.7228L33.1863 82.5458C32.7952 82.0236 32.123 81.8438 31.4974 81.7702ZM32.1131 79.9373L31.3561 79.5042L31.921 79.2225C31.9549 79.1886 31.7939 78.42 31.76 78.396C31.6555 78.3195 31.3731 78.3988 31.2149 78.3761C31.3632 79.2735 30.3125 79.95 31.9704 80.202L32.1145 79.9373H32.1131ZM64.3137 18.4975L53.2803 18.4706L28.6744 73.5681C29.5358 73.4676 28.9441 74.1852 28.4117 74.0168L26.6988 78.0931L27.8271 78.5205C27.6901 79.1787 26.9558 78.8673 27.5461 79.6471L26.1367 79.7901L26.2059 79.2254L25.3007 81.0059L25.7823 80.9153L26.4163 81.2026C26.4996 80.9691 26.0689 80.1383 26.1353 80.0732C26.4135 79.8028 26.7058 80.2926 26.559 80.6393C27.3032 80.2671 27.4289 80.7823 27.4839 80.7879C27.7777 80.8134 28.4047 80.2458 28.5318 80.3562L28.8156 81.6258L27.9697 81.7674C27.9175 81.7263 28.9526 80.8898 27.9697 80.7794L27.8426 82.1792L28.3934 82.1934L28.1124 82.7567H29.5217C29.0387 81.9316 30.2405 82.6109 30.7913 82.3321L29.7039 81.5565L29.6629 80.6379C30.7941 80.8813 30.2786 79.4631 30.0894 79.6471L29.807 80.0703L29.7971 79.7108C29.814 79.2735 29.9934 78.7003 30.5117 78.7965L30.0894 78.3691L30.3817 77.7463C29.6347 77.3599 30.0866 76.9565 29.1418 76.9155L28.9611 75.9686H28.4753L28.3962 75.6884L28.9583 75.4024L29.1023 76.3918L29.4539 75.2637L29.879 76.3904L30.6529 75.8285L30.088 76.815L30.6515 76.8872L30.2292 77.2396L31.4296 77.9558L31.8504 77.5227L31.9902 77.9473L32.2726 77.5241L32.6229 78.5134L33.1906 78.0874L32.7683 77.5255C33.7625 77.4109 33.932 77.5482 34.6013 76.7117L34.3175 75.6841C33.9969 75.8738 33.9009 75.7747 33.6142 75.6841C33.5987 76.0606 33.1976 76.6678 32.7697 76.6734L32.2741 75.8285L31.9238 76.5305L31.4945 75.6162C32.3913 75.1024 32.7415 75.4095 33.6142 75.6827C33.6199 75.5412 33.6142 75.3982 33.6142 75.2581C33.1524 75.3204 33.0381 75.2779 32.9081 74.8363L33.4716 74.8335L33.3318 74.4117L34.0365 74.3367L33.6114 73.4209L34.5279 73.2766C34.7383 73.554 34.2836 73.629 34.3429 74.0154C34.3712 74.1994 34.84 75.2001 35.0165 75.3373L35.3597 75.5355L35.7311 74.9778L36.4329 75.2581L36.1533 74.8363L36.5713 74.9764C37.0981 74.1498 35.9782 73.6092 37.2774 73.2072L37.4201 72.7147L36.1533 72.9963L36.2225 72.4302L37.0006 72.0933L37.7759 70.4529L38.0541 71.0162L45.92 53.9638H80.1316L64.3137 18.4918V18.4975ZM29.2407 80.1482L28.2507 80.0718L28.536 79.0838L28.6913 79.3499C29.3297 79.0173 29.4836 79.5608 29.2407 80.1482ZM29.2393 77.9515L29.0006 78.5205H28.0672C27.2834 77.517 28.7111 78.2516 29.2379 77.9515H29.2393ZM32.5551 73.571L31.993 74.1046L31.3576 73.2851C32.1625 73.7932 31.8589 72.5533 32.6243 73.2851C32.7217 73.1676 32.2148 72.8293 32.8403 72.7543L33.4716 73.7068C32.8234 73.7366 32.8997 74.3027 32.5551 73.571ZM35.306 71.2356C35.4571 71.1408 35.6803 71.1082 35.8427 71.1946C35.8963 71.2229 36.1279 71.6885 36.1364 71.8003L36.0079 72.2957L35.0222 71.7296L35.3046 71.237L35.306 71.2356ZM35.7283 72.5774C35.7014 73.0515 35.6195 73.2299 36.1519 73.1449C35.9938 74.2121 34.4163 72.5576 35.7283 72.5774ZM58.4757 25.5375L59.0943 25.5673L68.4232 47.0398H48.9548L58.4757 25.5375ZM50.6226 7.35143L50.7638 6.22197L50.2017 6.50363L49.9857 5.5157L49.0706 5.79877C50.9657 7.92891 48.236 7.39248 48.0298 7.61611C47.8561 7.80435 47.9931 8.1497 47.8123 8.28416C47.5059 8.51204 46.9255 8.00392 46.6755 8.5545L47.246 8.84607C47.3025 9.15886 46.9565 10.1624 46.9693 10.2317C47.0215 10.5417 47.8575 10.9833 46.8817 11.7348C46.3648 11.3782 46.3324 10.9946 45.5444 11.1687C46.0146 10.5204 46.6261 10.2289 46.6727 9.33295C46.3084 9.19142 46.1149 9.72926 46.0104 9.75473C45.7986 9.8071 45.0896 9.5396 44.803 9.61603C44.4979 9.69812 44.3581 10.5091 43.9938 10.461L43.0067 9.04705L42.5901 10.1128L43.1451 11.0243L42.0506 11.3951C42.2257 12.2033 42.3514 12.5218 41.4377 12.6718L21.0684 58.7549L20.4385 58.6898L8.81768 30.9216H0L15.2361 66.3412L26.3146 66.2747L52.1675 7.72368L50.6226 7.35143ZM49.4942 9.75615L48.5085 9.47024L49.2062 9.32305C49.0226 8.67198 50.0464 8.03789 50.2003 8.9041C49.6369 8.88994 49.442 9.22114 49.4942 9.75473V9.75615ZM28.2536 85.4445C27.9485 86.5372 28.231 86.5782 28.9554 85.8649C28.8439 85.5676 28.5727 85.3921 28.2536 85.4445ZM26.5547 85.0241C26.5138 84.9845 26.1339 85.0425 25.9955 85.0227L26.1353 85.7276L25.432 85.4459L25.2908 87C26.1 87.0241 26.2553 86.1041 26.8414 85.6568C26.4163 85.6625 26.6239 85.0892 26.5561 85.0241H26.5547ZM26.871 82.5968C26.6945 82.5048 26.2497 81.4532 26.1353 82.8983L26.9784 83.2535L26.4855 83.48C26.0407 83.262 25.2936 83.1417 25.5083 82.6208C24.9632 82.0519 24.4604 82.451 24.4449 83.1827L24.9406 82.8983L25.4264 83.1106C24.9293 83.7036 25.6156 84.1976 25.5732 84.8798C26.5787 84.642 27.3286 83.7404 27.4034 82.6902C27.2537 82.3774 26.9826 82.6548 26.8725 82.5968H26.871Z" fill="white"/>
</g>
<defs>
<clipPath id="clip0_47_14007">
<rect width="80.1316" height="87" fill="white"/>
</clipPath>
</defs>
</svg>
