<svg width="130" height="40" viewBox="0 0 130 40" fill="none" xmlns="http://www.w3.org/2000/svg">
<g clip-path="url(#clip0_41_2059)">
<path d="M9.32268 26.7681H8.78234V30.7224H9.32268V26.7681ZM1.91781 20.9278H3.43227V7.73384C3.43227 6.89734 2.75495 6.22053 1.91781 6.22053C1.08067 6.22053 0.403348 6.89734 0.403348 7.73384V19.4144C0.403348 20.251 1.08067 20.9278 1.91781 20.9278ZM10.8676 33.6502H10.2435L9.47488 34.8061C9.40639 34.9126 9.34551 35.0266 9.34551 35.0266C9.34551 35.0266 9.28463 34.9126 9.22374 34.8213L8.46271 33.6502H7.793L9.01065 35.5209L7.64079 37.6046H8.27245L9.14764 36.2662C9.22374 36.1521 9.33029 35.9772 9.33029 35.9772C9.33029 35.9772 9.43683 36.1597 9.49771 36.2509L10.3805 37.6046H11.035L9.65753 35.4905L10.8676 33.6502ZM3.50076 26.7681H2.96043V29.2243C2.96043 29.9848 2.46575 30.2738 1.94825 30.2738C1.43075 30.2738 0.951294 29.9848 0.951294 29.2243V26.7681H0.403348V29.2243C0.403348 30.1977 1.03501 30.7833 1.94825 30.7833C2.86149 30.7833 3.50076 30.1673 3.50076 29.2243V26.7681ZM6.05023 36.1065C6.05023 36.8669 5.54794 37.1559 5.03805 37.1559C4.52816 37.1559 4.0411 36.8669 4.0411 36.1065V33.6502H3.49315V36.1065C3.49315 37.0875 4.12481 37.6654 5.03805 37.6654C5.95129 37.6654 6.59056 37.0494 6.59056 36.1065V33.6502H6.05023V36.1065ZM0.966514 33.6502H0.42618V37.6046H2.47336V37.0951H0.974125V33.6502H0.966514ZM7.67884 26.7681H7.13851V29.5665C7.13851 29.6198 7.14612 29.6958 7.14612 29.6958C7.14612 29.6958 7.10807 29.6274 7.07762 29.5818L5.03044 26.7681H4.56621V30.7224H5.10654V27.8783C5.10654 27.8327 5.09893 27.7491 5.09893 27.7491C5.09893 27.7491 5.1446 27.8251 5.16743 27.8555L7.24505 30.7224H7.67884V26.7681ZM4.88584 20.9278C5.71537 20.9278 6.38508 20.1369 6.4003 19.308C6.4003 20.1065 6.56773 20.9278 7.27549 20.9278V7.73384C7.27549 6.89734 6.59817 6.22053 5.76103 6.22053C4.9239 6.22053 4.24657 6.89734 4.24657 7.73384V20.9202H4.87823L4.88584 20.9278ZM109.026 4.90494H105.175V8.75285H109.026V4.90494ZM12.7473 26.7681L11.7352 29.6198C11.7199 29.673 11.7047 29.7567 11.7047 29.7567C11.7047 29.7567 11.6895 29.673 11.6667 29.6198L10.6621 26.7681H10.137L11.5297 30.7224H11.8645L13.2496 26.7681H12.7321H12.7473ZM115.723 12.5551H111.872V16.403H115.723V12.5551ZM118.227 6.93536H114.376V10.7833H118.227V6.93536ZM19.8782 27.9392C19.8782 27.3004 19.3912 26.7757 18.653 26.7757H17.3744V30.73H17.9148V28.8821L19.5129 30.73H20.2055L18.7443 29.0722C19.3379 29.0722 19.8706 28.5703 19.8706 27.9392H19.8782ZM17.9072 28.6388V27.2776H18.5464C19.0639 27.2776 19.3075 27.6426 19.3075 27.9087C19.3075 28.3346 19.0259 28.6388 18.5388 28.6388H17.9072ZM22.9224 35.5894C23.1735 35.4297 23.379 35.1331 23.379 34.6768C23.379 34.0608 22.8995 33.6502 22.2298 33.6502H21.1796V37.6046H22.3668C23.242 37.6046 23.5845 37.0266 23.5845 36.5323C23.5845 36.038 23.2268 35.6806 22.9224 35.5894ZM21.7199 34.1597H22.1309C22.5723 34.1597 22.8082 34.3726 22.8082 34.7224C22.8082 35.057 22.6712 35.4145 22.0852 35.4145H21.7199V34.1597ZM22.3059 37.0951H21.7199V35.9164H22.3592C22.7626 35.9164 23.0213 36.1445 23.0213 36.4867C23.0213 36.8517 22.793 37.0951 22.3059 37.0951ZM21.933 30.2662C21.6591 30.2662 21.3242 30.1597 21.1111 29.9696L20.7991 30.3878C21.1644 30.6844 21.5601 30.7909 21.9635 30.7909C22.6256 30.7909 23.1811 30.3878 23.1811 29.6806C23.1811 29.019 22.7017 28.73 22.2527 28.5095C21.7656 28.2662 21.3851 28.1217 21.3851 27.6882C21.3851 27.3916 21.6438 27.2319 21.9559 27.2319C22.2831 27.2319 22.4886 27.3004 22.7321 27.4829L23.0289 27.0342C22.7169 26.8213 22.3592 26.6996 21.9559 26.6996C21.2481 26.6996 20.8143 27.1331 20.8143 27.7186C20.8143 28.4715 21.3851 28.7224 21.9559 29.0038C22.3059 29.1863 22.618 29.3688 22.618 29.7034C22.618 30.076 22.344 30.2586 21.9406 30.2586L21.933 30.2662ZM112.002 25.0114H115.852V21.1635H112.002V25.0114ZM12.6484 35.9316H14.2846V35.4221H12.6484V34.1597H14.3227V33.6502H12.1081V37.6046H14.4216V37.0951H12.6484V35.9316ZM16.3014 27.2776V26.7681H14.0868V30.7224H16.4003V30.2129H14.6271V29.0494H16.2557V28.5399H14.6271V27.2776H16.3014ZM17.7473 35.5818L16.2557 33.6426H15.7915V37.597H16.3318V34.73C16.3318 34.6616 16.3242 34.5856 16.3242 34.5856C16.3242 34.5856 16.3546 34.6464 16.3775 34.6692L17.6256 36.3042H17.8463L19.0868 34.6312L19.14 34.5323C19.14 34.5323 19.1248 34.616 19.1248 34.6844V37.597H19.6651V33.6426H19.1857L17.7397 35.5818H17.7473ZM99.2922 6.53232H95.4414V10.3802H99.2922V6.53232ZM69.2085 30.6084V33.0494H70.4566V32.73H69.5358V30.6084H69.2085ZM38.8052 20.9278C39.6347 20.9278 40.3044 20.1293 40.3196 19.308C40.3196 20.1065 40.4871 20.9278 41.2024 20.9278V7.73384C41.2024 6.89734 40.5251 6.22053 39.688 6.22053C38.8508 6.22053 38.1735 6.89734 38.1735 7.73384V20.9202H38.8052V20.9278ZM76.7808 30.9202V30.6008H75.4262V33.0418H76.8417V32.7224H75.761V32.0076H76.758V31.6882H75.761V30.9202H76.7808ZM35.8447 20.9278H37.3592V7.73384C37.3592 6.89734 36.6819 6.22053 35.8447 6.22053C35.0076 6.22053 34.3303 6.89734 34.3303 7.73384V19.4144C34.3303 20.251 35.0076 20.9278 35.8447 20.9278ZM81.4688 31.2395C81.4688 31.1407 81.4536 31.057 81.4155 30.981C81.3775 30.9049 81.3318 30.8365 81.2709 30.7833C81.21 30.73 81.1339 30.6844 81.0502 30.654C80.9665 30.6236 80.8676 30.6084 80.7686 30.6084H80.1294V33.0494H80.8523C80.9817 33.0494 81.0959 33.0266 81.1948 32.9886C81.2937 32.9506 81.3699 32.8973 81.4231 32.8365C81.484 32.7757 81.5297 32.6996 81.5525 32.6236C81.5829 32.5475 81.5906 32.4639 81.5906 32.3878C81.5906 32.3118 81.5753 32.2434 81.5525 32.1749C81.5297 32.1065 81.4992 32.0532 81.4536 32C81.4155 31.9468 81.3699 31.9087 81.3242 31.8707C81.2785 31.8327 81.2253 31.8099 81.1796 31.8023C81.2557 31.7491 81.3242 31.6806 81.3775 31.5894C81.4307 31.4981 81.4612 31.384 81.4612 31.2395H81.4688ZM80.4566 30.9202H80.7078C80.8447 30.9202 80.9513 30.9506 81.0198 31.0114C81.0883 31.0722 81.1263 31.1559 81.1263 31.2624C81.1263 31.3156 81.1263 31.3612 81.1111 31.4145C81.0959 31.4677 81.073 31.5057 81.0426 31.5513C81.0122 31.5894 80.9665 31.6198 80.9056 31.6502C80.8447 31.673 80.7762 31.6882 80.6849 31.6882H80.4642V30.9202H80.4566ZM81.2557 32.3574C81.2557 32.4715 81.2176 32.5627 81.1491 32.6312C81.0807 32.6996 80.9665 32.73 80.8219 32.73H80.4642V32.0076H80.8523C80.9741 32.0076 81.073 32.038 81.1491 32.0989C81.2253 32.1597 81.2557 32.2433 81.2557 32.3498V32.3574ZM100.068 33.0494V30.9278H100.578V30.6084H99.2389V30.9278H99.7336V33.0494H100.068ZM106.994 30.9202V30.6008H105.799V33.0418H106.134V32.0076H106.948V31.6882H106.134V30.9125H106.994V30.9202ZM79.2998 33.0494H79.6347V30.6084H79.3379L78.4551 31.8023L77.5418 30.6084H77.2603V33.0494H77.5875V31.2776C77.5875 31.2776 77.5875 31.2243 77.5875 31.1863C77.6027 31.2167 77.6103 31.2319 77.618 31.2395L78.379 32.2434H78.5084L79.2694 31.2091C79.2694 31.2091 79.2846 31.1787 79.2998 31.1483C79.2998 31.1863 79.2998 31.2167 79.2998 31.2395V33.0342V33.0494ZM30.723 20.9278C31.5601 20.9278 32.2374 20.251 32.2374 19.4144V2.48669H32.07C31.8189 2.9962 31.309 3.32319 30.7306 3.32319C30.1522 3.32319 29.6347 2.98859 29.3836 2.48669H29.2085V19.4144C29.2085 20.251 29.8858 20.9278 30.7306 20.9278H30.723ZM107.831 12.981H69.1857V28.0304H107.831V12.981ZM76.6362 26.289C74.0867 26.289 71.4992 24.2129 71.4992 20.8897C71.4992 17.8631 73.6758 15.4905 76.6895 15.4905C78.5845 15.4905 79.7184 16.1369 80.5632 17.1255L79.4977 18.0684C78.7823 17.3232 77.8615 16.8897 76.7123 16.8897C74.6727 16.8897 72.9832 18.4639 72.9832 20.8593C72.9832 23.5513 75.0457 24.8821 76.6514 24.8821C77.656 24.8821 78.828 24.4791 79.7184 23.4373L80.7534 24.327C79.9467 25.4449 78.4551 26.289 76.621 26.289H76.6362ZM85.7686 21.3384H81.7123L84.3683 17.9848C84.7184 17.5437 84.7717 17.2395 84.7717 17.0114C84.7717 16.1521 84.0563 15.924 83.653 15.924C82.8386 15.924 82.5114 16.4791 82.5114 17.1103H81.6971C81.6971 15.8023 82.5495 15.1255 83.6453 15.1255C84.6271 15.1255 85.6088 15.6502 85.6088 17.0038C85.6088 17.4297 85.4642 17.9087 85.0837 18.3802L83.3333 20.5323H85.7686V21.3232V21.3384ZM89.8173 26.1141H87.2755V15.6502H89.9467C93.516 15.6502 95.5403 18 95.5403 20.8517C95.5403 23.7034 93.4018 26.1141 89.8173 26.1141ZM105.152 26.1141H103.721V21.6122H98.6986V26.1141H97.2679V15.6502H98.6986V20.2662H103.721V15.6502H105.152V26.1141ZM89.9391 2.41825H86.0883V6.26616H89.9391V2.41825ZM26.5068 33.5818C25.3653 33.5818 24.5053 34.4563 24.5053 35.6122C24.5053 36.7681 25.4033 37.6654 26.5373 37.6654C27.6712 37.6654 28.5616 36.7757 28.5616 35.6198C28.5616 34.4639 27.7397 33.5818 26.5068 33.5818ZM26.5297 37.1407C25.7458 37.1407 25.0609 36.4943 25.0609 35.6198C25.0609 34.7453 25.6545 34.1141 26.5068 34.1141C27.3592 34.1141 27.9909 34.7453 27.9909 35.6046C27.9909 36.5551 27.3059 37.1407 26.5297 37.1407ZM10.8904 20.9278C11.7275 20.9278 12.4049 20.251 12.4049 19.4144V6.22814H11.7732C10.9437 6.22814 10.274 7.02662 10.2587 7.85551C10.2587 7.04943 10.0913 6.23574 9.37595 6.22814V19.4221C9.37595 20.2586 10.0533 20.9354 10.8904 20.9354V20.9278ZM96.4916 30.9202V30.6008H95.1446V33.0418H96.5601V32.7224H95.4794V32.0076H96.4764V31.6882H95.4794V30.9202H96.4992H96.4916ZM19.8326 7.06464C19.2466 7.06464 18.7443 6.73764 18.4931 6.22814H18.3181V19.4144C18.3181 20.251 18.9954 20.9278 19.8326 20.9278C20.6697 20.9278 21.347 20.251 21.347 19.4144V6.22814H21.1796C20.9285 6.73764 20.4186 7.06464 19.8402 7.06464H19.8326ZM14.726 20.9278C15.5556 20.9278 16.2405 20.251 16.2405 19.4144V7.74145C16.2405 6.90494 15.5632 6.22814 14.726 6.22814H13.2116V19.4221C13.2116 20.2586 13.8889 20.9354 14.726 20.9354V20.9278ZM25.2892 20.9278C26.1263 20.9278 26.8036 20.251 26.8036 19.4144C26.8036 18.5779 26.1263 17.8935 25.2892 17.8935C24.4521 17.8935 23.7747 18.5703 23.7747 19.4144C23.7747 20.2586 24.4521 20.9278 25.2892 20.9278ZM19.8402 5.53612C20.6773 5.53612 21.3546 4.85932 21.3546 4.02281C21.3546 3.18631 20.6773 2.50951 19.8402 2.50951C19.003 2.50951 18.3257 3.18631 18.3257 4.02281C18.3257 4.85932 19.003 5.53612 19.8402 5.53612ZM89.9163 16.943H88.7138V24.8213H89.6423C92.7397 24.8213 94.0487 22.8137 94.0487 20.8669C94.0487 18.73 92.4277 16.943 89.9163 16.943ZM93.2192 31.1483C93.2953 31.0646 93.3866 31.0038 93.4931 30.9582C93.5997 30.9125 93.7062 30.8897 93.828 30.8897C93.9574 30.8897 94.0791 30.9125 94.1857 30.9582C94.2922 31.0038 94.3835 31.0722 94.4673 31.1635L94.7108 30.943C94.6119 30.8289 94.4977 30.7376 94.3531 30.6692C94.2161 30.6008 94.0335 30.5627 93.8128 30.5627C93.6377 30.5627 93.4779 30.5932 93.3333 30.6616C93.1887 30.7224 93.0593 30.8137 92.9528 30.9278C92.8463 31.0418 92.7625 31.1787 92.7017 31.3308C92.6408 31.4829 92.6103 31.6502 92.6103 31.8251C92.6103 32.0152 92.6484 32.1901 92.7169 32.3498C92.7854 32.5019 92.8767 32.6388 92.9832 32.7453C93.0974 32.8517 93.2192 32.9354 93.3638 32.9962C93.5084 33.057 93.653 33.0875 93.7976 33.0875C94.0106 33.0875 94.2009 33.0418 94.3683 32.9582C94.5281 32.8745 94.6575 32.7605 94.7565 32.6312L94.5205 32.4259C94.414 32.5475 94.2998 32.6388 94.1781 32.6844C94.0487 32.7376 93.9269 32.7605 93.8128 32.7605C93.7214 32.7605 93.6225 32.7376 93.5236 32.6996C93.4246 32.6616 93.3333 32.6008 93.2496 32.5247C93.1659 32.4487 93.0974 32.3498 93.0441 32.2281C92.9909 32.1065 92.9604 31.9772 92.9604 31.8175C92.9604 31.6806 92.9832 31.5513 93.0289 31.4373C93.0746 31.3232 93.1355 31.2243 93.2116 31.1483H93.2192ZM102.877 35.5894C102.77 35.4829 102.633 35.3916 102.473 35.3308C102.314 35.27 102.131 35.2319 101.925 35.2319H101.309V37.673H101.895C102.1 37.673 102.291 37.6426 102.451 37.5741C102.61 37.5133 102.755 37.4221 102.869 37.308C102.983 37.2015 103.067 37.0646 103.128 36.9202C103.189 36.7681 103.219 36.6084 103.219 36.4411C103.219 36.2738 103.189 36.1141 103.135 35.9696C103.075 35.8251 102.998 35.6958 102.884 35.5818L102.877 35.5894ZM102.808 36.7833C102.77 36.8973 102.709 36.9962 102.626 37.0798C102.542 37.1635 102.435 37.2395 102.306 37.2928C102.177 37.346 102.024 37.3764 101.842 37.3764H101.629V35.5361H101.91C102.055 35.5361 102.184 35.5589 102.306 35.6122C102.42 35.6654 102.519 35.7262 102.603 35.8099C102.686 35.8935 102.747 35.9924 102.793 36.0989C102.839 36.2129 102.861 36.327 102.861 36.4487C102.861 36.5627 102.839 36.6768 102.801 36.7833H102.808ZM106.91 37.673H107.245V35.2319H106.91V37.673ZM90.4718 35.2319L89.5434 37.673H89.8934L90.1826 36.8821H90.9513L91.2405 37.673H91.6058L90.6697 35.2319H90.4566H90.4718ZM90.3044 36.5703L90.5555 35.8859C90.5555 35.8859 90.5632 35.8555 90.5708 35.8251C90.5784 35.8555 90.586 35.8783 90.5936 35.8935L90.8447 36.5779H90.3044V36.5703ZM106.18 35.5894C106.073 35.4829 105.936 35.3916 105.776 35.3308C105.616 35.27 105.434 35.2319 105.228 35.2319H104.612V37.673H105.198C105.403 37.673 105.594 37.6426 105.753 37.5741C105.913 37.5133 106.058 37.4221 106.172 37.308C106.286 37.2015 106.37 37.0646 106.431 36.9202C106.492 36.7681 106.522 36.6084 106.522 36.4411C106.522 36.2738 106.492 36.1141 106.438 35.9696C106.377 35.8251 106.301 35.6958 106.187 35.5818L106.18 35.5894ZM106.111 36.7833C106.073 36.8973 106.012 36.9962 105.928 37.0798C105.845 37.1635 105.738 37.2395 105.616 37.2928C105.487 37.346 105.335 37.3764 105.152 37.3764H104.939V35.5361H105.213C105.358 35.5361 105.487 35.5589 105.609 35.6122C105.723 35.6654 105.822 35.7262 105.906 35.8099C105.989 35.8935 106.05 35.9924 106.096 36.0989C106.142 36.2129 106.164 36.327 106.164 36.4487C106.164 36.5627 106.142 36.6768 106.103 36.7833H106.111ZM108.516 33.0875C108.683 33.0875 108.843 33.057 108.995 32.9886C109.148 32.9278 109.277 32.8365 109.391 32.7224C109.505 32.6084 109.589 32.4791 109.658 32.3194C109.718 32.1673 109.756 32 109.756 31.8251C109.756 31.6502 109.726 31.4829 109.665 31.3308C109.604 31.1787 109.521 31.0418 109.414 30.9278C109.307 30.8137 109.17 30.7224 109.018 30.6616C108.866 30.6008 108.699 30.5627 108.508 30.5627C108.333 30.5627 108.174 30.5932 108.021 30.654C107.869 30.7148 107.74 30.8061 107.633 30.9202C107.527 31.0342 107.435 31.1635 107.374 31.3156C107.314 31.4677 107.283 31.635 107.283 31.8099C107.283 31.9848 107.314 32.1673 107.382 32.3194C107.443 32.4715 107.534 32.6084 107.648 32.7224C107.763 32.8365 107.892 32.9202 108.044 32.9886C108.196 33.0494 108.356 33.0798 108.531 33.0798L108.516 33.0875ZM107.694 32.1977C107.648 32.0837 107.626 31.9544 107.626 31.8251C107.626 31.6958 107.648 31.5665 107.686 31.4525C107.732 31.3384 107.793 31.2395 107.869 31.1635C107.945 31.0798 108.037 31.019 108.151 30.9734C108.257 30.9278 108.379 30.9049 108.508 30.9049C108.638 30.9049 108.759 30.9278 108.874 30.9734C108.988 31.019 109.079 31.0875 109.163 31.1635C109.247 31.2472 109.307 31.346 109.345 31.4525C109.391 31.5665 109.414 31.6882 109.414 31.8175C109.414 31.962 109.391 32.0989 109.338 32.2129C109.292 32.327 109.224 32.4259 109.14 32.5095C109.056 32.5932 108.965 32.654 108.858 32.6996C108.752 32.7453 108.638 32.7681 108.516 32.7681C108.394 32.7681 108.28 32.7453 108.174 32.6996C108.067 32.654 107.968 32.5856 107.884 32.5019C107.801 32.4183 107.732 32.3194 107.686 32.2053L107.694 32.1977ZM108.858 36.8973H109.589C109.566 36.9734 109.536 37.0342 109.49 37.0951C109.444 37.1559 109.391 37.2091 109.33 37.2472C109.269 37.2928 109.201 37.3232 109.125 37.346C109.049 37.3688 108.965 37.384 108.881 37.384C108.76 37.384 108.645 37.3612 108.539 37.308C108.432 37.2548 108.341 37.1939 108.257 37.1027C108.174 37.019 108.113 36.9202 108.067 36.8061C108.021 36.692 107.998 36.5779 107.998 36.4487C107.998 36.3042 108.021 36.1825 108.067 36.0608C108.113 35.9468 108.174 35.8479 108.257 35.7643C108.333 35.6806 108.432 35.6198 108.539 35.5741C108.645 35.5285 108.76 35.5057 108.881 35.5057C109.026 35.5057 109.148 35.5285 109.254 35.5665C109.361 35.6046 109.467 35.673 109.574 35.7567L109.779 35.5057C109.665 35.4068 109.536 35.3232 109.391 35.2624C109.247 35.2015 109.079 35.1711 108.889 35.1711C108.721 35.1711 108.569 35.2015 108.417 35.2624C108.265 35.3232 108.135 35.4068 108.021 35.5209C107.907 35.6274 107.823 35.7643 107.755 35.9164C107.694 36.0684 107.656 36.2433 107.656 36.4335C107.656 36.6236 107.694 36.7985 107.763 36.9506C107.831 37.1027 107.922 37.2395 108.044 37.346C108.158 37.4525 108.288 37.5437 108.44 37.6046C108.584 37.6654 108.737 37.6958 108.889 37.6958C109.041 37.6958 109.178 37.6654 109.307 37.6122C109.444 37.5589 109.559 37.4753 109.658 37.3764C109.756 37.2776 109.84 37.1559 109.901 37.019C109.962 36.8821 109.992 36.73 109.992 36.5627H108.881V36.8821L108.858 36.8973ZM103.31 32.0152H104.307V31.6958H103.31V30.9278H104.33V30.6084H102.983V33.0494H104.399V32.73H103.318V32.0152H103.31ZM97.4353 35.2319L96.5068 37.673H96.8569L97.1461 36.8821H97.9148L98.2039 37.673H98.5692L97.6332 35.2319H97.4201H97.4353ZM97.2603 36.5703L97.5114 35.8859C97.5114 35.8859 97.519 35.8555 97.5266 35.8251C97.5342 35.8555 97.5418 35.8783 97.5494 35.8935L97.8006 36.5779H97.2603V36.5703ZM94.6651 36.1445C94.6651 36.1445 94.6423 36.1825 94.6271 36.2205C94.6119 36.1825 94.5966 36.1597 94.589 36.1521L94.003 35.2395H93.6149L94.4444 36.5475V37.6806H94.7793V36.5475L95.6164 35.2395H95.2359L94.6499 36.1521L94.6651 36.1445ZM93.0517 36.6008C93.1355 36.5627 93.2116 36.5171 93.2724 36.4487C93.3333 36.3878 93.3866 36.3118 93.4246 36.2281C93.4627 36.1445 93.4779 36.0532 93.4779 35.9544C93.4779 35.8555 93.4627 35.7643 93.4246 35.6806C93.3866 35.597 93.3409 35.5209 93.2724 35.4525C93.2039 35.384 93.1278 35.3384 93.0365 35.3004C92.9452 35.2624 92.8463 35.2472 92.7321 35.2472H91.9482V37.6882H92.2755V36.5475L93.2496 37.6882H93.6758L92.7854 36.6616C92.8767 36.6616 92.9604 36.6464 93.0441 36.6084L93.0517 36.6008ZM92.2755 36.3878V35.5513H92.6636C92.7473 35.5513 92.8082 35.5665 92.8691 35.5894C92.93 35.6122 92.9756 35.6426 93.0137 35.6806C93.0517 35.7186 93.0822 35.7567 93.0974 35.8023C93.1126 35.8479 93.1278 35.8935 93.1278 35.9316C93.1278 36.0608 93.0898 36.1673 93.0061 36.2509C92.9224 36.3346 92.8082 36.3726 92.656 36.3726H92.2755V36.3878ZM98.5388 32.327C98.5388 32.327 98.5388 32.3726 98.5464 32.4106C98.5312 32.3802 98.516 32.3574 98.5007 32.3422L97.245 30.6084H96.9635V33.0494H97.2907V31.2928C97.2907 31.2928 97.2907 31.2548 97.2907 31.2091C97.3135 31.2395 97.3288 31.2624 97.3364 31.2776L98.6073 33.0494H98.8737V30.6084H98.5388V32.3346V32.327ZM24.6043 26.7681H24.0639V30.7224H24.6043V26.7681ZM100.479 36.9582C100.479 36.9582 100.479 37.0038 100.479 37.0418C100.464 37.0114 100.449 36.9886 100.434 36.9734L99.1781 35.2395H98.8965V37.6806H99.2237V35.924C99.2237 35.924 99.2237 35.8859 99.2237 35.8403C99.2466 35.8707 99.2618 35.8935 99.2694 35.9087L100.54 37.6806H100.807V35.2395H100.472V36.9658L100.479 36.9582ZM110.479 31.9087L111.454 33.0494H111.88L110.989 32.0304C111.081 32.0304 111.164 32.0152 111.248 31.9772C111.332 31.9392 111.408 31.8935 111.469 31.8251C111.53 31.7643 111.583 31.6882 111.621 31.6046C111.659 31.5209 111.674 31.4297 111.674 31.3308C111.674 31.2319 111.659 31.1407 111.621 31.057C111.583 30.9734 111.537 30.8973 111.469 30.8289C111.4 30.7605 111.324 30.7148 111.233 30.6768C111.142 30.6388 111.043 30.6236 110.928 30.6236H110.145V33.0646H110.472V31.924L110.479 31.9087ZM110.479 30.9202H110.868C110.951 30.9202 111.012 30.9354 111.073 30.9582C111.134 30.981 111.18 31.0114 111.218 31.0494C111.256 31.0875 111.286 31.1255 111.301 31.1711C111.317 31.2167 111.332 31.2624 111.332 31.3004C111.332 31.4297 111.294 31.5361 111.21 31.6198C111.126 31.7034 111.012 31.7414 110.86 31.7414H110.479V30.9049V30.9202ZM125.586 35.5589C125.479 35.4449 125.342 35.3536 125.19 35.2928C125.038 35.2319 124.863 35.1939 124.68 35.1939C124.505 35.1939 124.345 35.2243 124.193 35.2928C124.041 35.3536 123.912 35.4449 123.805 35.5589C123.699 35.673 123.607 35.8023 123.546 35.9544C123.486 36.1065 123.455 36.2738 123.455 36.4487C123.455 36.6236 123.486 36.8061 123.554 36.9582C123.623 37.1103 123.706 37.2472 123.82 37.3612C123.935 37.4753 124.064 37.5589 124.216 37.6274C124.368 37.6882 124.528 37.7186 124.703 37.7186C124.878 37.7186 125.03 37.6882 125.183 37.6198C125.335 37.5589 125.464 37.4677 125.578 37.3536C125.693 37.2395 125.776 37.1103 125.845 36.9582C125.913 36.8061 125.944 36.6388 125.944 36.4639C125.944 36.289 125.913 36.1217 125.852 35.9696C125.791 35.8175 125.708 35.6806 125.601 35.5665L125.586 35.5589ZM125.51 36.8365C125.464 36.9506 125.396 37.0494 125.312 37.1331C125.228 37.2167 125.137 37.2776 125.03 37.3232C124.924 37.3688 124.81 37.3916 124.688 37.3916C124.566 37.3916 124.452 37.3688 124.345 37.3232C124.239 37.2776 124.14 37.2091 124.056 37.1255C123.973 37.0418 123.912 36.943 123.858 36.8289C123.813 36.7148 123.782 36.5856 123.782 36.4563C123.782 36.327 123.805 36.1977 123.851 36.0837C123.896 35.9696 123.95 35.8707 124.033 35.7947C124.11 35.711 124.201 35.6502 124.315 35.6046C124.422 35.5589 124.543 35.5361 124.673 35.5361C124.802 35.5361 124.924 35.5589 125.038 35.6046C125.152 35.6502 125.244 35.7186 125.327 35.7947C125.411 35.8783 125.472 35.9696 125.51 36.0837C125.556 36.1977 125.578 36.3194 125.578 36.4487C125.578 36.5932 125.556 36.73 125.502 36.8441L125.51 36.8365ZM122.002 35.5513H122.496V37.673H122.831V35.5513H123.341V35.2319H122.002V35.5513ZM118.128 22.403H121.979V18.5551H118.128V22.403ZM129.627 35.2319L129.041 36.1445C129.041 36.1445 129.018 36.1825 129.003 36.2205C128.988 36.1825 128.973 36.1597 128.965 36.1521L128.379 35.2395H127.998L128.828 36.5475V37.6806H129.163V36.5475L130.008 35.2395H129.627V35.2319ZM127.428 36.6008C127.511 36.5627 127.588 36.5171 127.648 36.4487C127.709 36.3878 127.763 36.3118 127.801 36.2281C127.839 36.1445 127.854 36.0532 127.854 35.9544C127.854 35.8555 127.839 35.7643 127.801 35.6806C127.763 35.597 127.717 35.5209 127.648 35.4525C127.58 35.384 127.504 35.3384 127.412 35.3004C127.321 35.2624 127.222 35.2472 127.108 35.2472H126.324V37.6882H126.651V36.5475L127.626 37.6882H128.052L127.161 36.6616C127.253 36.6616 127.336 36.6464 127.42 36.6084L127.428 36.6008ZM126.659 36.3878V35.5513H127.047C127.123 35.5513 127.192 35.5665 127.253 35.5894C127.314 35.6122 127.359 35.6426 127.397 35.6806C127.435 35.7186 127.466 35.7567 127.481 35.8023C127.496 35.8479 127.511 35.8935 127.511 35.9316C127.511 36.0608 127.473 36.1673 127.39 36.2509C127.306 36.3346 127.192 36.3726 127.04 36.3726H126.651L126.659 36.3878ZM121.621 36.5627C121.568 36.5095 121.507 36.4563 121.438 36.4183C121.37 36.3802 121.301 36.3422 121.233 36.3042C121.157 36.2662 121.088 36.2281 121.027 36.1977C120.966 36.1673 120.906 36.1293 120.86 36.0913C120.814 36.0532 120.776 36.0152 120.746 35.9696C120.715 35.924 120.708 35.8631 120.708 35.8023C120.708 35.711 120.738 35.6426 120.807 35.5894C120.875 35.5437 120.959 35.5209 121.05 35.5209C121.149 35.5209 121.24 35.5361 121.309 35.5589C121.377 35.5817 121.454 35.6198 121.53 35.6806L121.712 35.4068C121.621 35.3384 121.514 35.2928 121.408 35.2548C121.301 35.2167 121.18 35.2015 121.065 35.2015C120.959 35.2015 120.86 35.2167 120.776 35.2472C120.693 35.2776 120.616 35.3232 120.556 35.3764C120.495 35.4297 120.449 35.4981 120.419 35.5741C120.388 35.6502 120.373 35.7338 120.373 35.8251C120.373 35.9392 120.396 36.038 120.434 36.1217C120.472 36.2053 120.525 36.2738 120.594 36.3346C120.662 36.3954 120.738 36.4487 120.814 36.4943C120.898 36.5399 120.982 36.5856 121.065 36.6312C121.119 36.6616 121.172 36.6844 121.218 36.7148C121.271 36.7452 121.309 36.7757 121.347 36.8137C121.385 36.8517 121.416 36.8897 121.438 36.9278C121.461 36.9658 121.469 37.019 121.469 37.0646C121.469 37.1787 121.431 37.27 121.355 37.3232C121.279 37.3764 121.18 37.4068 121.058 37.4068C121.012 37.4068 120.974 37.4068 120.928 37.3916C120.883 37.384 120.837 37.3764 120.791 37.3536C120.746 37.3384 120.708 37.3156 120.662 37.3004C120.624 37.2776 120.586 37.2548 120.548 37.2243L120.358 37.4829C120.472 37.5741 120.586 37.6426 120.7 37.6806C120.814 37.7186 120.936 37.7338 121.065 37.7338C121.164 37.7338 121.263 37.7186 121.355 37.6882C121.446 37.6578 121.522 37.6122 121.591 37.5513C121.659 37.4905 121.712 37.4221 121.75 37.3384C121.788 37.2548 121.811 37.1559 121.811 37.0494C121.811 36.943 121.796 36.8593 121.766 36.7833C121.735 36.7072 121.689 36.6388 121.636 36.5856L121.621 36.5627ZM119.627 37.673H119.954V35.2319H119.627V37.673ZM112.374 35.2319H111.035V35.5513H111.53V37.673H111.865V35.5513H112.374V35.2319ZM113.25 35.2319L112.321 37.673H112.671L112.96 36.8821H113.729L114.018 37.673H114.384L113.447 35.2319H113.234H113.25ZM113.082 36.5703L113.333 35.8859C113.333 35.8859 113.341 35.8555 113.349 35.8251C113.356 35.8555 113.364 35.8783 113.371 35.8935L113.623 36.5779H113.082V36.5703ZM118.798 36.3042H117.641V35.2319H117.306V37.673H117.641V36.6236H118.798V37.673H119.132V35.2319H118.798V36.3042ZM115.053 35.2319H114.726V37.673H115.974V37.3536H115.061V35.2319H115.053ZM110.335 37.673H110.67V35.2319H110.335V37.673ZM102.694 33.0494L101.804 32.0304C101.895 32.0304 101.979 32.0152 102.062 31.9772C102.146 31.9392 102.222 31.8935 102.283 31.8251C102.344 31.7643 102.397 31.6882 102.435 31.6046C102.473 31.5209 102.489 31.4297 102.489 31.3308C102.489 31.2319 102.473 31.1407 102.435 31.057C102.397 30.9734 102.352 30.8973 102.283 30.8289C102.215 30.7605 102.138 30.7148 102.047 30.6768C101.956 30.6388 101.857 30.6236 101.743 30.6236H100.959V33.0646H101.286V31.924L102.26 33.0646H102.686L102.694 33.0494ZM101.286 31.7567V30.9202H101.674C101.75 30.9202 101.819 30.9354 101.88 30.9582C101.941 30.981 101.986 31.0114 102.024 31.0494C102.062 31.0875 102.093 31.1255 102.108 31.1711C102.123 31.2167 102.138 31.2624 102.138 31.3004C102.138 31.4297 102.1 31.5361 102.017 31.6198C101.933 31.7034 101.819 31.7414 101.667 31.7414H101.279L101.286 31.7567ZM0 24.1293H41.5906V23.5589H0V24.1293ZM38.0898 26.7681V29.2243C38.0898 30.1977 38.7215 30.7833 39.6347 30.7833C40.5479 30.7833 41.1872 30.1673 41.1872 29.2243V26.7681H40.6469V29.2243C40.6469 29.9848 40.1522 30.2738 39.6347 30.2738C39.1172 30.2738 38.6377 29.9848 38.6377 29.2243V26.7681H38.0898ZM35.0685 26.7681H34.0639V30.7224H35.0228C36.3775 30.7224 37.1842 29.8327 37.1842 28.7376C37.1842 27.6426 36.4231 26.7681 35.0685 26.7681ZM34.9543 30.2433H34.6043V27.2624H35.0609C36.0122 27.2624 36.621 27.9392 36.621 28.7452C36.621 29.4829 36.1263 30.2433 34.9543 30.2433ZM39.4292 36.3422H40.624C40.4871 36.8213 40.0304 37.1407 39.4597 37.1407C38.653 37.1407 37.9985 36.4335 37.9985 35.635C37.9985 34.7148 38.6377 34.1141 39.4368 34.1141C39.8934 34.1141 40.2283 34.2357 40.5784 34.5171L40.9056 34.1141C40.5251 33.7871 40.0837 33.5818 39.4444 33.5818C38.3562 33.5818 37.4353 34.3954 37.4353 35.6198C37.4353 36.8441 38.4399 37.6654 39.4368 37.6654C40.4338 37.6654 41.2481 36.9049 41.2481 35.8327H39.4216V36.3422H39.4292ZM55.2664 40H55.86V0H55.2664V40ZM72.1004 33.019C72.2146 32.9734 72.3135 32.9125 72.3972 32.8289C72.481 32.7452 72.5495 32.6464 72.5951 32.5247C72.6408 32.403 72.6712 32.2738 72.6712 32.1293V30.6084H72.344V32.1217C72.344 32.2434 72.3288 32.3422 72.2907 32.4183C72.2527 32.5019 72.207 32.5627 72.1537 32.616C72.0928 32.6692 72.032 32.7072 71.9559 32.73C71.8797 32.7529 71.8036 32.7681 71.7275 32.7681C71.6514 32.7681 71.5677 32.7529 71.4992 32.73C71.4231 32.7072 71.3622 32.6692 71.3014 32.616C71.2481 32.5627 71.2024 32.5019 71.1644 32.4183C71.1339 32.3346 71.1111 32.2357 71.1111 32.1141V30.6008H70.7762V32.1217C70.7762 32.2738 70.7991 32.4106 70.8447 32.5247C70.8904 32.6388 70.9589 32.7452 71.035 32.8289C71.1111 32.9125 71.2177 32.9734 71.3318 33.019C71.446 33.0646 71.5753 33.0875 71.7123 33.0875C71.8493 33.0875 71.9711 33.0646 72.0852 33.019H72.1004ZM70.6697 37.308C70.5479 37.3612 70.4186 37.384 70.3044 37.384C70.2131 37.384 70.1141 37.3612 70.0152 37.3232C69.9163 37.2852 69.825 37.2243 69.7412 37.1483C69.6575 37.0722 69.589 36.9734 69.5358 36.8517C69.4825 36.7376 69.4597 36.6008 69.4597 36.4411C69.4597 36.3042 69.4825 36.1749 69.5282 36.0608C69.5738 35.9468 69.6347 35.8479 69.7108 35.7719C69.7869 35.6882 69.8782 35.6274 69.9848 35.5818C70.0913 35.5361 70.1979 35.5133 70.3196 35.5133C70.449 35.5133 70.5708 35.5361 70.6773 35.5818C70.7839 35.6274 70.8752 35.6958 70.9589 35.7871L71.2024 35.5665C71.1035 35.4525 70.9893 35.3612 70.8447 35.2928C70.7001 35.2243 70.5251 35.1863 70.3044 35.1863C70.1294 35.1863 69.9696 35.2167 69.825 35.2852C69.6804 35.346 69.551 35.4373 69.4444 35.5513C69.3379 35.6654 69.2542 35.8023 69.1933 35.9544C69.1324 36.1065 69.102 36.2738 69.102 36.4487C69.102 36.6464 69.14 36.8213 69.2009 36.9734C69.2694 37.1255 69.3607 37.2624 69.4673 37.3688C69.5814 37.4753 69.7032 37.5589 69.8478 37.6198C69.9924 37.6806 70.137 37.711 70.2816 37.711C70.4947 37.711 70.6849 37.6654 70.8523 37.5817C71.0198 37.4981 71.1492 37.384 71.2405 37.2548L71.0046 37.0494C70.898 37.1711 70.7839 37.2624 70.6621 37.308H70.6697ZM28.5845 30.7224H30.898V30.2129H29.1248V29.0494H30.761V28.5399H29.1248V27.2776H30.7991V26.7681H28.5845V30.7224ZM36.4536 34.8137C36.4536 34.1749 35.9665 33.6502 35.2283 33.6502H33.9498V37.6046H34.4901V35.7567L36.0883 37.6046H36.7808L35.3196 35.9468C35.9132 35.9468 36.446 35.4525 36.446 34.8137H36.4536ZM34.4977 35.5133V34.1521H35.137C35.6545 34.1521 35.898 34.5171 35.898 34.7909C35.898 35.2167 35.6164 35.5133 35.1294 35.5133H34.4977ZM90.2587 33.0875C90.4033 33.0875 90.5479 33.057 90.6773 33.0038C90.8143 32.9506 90.9285 32.8669 91.0274 32.7681C91.1263 32.6692 91.21 32.5475 91.2709 32.4106C91.3318 32.2738 91.3622 32.1217 91.3622 31.9544H90.2511V32.2738H90.9817C90.9589 32.3498 90.9285 32.4106 90.8828 32.4715C90.8371 32.5323 90.7839 32.5856 90.723 32.6236C90.6621 32.6616 90.5936 32.6996 90.5175 32.7224C90.4414 32.7452 90.3577 32.7605 90.274 32.7605C90.1522 32.7605 90.038 32.7376 89.9239 32.6844C89.8173 32.6312 89.726 32.5703 89.6423 32.4791C89.5586 32.3954 89.4977 32.2966 89.452 32.1825C89.4064 32.0684 89.3835 31.9544 89.3835 31.8251C89.3835 31.6882 89.4064 31.5589 89.452 31.4373C89.4977 31.3232 89.5586 31.2243 89.6423 31.1407C89.7184 31.057 89.8173 30.9962 89.9239 30.9506C90.0304 30.9049 90.1446 30.8821 90.2663 30.8821C90.4109 30.8821 90.5327 30.9049 90.6393 30.943C90.7458 30.981 90.8523 31.0494 90.9589 31.1331L91.1644 30.8897C91.0502 30.7833 90.9208 30.7072 90.7762 30.6464C90.6393 30.5856 90.4718 30.5551 90.274 30.5551C90.1065 30.5551 89.9543 30.5856 89.8021 30.6464C89.6499 30.7072 89.5205 30.7909 89.4064 30.9049C89.2922 31.0114 89.2085 31.1483 89.14 31.3004C89.0791 31.4525 89.0411 31.6274 89.0411 31.8175C89.0411 32.0076 89.0791 32.1825 89.1476 32.3346C89.2161 32.4867 89.3074 32.6236 89.4292 32.73C89.5434 32.8365 89.6727 32.9278 89.825 32.9886C89.9695 33.0494 90.1218 33.0798 90.274 33.0798L90.2587 33.0875ZM29.8478 25.6578L29.3455 26.4563H29.863L30.3653 25.6578H29.8478ZM32.1842 36.1065C32.1842 36.8669 31.6819 37.1559 31.1644 37.1559C30.6469 37.1559 30.1674 36.8669 30.1674 36.1065V33.6502H29.6195V36.1065C29.6195 37.0875 30.2511 37.6654 31.1644 37.6654C32.0776 37.6654 32.7169 37.0494 32.7169 36.1065V33.6502H32.1766V36.1065H32.1842ZM26.8493 30.73V27.2852H27.6865V26.7757H25.4947V27.2852H26.3014V30.73H26.8417H26.8493ZM83.6073 32.9886C83.7595 32.9278 83.8889 32.8365 84.003 32.7224C84.1172 32.6084 84.2009 32.4791 84.2694 32.3194C84.3379 32.1673 84.3683 32 84.3683 31.8251C84.3683 31.6502 84.3379 31.4829 84.277 31.3308C84.2161 31.1787 84.1324 31.0418 84.0259 30.9278C83.9193 30.8137 83.7823 30.7224 83.6301 30.6616C83.4779 30.6008 83.3029 30.5627 83.1202 30.5627C82.9452 30.5627 82.7854 30.5932 82.6332 30.654C82.481 30.7148 82.3516 30.8061 82.245 30.9202C82.1385 31.0342 82.0472 31.1635 81.9863 31.3156C81.9254 31.4677 81.895 31.635 81.895 31.8099C81.895 31.9848 81.9254 32.1673 81.9939 32.3194C82.0548 32.4715 82.1461 32.6084 82.2603 32.7224C82.3744 32.8365 82.5038 32.9202 82.656 32.9886C82.8082 33.0494 82.968 33.0798 83.1431 33.0798C83.3181 33.0798 83.4703 33.0494 83.6225 32.981L83.6073 32.9886ZM82.4962 32.4943C82.4125 32.4106 82.344 32.3118 82.2983 32.1977C82.2527 32.0837 82.2222 31.9544 82.2222 31.8251C82.2222 31.6958 82.245 31.5665 82.2907 31.4525C82.3364 31.3384 82.3896 31.2395 82.4734 31.1635C82.5495 31.0798 82.6408 31.019 82.7549 30.9734C82.8615 30.9278 82.9832 30.9049 83.1126 30.9049C83.242 30.9049 83.3638 30.9278 83.4779 30.9734C83.5921 31.019 83.6834 31.0875 83.7671 31.1635C83.8508 31.2472 83.9117 31.346 83.9498 31.4525C83.9954 31.5665 84.0183 31.6882 84.0183 31.8175C84.0183 31.962 83.9954 32.0989 83.9422 32.2129C83.8965 32.327 83.828 32.4259 83.7443 32.5095C83.6606 32.5932 83.5692 32.654 83.4627 32.6996C83.3562 32.7453 83.242 32.7681 83.1202 32.7681C82.9985 32.7681 82.8843 32.7453 82.7778 32.6996C82.6712 32.654 82.5723 32.5856 82.4886 32.5019L82.4962 32.4943ZM85.0076 32.8289C85.0913 32.9125 85.1902 32.9734 85.3044 33.019C85.4186 33.0646 85.5479 33.0875 85.6849 33.0875C85.8219 33.0875 85.9437 33.0646 86.0578 33.019C86.172 32.9734 86.2709 32.9125 86.3546 32.8289C86.4383 32.7452 86.5068 32.6464 86.5525 32.5247C86.5982 32.403 86.6286 32.2738 86.6286 32.1293V30.6084H86.3014V32.1217C86.3014 32.2434 86.2861 32.3422 86.2481 32.4183C86.21 32.5019 86.1644 32.5627 86.1111 32.616C86.0502 32.6692 85.9893 32.7072 85.9132 32.73C85.8371 32.7529 85.761 32.7681 85.6849 32.7681C85.6088 32.7681 85.5251 32.7529 85.4566 32.73C85.3805 32.7072 85.3196 32.6692 85.2587 32.616C85.2055 32.5627 85.1598 32.5019 85.1217 32.4183C85.0913 32.3346 85.0685 32.2357 85.0685 32.1141V30.6008H84.7336V32.1217C84.7336 32.2738 84.7565 32.4106 84.8021 32.5247C84.8478 32.6388 84.9163 32.7452 84.9924 32.8289H85.0076ZM84.2998 35.4525C84.2313 35.384 84.1476 35.3308 84.0487 35.2928C83.9498 35.2548 83.8432 35.2319 83.7215 35.2319H82.9985V37.673H83.3257V36.7148H83.7823C83.8813 36.7148 83.9726 36.6996 84.0563 36.654C84.1476 36.616 84.2237 36.5627 84.2922 36.4943C84.3607 36.4259 84.414 36.3498 84.452 36.2586C84.4901 36.1673 84.5129 36.076 84.5129 35.9772C84.5129 35.8707 84.4977 35.7719 84.4597 35.6806C84.4216 35.5894 84.3683 35.5133 84.2998 35.4449V35.4525ZM84.0335 36.289C83.9421 36.365 83.828 36.403 83.691 36.403H83.3257V35.5589H83.6682C83.8204 35.5589 83.9421 35.597 84.0335 35.6654C84.1248 35.7338 84.1628 35.8403 84.1628 35.9696C84.1628 36.1065 84.1172 36.2129 84.0259 36.289H84.0335ZM86.9102 35.5589C86.8036 35.4449 86.6667 35.3536 86.5145 35.2928C86.3622 35.2319 86.1872 35.1939 86.0046 35.1939C85.8295 35.1939 85.6697 35.2243 85.5175 35.2928C85.3653 35.3536 85.2359 35.4449 85.1294 35.5589C85.0228 35.673 84.9315 35.8023 84.8706 35.9544C84.8097 36.1065 84.7793 36.2738 84.7793 36.4487C84.7793 36.6236 84.8097 36.8061 84.8782 36.9582C84.9391 37.1103 85.0304 37.2472 85.1446 37.3612C85.2587 37.4753 85.3881 37.5589 85.5403 37.6274C85.6925 37.6882 85.8523 37.7186 86.0274 37.7186C86.2024 37.7186 86.3546 37.6882 86.5068 37.6198C86.659 37.5589 86.7884 37.4677 86.9026 37.3536C87.0167 37.2395 87.1004 37.1103 87.1689 36.9582C87.2374 36.8061 87.2679 36.6388 87.2679 36.4639C87.2679 36.289 87.2374 36.1217 87.1766 35.9696C87.1157 35.8175 87.032 35.6806 86.9254 35.5665L86.9102 35.5589ZM86.8417 36.8365C86.796 36.9506 86.7275 37.0494 86.6438 37.1331C86.5601 37.2167 86.4688 37.2776 86.3622 37.3232C86.2557 37.3688 86.1415 37.3916 86.0198 37.3916C85.898 37.3916 85.7839 37.3688 85.6773 37.3232C85.5708 37.2776 85.4718 37.2091 85.3881 37.1255C85.3044 37.0418 85.2359 36.943 85.1902 36.8289C85.1446 36.7148 85.1217 36.5856 85.1217 36.4563C85.1217 36.327 85.1446 36.1977 85.1826 36.0837C85.2283 35.9696 85.2892 35.8707 85.3653 35.7947C85.4414 35.711 85.5327 35.6502 85.6469 35.6046C85.7534 35.5589 85.8752 35.5361 86.0046 35.5361C86.1339 35.5361 86.2557 35.5589 86.3699 35.6046C86.484 35.6502 86.5753 35.7186 86.659 35.7947C86.7428 35.8783 86.8036 35.9696 86.8417 36.0837C86.8874 36.1977 86.9102 36.3194 86.9102 36.4487C86.9102 36.5932 86.8874 36.73 86.8341 36.8441L86.8417 36.8365ZM88.7595 36.6008C88.8432 36.5627 88.9193 36.5171 88.9802 36.4487C89.0411 36.3878 89.0944 36.3118 89.1324 36.2281C89.1705 36.1445 89.1857 36.0532 89.1857 35.9544C89.1857 35.8555 89.1705 35.7643 89.1324 35.6806C89.0944 35.597 89.0487 35.5209 88.9802 35.4525C88.9117 35.384 88.8356 35.3384 88.7443 35.3004C88.653 35.2624 88.554 35.2472 88.4399 35.2472H87.656V37.6882H87.9909V36.5475L88.965 37.6882H89.3912L88.5007 36.6616C88.5921 36.6616 88.6758 36.6464 88.7595 36.6084V36.6008ZM87.9832 36.3878V35.5513H88.3714C88.4475 35.5513 88.516 35.5665 88.5769 35.5894C88.6377 35.6122 88.6834 35.6426 88.7215 35.6806C88.7595 35.7186 88.7899 35.7567 88.8052 35.8023C88.8204 35.8479 88.8356 35.8935 88.8356 35.9316C88.8356 36.0608 88.7976 36.1673 88.7138 36.2509C88.6301 36.3346 88.516 36.3726 88.3638 36.3726H87.9832V36.3878ZM73.5616 35.5589C73.4551 35.4449 73.3181 35.3536 73.1659 35.2928C73.0137 35.2319 72.8387 35.1939 72.656 35.1939C72.481 35.1939 72.3212 35.2243 72.1689 35.2928C72.0167 35.3536 71.8874 35.4449 71.7808 35.5589C71.6743 35.673 71.5829 35.8023 71.5221 35.9544C71.4612 36.1065 71.4307 36.2738 71.4307 36.4487C71.4307 36.6236 71.4612 36.8061 71.5297 36.9582C71.5906 37.1103 71.6819 37.2472 71.796 37.3612C71.9102 37.4753 72.0396 37.5589 72.1918 37.6274C72.344 37.6882 72.5038 37.7186 72.6788 37.7186C72.8539 37.7186 73.0061 37.6882 73.1583 37.6198C73.3105 37.5589 73.4399 37.4677 73.554 37.3536C73.6682 37.2395 73.7519 37.1103 73.8204 36.9582C73.8889 36.8061 73.9193 36.6388 73.9193 36.4639C73.9193 36.289 73.8889 36.1217 73.828 35.9696C73.7671 35.8175 73.6834 35.6806 73.5769 35.5665L73.5616 35.5589ZM73.4931 36.8365C73.4475 36.9506 73.379 37.0494 73.2953 37.1331C73.2116 37.2167 73.1202 37.2776 73.0137 37.3232C72.9071 37.3688 72.793 37.3916 72.6712 37.3916C72.5495 37.3916 72.4353 37.3688 72.3288 37.3232C72.2222 37.2776 72.1233 37.2091 72.0396 37.1255C71.9559 37.0418 71.8874 36.943 71.8417 36.8289C71.796 36.7148 71.7732 36.5856 71.7732 36.4563C71.7732 36.327 71.796 36.1977 71.8341 36.0837C71.8797 35.9696 71.9406 35.8707 72.0167 35.7947C72.0928 35.711 72.1842 35.6502 72.2983 35.6046C72.4049 35.5589 72.5266 35.5361 72.656 35.5361C72.7854 35.5361 72.9071 35.5589 73.0213 35.6046C73.1355 35.6502 73.2268 35.7186 73.3105 35.7947C73.3942 35.8783 73.4551 35.9696 73.4931 36.0837C73.5388 36.1977 73.5616 36.3194 73.5616 36.4487C73.5616 36.5932 73.5388 36.73 73.4855 36.8441L73.4931 36.8365ZM88.8432 33.0494L87.9528 32.0304C88.0441 32.0304 88.1278 32.0152 88.2116 31.9772C88.2953 31.9392 88.3714 31.8935 88.4323 31.8251C88.4931 31.7643 88.5464 31.6882 88.5845 31.6046C88.6225 31.5209 88.6377 31.4297 88.6377 31.3308C88.6377 31.2319 88.6225 31.1407 88.5845 31.057C88.5464 30.9734 88.5007 30.8973 88.4323 30.8289C88.3638 30.7605 88.2877 30.7148 88.1963 30.6768C88.105 30.6388 88.0061 30.6236 87.8919 30.6236H87.1081V33.0646H87.4353V31.924L88.4094 33.0646H88.8356L88.8432 33.0494ZM87.4429 31.7567V30.9202H87.831C87.9071 30.9202 87.9756 30.9354 88.0365 30.9582C88.0974 30.981 88.1431 31.0114 88.1811 31.0494C88.2192 31.0875 88.2496 31.1255 88.2648 31.1711C88.2801 31.2167 88.2953 31.2624 88.2953 31.3004C88.2953 31.4297 88.2572 31.5361 88.1735 31.6198C88.0898 31.7034 87.9756 31.7414 87.8234 31.7414H87.4429V31.7567ZM75.0837 33.0494L74.2466 31.7491L74.9848 30.616H74.6042L74.14 31.3308C74.14 31.3308 74.0944 31.4068 74.0639 31.4677C74.0335 31.4145 74.003 31.3688 73.9878 31.3384L73.5236 30.616H73.1126L73.8584 31.7719L73.0213 33.057H73.4094L73.9498 32.2281C73.9498 32.2281 73.9802 32.1825 73.9954 32.1521C74.0107 32.1217 74.0259 32.0989 74.0411 32.0837C74.0487 32.0684 74.0563 32.0532 74.0563 32.0532C74.0563 32.0532 74.0639 32.0684 74.0715 32.0837C74.0791 32.0989 74.0944 32.1217 74.1096 32.1521C74.1248 32.1825 74.14 32.2053 74.1552 32.2205L74.6956 33.0494H75.0989H75.0837ZM75.8752 36.9582C75.8752 36.9582 75.8752 37.0038 75.8752 37.0418C75.86 37.0114 75.8447 36.9886 75.8295 36.9734L74.5738 35.2395H74.2922V37.6806H74.6271V35.924C74.6271 35.924 74.6271 35.8859 74.6271 35.8403C74.6499 35.8707 74.6651 35.8935 74.6727 35.9087L75.9437 37.6806H76.21V35.2395H75.8752V36.9658V36.9582ZM76.5829 35.5513H77.0776V37.673H77.4125V35.5513H77.9224V35.2319H76.5829V35.5513ZM81.3166 36.4259L80.4033 35.2319H80.1218V37.673H80.4566V35.9011C80.4566 35.9011 80.4566 35.8479 80.4566 35.8099C80.4718 35.8327 80.4871 35.8555 80.4871 35.8631L81.2481 36.8669H81.3851L82.1461 35.8327C82.1461 35.8327 82.1613 35.8023 82.1766 35.7795C82.1766 35.8175 82.1766 35.8479 82.1766 35.8707V37.6654H82.5114V35.2243H82.2146L81.3318 36.4183L81.3166 36.4259ZM78.6225 36.6388H79.6195V36.3194H78.6225V35.5437H79.6423V35.2243H78.2877V37.6654H79.7032V37.346H78.6225V36.6312V36.6388Z" fill="white"/>
</g>
<defs>
<clipPath id="clip0_41_2059">
<rect width="130" height="40" fill="white"/>
</clipPath>
</defs>
</svg>
