<svg width="251" height="32" viewBox="0 0 251 32" fill="none" xmlns="http://www.w3.org/2000/svg">
<g clip-path="url(#clip0_43_2120)">
<path d="M74.3938 22.4405L74.2059 22.5097C73.4837 22.7865 72.5933 22.7766 71.8316 22.7766C69.6255 22.7766 68.0525 21.8573 67.0929 20.4337C66.1234 19.0102 65.7376 17.1121 65.7376 15.1053C65.7376 12.4362 66.6379 10.3503 68.2504 8.95644C69.853 7.56256 72.1284 6.86067 74.8192 6.86067C77.51 6.86067 79.7458 7.48347 81.2891 8.2941V1.3148C78.7467 0.691999 76.8077 0.316342 71.7623 0.316342C67.36 0.316342 63.2743 1.50263 60.3065 3.85542C57.3386 6.20822 55.459 9.69787 55.4491 14.4133C55.4491 19.4452 57.2595 23.1523 60.1878 25.6237C63.116 28.0951 67.2018 29.3309 71.7623 29.3309C76.036 29.3309 79.3996 28.8959 82.9511 27.848V14.9175H74.4037V22.4504L74.3938 22.4405ZM30.7666 28.8267H40.8276V18.6642H53.3617V12.367H40.8276V6.86067H53.3617V0.810627H30.7666V28.8366V28.8267ZM15.3239 0.810627H0V6.86067H12.9793C14.948 6.85079 16.2934 7.54279 17.0453 8.89713C17.807 10.2317 18.0346 12.1396 18.0346 14.6209C18.0346 17.0133 17.8268 18.9015 17.075 20.236C16.333 21.5805 14.9975 22.3021 13.009 22.2922H10.0511V12.3769H0V28.8366H14.8887C18.826 28.8366 22.2489 27.9963 24.6726 25.8511C27.0964 23.7158 28.5803 20.2657 28.5902 14.8977C28.5902 9.14427 27.2052 5.64473 24.8903 3.56874C22.5853 1.49274 19.2712 0.800741 15.3338 0.800741L15.3239 0.810627ZM123.353 8.73896C123.353 9.08496 123.363 9.41118 123.393 9.70775C123.423 10.0043 123.482 10.2614 123.581 10.4986C123.69 10.726 123.858 10.9039 124.075 11.0423C124.303 11.1807 124.61 11.2499 125.005 11.2499C125.243 11.2499 125.46 11.2203 125.658 11.1708C125.846 11.1214 125.995 11.0819 126.103 11.0423L126.044 10.2811C125.817 10.3998 125.54 10.4591 125.213 10.4591C124.857 10.4591 124.61 10.3404 124.471 10.0933C124.313 9.85604 124.244 9.56935 124.244 9.22336V4.33982H125.906V3.54896H124.244V1.40377L123.353 1.73V3.54896H121.919V4.33982H123.353V8.73896ZM109.929 11.2598C110.661 11.2598 111.363 11.1115 112.046 10.8446V9.90547C111.818 10.0439 111.512 10.1724 111.116 10.2712C110.72 10.3998 110.354 10.469 109.998 10.469C109.207 10.469 108.603 10.1724 108.207 9.6089C107.802 9.07507 107.594 8.40284 107.594 7.58233H112.6V7.10782C112.6 6.05993 112.372 5.18999 111.927 4.47822C111.452 3.75656 110.71 3.39079 109.691 3.37102C108.761 3.37102 108.019 3.74668 107.475 4.46834C106.911 5.18999 106.625 6.1489 106.615 7.31542C106.615 8.46216 106.862 9.4013 107.367 10.123C107.881 10.8545 108.742 11.24 109.929 11.2598ZM108.178 4.99228C108.564 4.45845 109.078 4.18165 109.741 4.16188C110.413 4.18165 110.898 4.44856 111.195 4.97251C111.472 5.48656 111.611 6.09947 111.611 6.79147H107.584C107.584 6.12913 107.782 5.5261 108.168 4.99228H108.178ZM118.001 11.0918C118.268 11.0028 118.496 10.8842 118.674 10.7359C118.852 10.5777 119 10.4096 119.119 10.2317C119.238 10.0636 119.327 9.89558 119.396 9.73741H119.426V11.0819H120.296C120.247 10.469 120.227 9.87581 120.237 9.31233V3.54896H119.347V7.72073C119.347 8.03707 119.307 8.35341 119.238 8.66976C119.169 8.9861 119.05 9.28267 118.882 9.55947C118.733 9.82638 118.516 10.0439 118.219 10.2119C117.932 10.3899 117.586 10.4788 117.18 10.4788C116.567 10.4788 116.132 10.2614 115.855 9.82638C115.578 9.42107 115.439 8.85758 115.439 8.13593V3.54896H114.549V8.3633C114.549 9.21347 114.727 9.89558 115.122 10.4294C115.518 10.9731 116.151 11.2499 117.032 11.2598C117.418 11.2598 117.734 11.2005 118.001 11.0918ZM119.149 24.5758C118.941 24.4572 118.723 24.3485 118.506 24.2496C118.288 24.1409 118.09 24.042 117.922 23.9432C117.754 23.8344 117.615 23.7158 117.507 23.5873C117.398 23.4489 117.348 23.3006 117.348 23.1424C117.348 22.8854 117.388 22.6778 117.477 22.5196C117.556 22.3614 117.665 22.2329 117.813 22.144C118.09 21.966 118.456 21.8869 118.921 21.8869C119.475 21.8869 120.019 22.0154 120.544 22.2428L120.623 21.4322C120.296 21.3037 119.97 21.2147 119.634 21.1554C119.297 21.1158 119.03 21.0961 118.812 21.0961C118.189 21.0961 117.645 21.2542 117.18 21.5607C116.695 21.877 116.448 22.401 116.438 23.1523C116.438 23.4192 116.488 23.6466 116.596 23.8443C116.705 24.0519 116.844 24.2298 117.002 24.388C117.18 24.5363 117.378 24.6648 117.576 24.7834C117.774 24.9021 117.981 25.0207 118.209 25.1196C118.674 25.3173 119.08 25.5348 119.426 25.7819C119.772 26.0389 119.95 26.3849 119.96 26.8397C119.96 27.2648 119.792 27.591 119.485 27.8183C119.169 28.0655 118.793 28.1841 118.338 28.1841C117.625 28.1841 116.992 28.0161 116.438 27.7096L116.359 28.6191C117.012 28.8563 117.695 28.975 118.397 28.975C119 28.975 119.564 28.8069 120.099 28.4807C120.346 28.3126 120.554 28.0951 120.712 27.8183C120.86 27.5514 120.939 27.2252 120.939 26.8298C120.939 26.2169 120.751 25.7424 120.395 25.3964C120.039 25.0504 119.624 24.7736 119.149 24.566V24.5758ZM125.935 21.8968C126.46 21.8968 126.984 22.0352 127.498 22.2824L127.568 21.4025C127.508 21.3729 127.429 21.3432 127.32 21.3037C127.211 21.274 127.073 21.2444 126.925 21.2147C126.628 21.1455 126.252 21.1158 125.807 21.1158C124.718 21.1158 123.848 21.4915 123.195 22.2132C122.542 22.9249 122.206 23.874 122.196 25.0602C122.196 26.1279 122.483 27.0473 123.066 27.8085C123.64 28.5795 124.511 28.9849 125.688 29.0046C126.341 29.0046 126.964 28.9255 127.558 28.7377L127.479 27.8678C126.944 28.0951 126.39 28.2039 125.826 28.2039C125.005 28.2039 124.362 27.8777 123.897 27.2549C123.413 26.6617 123.175 25.9302 123.175 25.0504C123.175 24.1112 123.423 23.35 123.907 22.7668C124.372 22.1934 125.045 21.9067 125.925 21.8968H125.935ZM131.406 10.1032C131.554 9.83627 131.634 9.51004 131.634 9.11461C131.634 8.5017 131.446 8.02719 131.089 7.68119C130.733 7.33519 130.318 7.05839 129.843 6.85079C129.635 6.73216 129.418 6.62342 129.2 6.52456C128.982 6.41582 128.784 6.31696 128.616 6.2181C128.448 6.10936 128.31 5.99073 128.201 5.86222C128.092 5.72382 128.042 5.57553 128.042 5.41736C128.042 5.16033 128.082 4.95273 128.171 4.79456C128.25 4.63639 128.359 4.50788 128.507 4.41891C128.784 4.24096 129.15 4.16188 129.615 4.16188C130.169 4.16188 130.714 4.29039 131.238 4.51776L131.317 3.70714C130.991 3.57862 130.664 3.48965 130.328 3.43034C129.991 3.39079 129.724 3.37102 129.507 3.37102C128.883 3.37102 128.339 3.52919 127.874 3.83565C127.39 4.15199 127.142 4.67593 127.132 5.42725C127.132 5.69416 127.182 5.92153 127.291 6.11925C127.399 6.32685 127.538 6.50479 127.696 6.67285C127.874 6.82113 128.072 6.94965 128.27 7.06827C128.468 7.1869 128.676 7.30553 128.903 7.40439C129.368 7.6021 129.774 7.81959 130.12 8.06673C130.466 8.32376 130.644 8.66976 130.654 9.1245C130.654 9.54958 130.486 9.87581 130.179 10.1032C129.863 10.3503 129.487 10.469 129.032 10.469C128.319 10.469 127.686 10.3009 127.132 9.99444L127.053 10.9039C127.706 11.1412 128.389 11.2598 129.091 11.2598C129.695 11.2598 130.258 11.0918 130.793 10.7655C131.04 10.5975 131.248 10.38 131.406 10.1032ZM250.941 28.0161C250.713 28.1347 250.436 28.194 250.11 28.194C249.754 28.194 249.506 28.0754 249.368 27.8282C249.209 27.591 249.14 27.3043 249.14 26.9583V22.0748H250.802V21.2839H249.14V19.1387L248.25 19.4649V21.2839H246.815V22.0748H248.25V26.4739C248.25 26.8199 248.26 27.1461 248.289 27.4427C248.319 27.7393 248.378 27.9963 248.477 28.2335C248.586 28.4609 248.754 28.6389 248.972 28.7773C249.2 28.9157 249.506 28.9849 249.902 28.9849C250.139 28.9849 250.357 28.9552 250.555 28.9058C250.743 28.8563 250.891 28.8168 251 28.7773L250.941 28.0062V28.0161ZM132.514 21.0961C131.98 21.0961 131.525 21.2345 131.129 21.4915C130.733 21.7683 130.446 22.1143 130.239 22.5394H130.209V17.7251H129.319V28.8069H130.209V24.7736C130.209 24.0717 130.357 23.4291 130.694 22.8261C131.03 22.223 131.594 21.9166 132.375 21.8968C133.108 21.8968 133.582 22.144 133.81 22.6185C133.929 22.836 134.018 23.0831 134.057 23.3698C134.097 23.6664 134.117 23.9827 134.117 24.3188V28.8168H135.007V24.3089C135.007 23.3599 134.849 22.5888 134.502 21.9957C134.146 21.4124 133.483 21.1158 132.514 21.106V21.0961ZM97.266 28.8168H98.2453V23.953H101.836V23.0732H98.2453V19.3859H102.015V18.506H97.266V28.8168ZM103.627 2.20451C102.836 1.27525 101.55 0.790856 99.7787 0.78097H97.3055V11.0918H99.0566C100.738 11.0918 102.113 10.6963 103.162 9.89558C104.221 9.08496 104.765 7.76027 104.784 5.92153C104.784 4.38925 104.409 3.15354 103.637 2.2144L103.627 2.20451ZM99.106 10.202H98.2849V1.65091H99.7293C100.877 1.65091 101.836 1.94748 102.618 2.55051C103.38 3.19308 103.766 4.29039 103.795 5.85233C103.716 8.81804 102.153 10.2712 99.106 10.202ZM106.694 21.0961C105.526 21.1158 104.676 21.5113 104.122 22.2922C103.568 23.0534 103.291 23.9728 103.291 25.0405C103.291 26.1081 103.568 27.0077 104.122 27.7788C104.676 28.5598 105.526 28.9651 106.694 28.9947C107.881 28.975 108.742 28.5697 109.296 27.7788C109.83 27.0077 110.097 26.0982 110.097 25.0405C110.097 23.9827 109.83 23.0534 109.296 22.2922C108.742 21.5113 107.871 21.1158 106.694 21.0961ZM108.524 27.2648C108.099 27.8777 107.495 28.1841 106.704 28.194C105.912 28.194 105.309 27.8777 104.903 27.2648C104.488 26.6815 104.27 25.9401 104.27 25.0405C104.27 24.1409 104.478 23.3896 104.903 22.7865C105.309 22.1934 105.902 21.8968 106.704 21.8869C107.495 21.8869 108.108 22.1934 108.524 22.7865C108.93 23.3797 109.127 24.131 109.127 25.0405C109.127 25.95 108.93 26.6815 108.524 27.2648ZM245.272 17.557C244.817 17.557 244.461 17.646 244.204 17.814C243.937 17.992 243.739 18.2391 243.62 18.5456C243.491 18.8421 243.422 19.1684 243.402 19.544C243.363 19.9296 243.343 20.325 243.343 20.7303V21.274H241.869V22.0649H243.343V28.8069H244.233V22.0649H245.876V21.274H244.233V20.6216C244.233 20.3744 244.233 20.1174 244.243 19.8604C244.243 19.6033 244.273 19.3661 244.332 19.1387C244.392 18.9113 244.5 18.7235 244.659 18.5653C244.817 18.4269 245.035 18.3577 245.341 18.3577C245.618 18.3577 245.856 18.4171 246.054 18.5258L246.113 17.7152C246.024 17.6559 245.905 17.6163 245.747 17.5867C245.579 17.5867 245.43 17.5768 245.272 17.5768V17.557ZM113.668 21.5904C113.352 21.9067 113.114 22.2824 112.936 22.7272H112.906V21.2839H112.016C112.056 21.709 112.075 22.2725 112.075 22.9645V28.8168H112.966V25.0899C112.966 24.7439 112.996 24.388 113.065 24.0222C113.124 23.6762 113.213 23.3599 113.352 23.0633C113.5 22.7569 113.678 22.5196 113.916 22.3417C114.143 22.1736 114.44 22.0846 114.786 22.0748C115.024 22.0748 115.241 22.1044 115.439 22.1637V21.1949C115.261 21.1455 115.043 21.1158 114.806 21.106C114.351 21.106 113.965 21.2839 113.658 21.6002L113.668 21.5904ZM178.713 21.0961C177.783 21.0961 177.041 21.4717 176.497 22.1934C175.933 22.9249 175.647 23.874 175.637 25.0405C175.637 26.1872 175.884 27.1264 176.389 27.848C176.903 28.5795 177.764 28.9651 178.951 28.9849C179.683 28.9849 180.385 28.8366 181.068 28.5697V27.6305C180.84 27.7689 180.524 27.8974 180.138 27.9963C179.742 28.1248 179.376 28.194 179.02 28.194C178.229 28.194 177.625 27.8974 177.229 27.334C176.824 26.8001 176.616 26.1279 176.616 25.3074H181.622V24.8329C181.622 23.785 181.394 22.915 180.949 22.2033C180.474 21.4816 179.732 21.1158 178.713 21.0961ZM176.616 24.5165C176.616 23.8542 176.814 23.2512 177.2 22.7173C177.586 22.1835 178.1 21.9067 178.763 21.8869C179.436 21.9067 179.92 22.1736 180.217 22.6976C180.494 23.2116 180.633 23.8245 180.633 24.5165H176.606H176.616ZM172.847 22.1242H172.817C172.491 21.6892 172.154 21.4025 171.798 21.2641C171.432 21.1554 171.017 21.0961 170.532 21.0961C169.473 21.0961 168.712 21.4717 168.227 22.2033C167.742 22.9249 167.515 23.8641 167.525 25.0405C167.525 25.4656 167.584 25.8906 167.703 26.3256C167.792 26.7606 167.96 27.1659 168.207 27.5416C168.662 28.3621 169.464 28.7773 170.611 28.8069C171.571 28.8267 172.313 28.3324 172.827 27.334H172.857C172.857 27.8678 172.837 28.3621 172.797 28.8267C172.748 29.2913 172.639 29.6966 172.471 30.0525C172.303 30.4084 172.055 30.6852 171.709 30.8829C171.373 31.0905 170.918 31.1993 170.334 31.2091C169.503 31.1894 168.791 31.0114 168.187 30.6852L168.108 31.6145C168.306 31.6738 168.603 31.7529 168.999 31.8517C169.404 31.9506 169.84 32 170.324 32.0099C171.571 31.9901 172.461 31.6145 172.985 30.8928C173.49 30.1711 173.737 29.2715 173.737 28.2039V21.2938H172.847V22.1341V22.1242ZM172.352 27.0374C172.006 27.6701 171.432 27.9963 170.621 28.0161C169.859 27.9963 169.325 27.68 168.999 27.067C168.662 26.4838 168.504 25.8116 168.514 25.0405C168.514 24.6648 168.544 24.2892 168.613 23.9135C168.692 23.5378 168.801 23.2017 168.959 22.9052C169.127 22.5888 169.355 22.3417 169.632 22.1637C169.899 21.9759 170.255 21.877 170.68 21.877C171.501 21.877 172.075 22.1835 172.392 22.7569C172.699 23.3302 172.847 24.0914 172.847 25.0306C172.847 25.7522 172.679 26.4146 172.352 27.0275V27.0374ZM138.183 10.1328C137.648 10.3602 137.094 10.469 136.53 10.469C135.709 10.469 135.066 10.1427 134.601 9.51993C134.117 8.92678 133.879 8.19524 133.879 7.31542C133.879 6.37627 134.127 5.61508 134.611 5.03182C135.076 4.45845 135.749 4.17176 136.629 4.16188C137.154 4.16188 137.678 4.30028 138.192 4.54742L138.262 3.66759C138.202 3.63794 138.123 3.60828 138.014 3.56874C137.906 3.53908 137.767 3.49954 137.619 3.47977C137.322 3.41057 136.946 3.38091 136.501 3.38091C135.413 3.38091 134.542 3.75656 133.889 4.47822C133.236 5.18999 132.9 6.13902 132.89 7.3253C132.89 8.39296 133.177 9.31233 133.76 10.0735C134.334 10.8446 135.205 11.2499 136.382 11.2697C137.035 11.2697 137.658 11.1906 138.252 11.0028L138.173 10.1328H138.183ZM191.069 21.0961C190.466 21.0961 189.971 21.2641 189.566 21.5607C189.15 21.8672 188.853 22.2428 188.665 22.6877H188.636C188.576 22.3614 188.468 22.0846 188.329 21.8672C188.181 21.6596 188.003 21.5014 187.815 21.3926C187.617 21.274 187.419 21.1949 187.221 21.1554C187.013 21.1158 186.825 21.0961 186.647 21.0961C186.252 21.0961 185.925 21.1455 185.658 21.2444C185.391 21.3531 185.173 21.4816 184.995 21.6299C184.817 21.7782 184.679 21.9265 184.59 22.0945C184.471 22.2626 184.372 22.4208 184.313 22.5592H184.283V21.274H183.383C183.422 21.877 183.442 22.4603 183.442 23.0436V28.8069H184.342V24.6352C184.342 23.6861 184.57 22.9842 184.985 22.5295C185.391 22.0945 185.856 21.877 186.39 21.877C186.697 21.877 186.964 21.9166 187.172 22.0056C187.379 22.1044 187.548 22.2428 187.656 22.4208C187.785 22.5888 187.884 22.7865 187.943 23.0139C187.983 23.2512 188.013 23.5082 188.013 23.785V28.797H188.903V24.6253C188.903 23.6762 189.13 22.9744 189.546 22.5196C189.952 22.0846 190.417 21.8672 190.951 21.8672C191.257 21.8672 191.525 21.9067 191.732 21.9957C191.94 22.0945 192.108 22.2329 192.217 22.4109C192.346 22.5789 192.445 22.7766 192.504 23.004C192.543 23.2413 192.563 23.4983 192.563 23.7751V28.7871H193.464V23.5972C193.464 22.8458 193.266 22.2329 192.86 21.7782C192.445 21.3136 191.861 21.0763 191.099 21.0664L191.069 21.0961ZM223.735 21.8968C224.26 21.8968 224.784 22.0352 225.299 22.2824L225.368 21.4025C225.308 21.3729 225.229 21.3432 225.12 21.3037C225.012 21.274 224.873 21.2444 224.725 21.2147C224.428 21.1455 224.052 21.1158 223.607 21.1158C222.519 21.1158 221.648 21.4915 220.995 22.2132C220.342 22.9249 220.006 23.874 219.996 25.0602C219.996 26.1279 220.283 27.0473 220.867 27.8085C221.44 28.5795 222.311 28.9849 223.488 29.0046C224.141 29.0046 224.764 28.9255 225.358 28.7377L225.279 27.8678C224.745 28.0951 224.191 28.2039 223.627 28.2039C222.806 28.2039 222.163 27.8777 221.698 27.2549C221.213 26.6617 220.975 25.9302 220.975 25.0504C220.975 24.1112 221.223 23.35 221.707 22.7668C222.172 22.1934 222.845 21.9067 223.726 21.8968H223.735ZM216.949 24.5758C216.741 24.4572 216.524 24.3485 216.306 24.2496C216.088 24.1409 215.89 24.042 215.722 23.9432C215.554 23.8344 215.416 23.7158 215.307 23.5873C215.198 23.4489 215.148 23.3006 215.148 23.1424C215.148 22.8854 215.188 22.6778 215.277 22.5196C215.356 22.3614 215.465 22.2329 215.613 22.144C215.89 21.966 216.257 21.8869 216.721 21.8869C217.275 21.8869 217.82 22.0154 218.344 22.2428L218.423 21.4322C218.097 21.3037 217.77 21.2147 217.434 21.1554C217.097 21.1158 216.83 21.0961 216.613 21.0961C215.989 21.0961 215.445 21.2542 214.98 21.5607C214.496 21.877 214.248 22.401 214.238 23.1523C214.238 23.4192 214.288 23.6466 214.397 23.8443C214.505 24.0519 214.644 24.2298 214.802 24.388C214.98 24.5363 215.178 24.6648 215.376 24.7834C215.574 24.9021 215.782 25.0207 216.009 25.1196C216.474 25.3173 216.88 25.5348 217.226 25.7819C217.572 26.0389 217.75 26.3849 217.76 26.8397C217.76 27.2648 217.592 27.591 217.285 27.8183C216.969 28.0655 216.593 28.1841 216.138 28.1841C215.426 28.1841 214.792 28.0161 214.238 27.7096L214.159 28.6191C214.812 28.8563 215.495 28.975 216.197 28.975C216.801 28.975 217.364 28.8069 217.899 28.4807C218.146 28.3126 218.354 28.0951 218.512 27.8183C218.66 27.5514 218.74 27.2252 218.74 26.8298C218.74 26.2169 218.552 25.7424 218.195 25.3964C217.839 25.0504 217.424 24.7736 216.949 24.566V24.5758ZM203.287 19.2672H204.177V18.0315H203.287V19.2672ZM203.287 28.8168H204.177V21.2839H203.287V28.8168ZM198.43 21.0961C197.5 21.0961 196.758 21.4717 196.214 22.1934C195.65 22.9249 195.363 23.874 195.353 25.0405C195.353 26.1872 195.6 27.1264 196.105 27.848C196.619 28.5795 197.48 28.9651 198.667 28.9849C199.399 28.9849 200.102 28.8366 200.784 28.5697V27.6305C200.557 27.7689 200.25 27.8974 199.854 27.9963C199.459 28.1248 199.092 28.194 198.736 28.194C197.945 28.194 197.341 27.8974 196.946 27.334C196.53 26.8001 196.332 26.1279 196.332 25.3074H201.338V24.8329C201.338 23.785 201.111 22.915 200.665 22.2033C200.191 21.4816 199.449 21.1158 198.43 21.0961ZM196.332 24.5165C196.332 23.8542 196.53 23.2512 196.916 22.7173C197.302 22.1835 197.816 21.9067 198.479 21.8869C199.152 21.9067 199.637 22.1736 199.933 22.6976C200.21 23.2116 200.349 23.8245 200.349 24.5165H196.323H196.332ZM209.767 21.0961C209.401 21.0961 209.084 21.1356 208.807 21.2246C208.54 21.3136 208.322 21.4421 208.135 21.6002C207.966 21.7485 207.818 21.9067 207.709 22.0846C207.59 22.2626 207.491 22.4405 207.412 22.6185H207.383V21.274H206.512C206.552 21.877 206.571 22.4603 206.571 23.0436V28.8069H207.462V24.6352C207.462 24.299 207.501 23.9629 207.571 23.6367C207.64 23.3204 207.759 23.0337 207.927 22.7668C208.253 22.2033 208.817 21.9067 209.618 21.8869C210.242 21.8869 210.687 22.1044 210.974 22.5097C211.231 22.9348 211.36 23.5082 211.36 24.22V28.8069H212.25V23.9827C212.25 23.1325 212.062 22.4504 211.696 21.9166C211.31 21.3729 210.657 21.0961 209.767 21.0862V21.0961ZM148.966 21.0961C148.6 21.0961 148.283 21.1356 148.006 21.2246C147.739 21.3136 147.521 21.4421 147.333 21.6002C147.165 21.7485 147.017 21.9067 146.908 22.0846C146.789 22.2626 146.69 22.4405 146.611 22.6185H146.582V21.274H145.711C145.751 21.877 145.77 22.4603 145.77 23.0436V28.8069H146.661V24.6352C146.661 24.299 146.7 23.9629 146.77 23.6367C146.839 23.3204 146.957 23.0337 147.126 22.7668C147.452 22.2033 148.016 21.9067 148.817 21.8869C149.441 21.8869 149.886 22.1044 150.173 22.5097C150.43 22.9348 150.558 23.5082 150.558 24.22V28.8069H151.449V23.9827C151.449 23.1325 151.261 22.4504 150.895 21.9166C150.509 21.3729 149.856 21.0961 148.966 21.0862V21.0961ZM143.208 3.37102C142.674 3.37102 142.219 3.50942 141.823 3.76645C141.427 4.04325 141.141 4.38925 140.933 4.81433H140.903V0H140.013V11.0819H140.903V7.0485C140.903 6.34662 141.051 5.70405 141.388 5.10102C141.724 4.49799 142.288 4.19153 143.07 4.17176C143.802 4.17176 144.277 4.41891 144.504 4.89342C144.623 5.11091 144.712 5.35805 144.751 5.64473C144.791 5.9413 144.811 6.25765 144.811 6.59376V11.0918H145.701V6.58387C145.701 5.63485 145.543 4.86376 145.197 4.27062C144.84 3.68737 144.178 3.39079 143.208 3.38091V3.37102ZM230.304 21.0961C229.77 21.0961 229.315 21.2345 228.919 21.4915C228.524 21.7683 228.237 22.1143 228.029 22.5394H227.999V17.7251H227.109V28.8069H227.999V24.7736C227.999 24.0717 228.148 23.4291 228.484 22.8261C228.82 22.223 229.384 21.9166 230.166 21.8968C230.898 21.8968 231.373 22.144 231.6 22.6185C231.719 22.836 231.808 23.0831 231.848 23.3698C231.887 23.6664 231.907 23.9827 231.907 24.3188V28.8168H232.797V24.3089C232.797 23.3599 232.639 22.5888 232.293 21.9957C231.937 21.4124 231.274 21.1158 230.304 21.106V21.0961ZM240.336 23.9036C240.355 22.0154 239.505 21.0763 237.773 21.0961C237.021 21.1158 236.299 21.2839 235.627 21.6101V22.5097C236.299 22.0846 237.021 21.877 237.773 21.8869C238.911 21.8869 239.465 22.5394 239.435 23.8344V24.22H239.257C238.782 24.22 238.288 24.2298 237.763 24.2595C237.239 24.3089 236.754 24.4177 236.299 24.5857C235.854 24.7439 235.478 25.0108 235.191 25.3667C234.895 25.7325 234.746 26.2268 234.746 26.8594C234.726 27.245 234.865 27.68 235.172 28.1742C235.34 28.4016 235.597 28.5894 235.923 28.7377C236.24 28.8959 236.646 28.9849 237.15 28.9849C237.625 28.9849 238.08 28.8465 238.505 28.6092C238.941 28.372 239.257 28.0358 239.465 27.6009H239.495V28.8069H240.385C240.316 28.3225 240.296 27.7986 240.306 27.2252V23.9036H240.336ZM239.445 25.4754C239.445 25.6732 239.435 25.9302 239.406 26.2366C239.386 26.5332 239.307 26.8298 239.168 27.1362C239.03 27.4229 238.812 27.6701 238.515 27.8777C238.209 28.0952 237.793 28.2039 237.269 28.2039C236.853 28.2039 236.497 28.0952 236.21 27.8777C235.904 27.6701 235.745 27.3241 235.745 26.8397C235.745 26.4245 235.854 26.0884 236.072 25.8412C236.27 25.5941 236.537 25.4161 236.873 25.2975C237.209 25.169 237.585 25.08 237.991 25.0405C238.387 25.0207 238.772 25.0108 239.168 25.0108H239.425V25.4656L239.445 25.4754ZM143.228 21.2839H142.338V25.4557C142.338 25.772 142.298 26.0884 142.229 26.4047C142.159 26.721 142.041 27.0176 141.873 27.2944C141.724 27.5613 141.507 27.7788 141.21 27.9469C140.923 28.1248 140.577 28.2138 140.171 28.2138C139.558 28.2138 139.122 27.9963 138.845 27.5613C138.568 27.156 138.43 26.5925 138.43 25.8709V21.2938H137.54V26.1081C137.54 26.9583 137.718 27.6404 138.113 28.1742C138.509 28.7179 139.142 28.9947 140.023 29.0046C140.408 29.0046 140.725 28.9453 140.992 28.8366C141.259 28.7476 141.487 28.629 141.665 28.4807C141.843 28.3225 141.991 28.1545 142.11 27.9765C142.229 27.8085 142.318 27.6404 142.387 27.4822H142.417V28.8267H143.287C143.238 28.2138 143.218 27.6206 143.228 27.0572V21.3037V21.2839ZM151.073 10.469C150.281 10.469 149.678 10.1724 149.282 9.6089C148.867 9.07507 148.669 8.40284 148.669 7.58233H153.675V7.10782C153.675 6.05993 153.447 5.18999 153.002 4.47822C152.527 3.75656 151.785 3.39079 150.766 3.37102C149.836 3.37102 149.094 3.74668 148.55 4.46834C147.986 5.18999 147.699 6.1489 147.69 7.31542C147.69 8.46216 147.937 9.4013 148.441 10.123C148.956 10.8545 149.816 11.24 151.004 11.2598C151.736 11.2598 152.438 11.1115 153.121 10.8446V9.90547C152.893 10.0439 152.586 10.1724 152.191 10.2712C151.795 10.3998 151.429 10.469 151.073 10.469ZM149.253 4.99228C149.638 4.45845 150.153 4.18165 150.816 4.16188C151.488 4.18165 151.973 4.44856 152.27 4.97251C152.547 5.48656 152.685 6.09947 152.685 6.79147H148.659C148.659 6.12913 148.857 5.5261 149.243 4.99228H149.253ZM164.359 24.5758C164.151 24.4572 163.934 24.3485 163.716 24.2496C163.498 24.1409 163.3 24.042 163.132 23.9432C162.964 23.8344 162.826 23.7158 162.717 23.5873C162.608 23.4489 162.558 23.3006 162.558 23.1424C162.558 22.8854 162.598 22.6778 162.687 22.5196C162.766 22.3614 162.875 22.2329 163.023 22.144C163.3 21.966 163.666 21.8869 164.131 21.8869C164.685 21.8869 165.229 22.0154 165.754 22.2428L165.833 21.4322C165.506 21.3037 165.18 21.2147 164.844 21.1554C164.507 21.1158 164.24 21.0961 164.023 21.0961C163.399 21.0961 162.855 21.2542 162.39 21.5607C161.905 21.877 161.658 22.401 161.648 23.1523C161.648 23.4192 161.698 23.6466 161.807 23.8443C161.915 24.0519 162.054 24.2298 162.212 24.388C162.39 24.5363 162.588 24.6648 162.786 24.7834C162.984 24.9021 163.192 25.0207 163.419 25.1196C163.884 25.3173 164.29 25.5348 164.636 25.7819C164.982 26.0389 165.16 26.3849 165.17 26.8397C165.17 27.2648 165.002 27.591 164.695 27.8183C164.379 28.0655 164.003 28.1841 163.548 28.1841C162.835 28.1841 162.202 28.0161 161.648 27.7096L161.569 28.6191C162.222 28.8563 162.905 28.975 163.607 28.975C164.211 28.975 164.774 28.8069 165.309 28.4807C165.556 28.3126 165.764 28.0951 165.922 27.8183C166.07 27.5514 166.149 27.2252 166.149 26.8298C166.149 26.2169 165.962 25.7424 165.605 25.3964C165.249 25.0504 164.834 24.7736 164.359 24.566V24.5758ZM158.868 22.1242H158.839C158.512 21.6892 158.176 21.4025 157.82 21.2641C157.454 21.1554 157.038 21.0961 156.553 21.0961C155.495 21.0961 154.733 21.4717 154.248 22.2033C153.764 22.9249 153.536 23.8641 153.546 25.0405C153.546 25.4656 153.605 25.8906 153.724 26.3256C153.813 26.7606 153.981 27.1659 154.229 27.5416C154.684 28.3621 155.485 28.7773 156.633 28.8069C157.592 28.8267 158.334 28.3324 158.849 27.334H158.878C158.878 27.8678 158.858 28.3621 158.819 28.8267C158.769 29.2913 158.661 29.6966 158.492 30.0525C158.324 30.4084 158.077 30.6852 157.731 30.8829C157.394 31.0905 156.939 31.1993 156.356 31.2091C155.525 31.1894 154.812 31.0114 154.209 30.6852L154.13 31.6145C154.328 31.6738 154.624 31.7529 155.02 31.8517C155.426 31.9506 155.861 32 156.346 32.0099C157.592 31.9901 158.483 31.6145 159.007 30.8928C159.511 30.1711 159.759 29.2715 159.759 28.2039V21.2938H158.868V22.1341V22.1242ZM158.374 27.0374C158.028 27.6701 157.454 27.9963 156.643 28.0161C155.881 27.9963 155.347 27.68 155.02 27.067C154.684 26.4838 154.525 25.8116 154.535 25.0405C154.535 24.6648 154.565 24.2892 154.634 23.9135C154.713 23.5378 154.822 23.2017 154.981 22.9052C155.149 22.5888 155.376 22.3417 155.653 22.1637C155.92 21.9759 156.276 21.877 156.702 21.877C157.523 21.877 158.097 22.1835 158.413 22.7569C158.72 23.3302 158.868 24.0914 158.868 25.0306C158.868 25.7522 158.7 26.4146 158.374 27.0275V27.0374Z" fill="white"/>
</g>
<defs>
<clipPath id="clip0_43_2120">
<rect width="251" height="32" fill="white"/>
</clipPath>
</defs>
</svg>
