<svg width="188" height="32" viewBox="0 0 188 32" fill="none" xmlns="http://www.w3.org/2000/svg">
<g clip-path="url(#clip0_43_2117)">
<path d="M110.875 0.0220842H112.154V6.5038H116.089V7.70738H110.875V0.0220842Z" fill="white"/>
<path d="M118.966 7.82885C118.272 7.82885 117.731 7.63009 117.335 7.23257C116.938 6.83506 116.75 6.24983 116.75 5.46584V2.12008H117.919V5.36646C117.919 5.86335 118.029 6.22774 118.25 6.45963C118.47 6.69151 118.801 6.80193 119.253 6.80193C119.473 6.80193 119.682 6.75776 119.87 6.68047C120.057 6.60317 120.223 6.49275 120.366 6.34921C120.509 6.20566 120.619 6.02899 120.697 5.83023C120.774 5.63147 120.818 5.39959 120.818 5.15666V2.12008H121.986V7.72947H120.818V6.95652H120.763C120.663 7.12215 120.52 7.2657 120.355 7.39821C120.212 7.50863 120.024 7.60801 119.804 7.69634C119.583 7.78468 119.308 7.82885 118.999 7.82885H118.966Z" fill="white"/>
<path d="M124.4 4.91373L122.736 2.10904H124.069L125.348 4.36163H125.624L126.902 2.10904H128.236L126.572 4.91373L128.291 7.71843H126.957L125.624 5.41063H125.348L124.014 7.71843H122.681L124.4 4.91373Z" fill="white"/>
<path d="M131.333 7.82885C130.936 7.82885 130.562 7.75155 130.209 7.60801C129.856 7.45342 129.548 7.25466 129.294 6.98965C129.03 6.72464 128.831 6.4265 128.677 6.06211C128.534 5.70876 128.456 5.32229 128.456 4.91373C128.456 4.50518 128.534 4.1187 128.677 3.76536C128.82 3.41201 129.03 3.10283 129.294 2.83782C129.559 2.57281 129.867 2.37405 130.209 2.21946C130.562 2.06487 130.936 1.99862 131.333 1.99862C131.73 1.99862 132.105 2.07591 132.458 2.21946C132.81 2.37405 133.119 2.57281 133.383 2.83782C133.648 3.10283 133.846 3.40097 134.001 3.76536C134.144 4.1187 134.221 4.50518 134.221 4.91373V5.30021H129.625C129.669 5.53209 129.746 5.74189 129.845 5.92961C129.944 6.11732 130.077 6.27191 130.231 6.39337C130.385 6.52588 130.562 6.61422 130.749 6.68047C130.936 6.74672 131.135 6.77985 131.344 6.77985C131.631 6.77985 131.884 6.74672 132.083 6.66943C132.292 6.59213 132.458 6.5038 132.579 6.40442C132.722 6.294 132.843 6.16149 132.943 6.01794H134.166C134.023 6.36025 133.835 6.66943 133.582 6.93444C133.472 7.04486 133.35 7.15528 133.207 7.2657C133.064 7.37612 132.909 7.4755 132.722 7.55279C132.535 7.64113 132.325 7.70738 132.105 7.75155C131.873 7.80676 131.62 7.82885 131.355 7.82885H131.333ZM132.998 4.37267C132.965 4.20704 132.909 4.05245 132.832 3.88682C132.755 3.72119 132.645 3.58868 132.502 3.46722C132.358 3.34576 132.193 3.24638 132.006 3.16908C131.807 3.09179 131.587 3.05866 131.344 3.05866C131.157 3.05866 130.97 3.09179 130.782 3.147C130.606 3.20221 130.44 3.29054 130.286 3.40097C130.132 3.51139 130.011 3.65493 129.9 3.82057C129.801 3.9862 129.724 4.17391 129.68 4.37267H133.009H132.998Z" fill="white"/>
<path d="M136.382 2.12008V2.89303H136.437C136.536 2.7274 136.657 2.58385 136.811 2.45135C136.944 2.34092 137.109 2.24155 137.318 2.15321C137.528 2.06487 137.781 2.0207 138.09 2.0207C138.454 2.0207 138.751 2.07591 138.983 2.18634C139.214 2.29676 139.402 2.41822 139.545 2.55072C139.71 2.70531 139.832 2.88199 139.92 3.0697H139.975C140.074 2.88199 140.217 2.70531 140.405 2.55072C140.548 2.41822 140.746 2.29676 141 2.18634C141.242 2.07591 141.551 2.0207 141.915 2.0207C142.554 2.0207 143.072 2.21946 143.447 2.61698C143.833 3.01449 144.02 3.59972 144.02 4.38371V7.74051H142.852V4.43892C142.852 3.97516 142.742 3.62181 142.532 3.40097C142.323 3.18012 142.025 3.0697 141.628 3.0697C141.441 3.0697 141.254 3.10283 141.077 3.18012C140.901 3.25742 140.746 3.36784 140.614 3.51139C140.482 3.65493 140.372 3.82057 140.295 4.01932C140.217 4.21808 140.173 4.42788 140.173 4.65977V7.74051H139.005V4.43892C139.005 3.97516 138.895 3.62181 138.685 3.40097C138.476 3.18012 138.178 3.0697 137.781 3.0697C137.583 3.0697 137.407 3.10283 137.23 3.18012C137.054 3.25742 136.9 3.36784 136.767 3.51139C136.635 3.65493 136.525 3.82057 136.448 4.01932C136.371 4.21808 136.326 4.42788 136.326 4.65977V7.74051H135.158V2.12008H136.382Z" fill="white"/>
<path d="M148.297 7.82885C147.999 7.82885 147.746 7.78468 147.525 7.70738C147.305 7.61905 147.129 7.53071 146.974 7.43133C146.798 7.30987 146.644 7.16632 146.522 7.01173H146.467V7.72947H145.299V0.0220842H146.467V2.82678H146.522C146.644 2.68323 146.798 2.53968 146.974 2.41822C147.117 2.31884 147.305 2.21946 147.525 2.13112C147.746 2.04279 147.999 1.99862 148.297 1.99862C148.672 1.99862 149.024 2.06487 149.344 2.20842C149.664 2.35197 149.95 2.53968 150.182 2.79365C150.424 3.04762 150.612 3.3568 150.744 3.71014C150.876 4.07453 150.953 4.47205 150.953 4.90269C150.953 5.33333 150.887 5.74189 150.744 6.09524C150.612 6.45963 150.424 6.75776 150.182 7.01173C149.939 7.2657 149.664 7.46446 149.344 7.59696C149.024 7.74051 148.672 7.80676 148.297 7.80676V7.82885ZM148.076 6.77985C148.583 6.77985 148.98 6.62526 149.289 6.30504C149.587 5.98482 149.741 5.52105 149.741 4.91373C149.741 4.30642 149.587 3.84265 149.289 3.52243C148.991 3.20221 148.583 3.04762 148.076 3.04762C147.602 3.04762 147.217 3.20221 146.919 3.52243C146.621 3.84265 146.467 4.30642 146.467 4.91373C146.467 5.52105 146.621 5.98482 146.919 6.30504C147.217 6.62526 147.602 6.77985 148.076 6.77985Z" fill="white"/>
<path d="M154.569 7.82885C154.15 7.82885 153.764 7.75155 153.411 7.60801C153.048 7.45342 152.739 7.25466 152.485 6.98965C152.221 6.72464 152.011 6.4265 151.868 6.06211C151.714 5.70876 151.637 5.32229 151.637 4.91373C151.637 4.50518 151.714 4.1187 151.868 3.76536C152.023 3.41201 152.221 3.10283 152.485 2.83782C152.75 2.57281 153.059 2.37405 153.411 2.21946C153.775 2.06487 154.161 1.99862 154.569 1.99862C154.977 1.99862 155.373 2.07591 155.726 2.21946C156.079 2.37405 156.398 2.57281 156.652 2.83782C156.917 3.10283 157.126 3.40097 157.269 3.76536C157.424 4.1187 157.501 4.50518 157.501 4.91373C157.501 5.32229 157.424 5.70876 157.269 6.06211C157.115 6.41546 156.905 6.72464 156.652 6.98965C156.387 7.25466 156.079 7.45342 155.726 7.60801C155.362 7.76259 154.977 7.82885 154.569 7.82885ZM154.569 6.79089C154.822 6.79089 155.054 6.74672 155.263 6.65839C155.473 6.57005 155.66 6.44859 155.803 6.28295C155.958 6.11732 156.068 5.92961 156.156 5.69772C156.244 5.46584 156.288 5.21187 156.288 4.92478C156.288 4.63768 156.244 4.38371 156.156 4.15183C156.068 3.91994 155.958 3.72119 155.803 3.5666C155.649 3.40097 155.473 3.2795 155.263 3.19117C155.054 3.10283 154.822 3.05866 154.569 3.05866C154.315 3.05866 154.084 3.10283 153.874 3.19117C153.665 3.2795 153.477 3.40097 153.334 3.5666C153.18 3.73223 153.07 3.91994 152.981 4.15183C152.893 4.38371 152.849 4.63768 152.849 4.92478C152.849 5.21187 152.893 5.46584 152.981 5.69772C153.07 5.92961 153.18 6.12836 153.334 6.28295C153.489 6.44859 153.665 6.57005 153.874 6.65839C154.084 6.74672 154.315 6.79089 154.569 6.79089Z" fill="white"/>
<path d="M160.719 7.82885C160.025 7.82885 159.485 7.63009 159.088 7.23257C158.691 6.83506 158.504 6.24983 158.504 5.46584V2.12008H159.672V5.36646C159.672 5.86335 159.782 6.22774 160.003 6.45963C160.223 6.69151 160.554 6.80193 161.006 6.80193C161.226 6.80193 161.436 6.75776 161.623 6.68047C161.811 6.60317 161.976 6.49275 162.119 6.34921C162.262 6.20566 162.373 6.02899 162.45 5.83023C162.527 5.63147 162.571 5.39959 162.571 5.15666V2.12008H163.739V7.72947H162.571V6.95652H162.516C162.417 7.12215 162.273 7.2657 162.108 7.39821C161.965 7.50863 161.777 7.60801 161.557 7.69634C161.337 7.78468 161.061 7.82885 160.752 7.82885H160.719Z" fill="white"/>
<path d="M166.208 2.12008V2.94824H166.264C166.352 2.78261 166.473 2.63906 166.616 2.50656C166.738 2.39614 166.903 2.28571 167.101 2.17529C167.3 2.06487 167.531 2.00966 167.818 2.00966H168.479V3.11387H167.763C167.542 3.11387 167.333 3.147 167.145 3.22429C166.958 3.30159 166.793 3.40097 166.649 3.53347C166.506 3.66598 166.396 3.83161 166.319 4.01932C166.242 4.20704 166.197 4.42788 166.197 4.65977V7.71843H165.029V2.12008H166.208Z" fill="white"/>
<path d="M169.868 8.76743H173.527V7.01173H173.472C173.351 7.16632 173.197 7.30987 173.02 7.43133C172.877 7.53071 172.69 7.63009 172.469 7.70738C172.249 7.79572 171.995 7.82885 171.709 7.82885C171.334 7.82885 170.981 7.76259 170.662 7.61905C170.342 7.4755 170.055 7.28778 169.824 7.03382C169.581 6.77985 169.394 6.47067 169.262 6.11732C169.129 5.75293 169.052 5.35542 169.052 4.92478C169.052 4.49413 169.118 4.08558 169.262 3.73223C169.394 3.36784 169.581 3.0697 169.824 2.81573C170.066 2.56177 170.342 2.36301 170.662 2.2305C170.981 2.08696 171.334 2.0207 171.709 2.0207C171.995 2.0207 172.249 2.06487 172.469 2.15321C172.69 2.24155 172.877 2.34092 173.02 2.4403C173.197 2.56177 173.351 2.70531 173.472 2.8599H173.527V2.13112H174.696V9.82747H169.868V8.76743ZM171.918 6.77985C172.392 6.77985 172.778 6.62526 173.076 6.30504C173.373 5.98482 173.527 5.52105 173.527 4.91373C173.527 4.30642 173.373 3.84265 173.076 3.52243C172.778 3.20221 172.392 3.04762 171.918 3.04762C171.411 3.04762 171.014 3.20221 170.706 3.52243C170.408 3.84265 170.254 4.30642 170.254 4.91373C170.254 5.52105 170.408 5.98482 170.706 6.30504C171.014 6.62526 171.411 6.77985 171.918 6.77985Z" fill="white"/>
<path d="M110.875 12.1132H112.705L116.089 18.2084H116.199L116.089 17.2698V12.1021H117.368V19.7985H115.538L112.154 13.7032H112.044L112.154 14.6418V19.8095H110.875V12.1132Z" fill="white"/>
<path d="M121.137 19.9199C120.763 19.9199 120.41 19.8537 120.09 19.7101C119.771 19.5666 119.484 19.3789 119.253 19.1249C119.01 18.8709 118.823 18.5618 118.69 18.2084C118.558 17.844 118.481 17.4465 118.481 17.0159C118.481 16.5852 118.547 16.1767 118.69 15.8233C118.823 15.4589 119.01 15.1608 119.253 14.9068C119.495 14.6529 119.771 14.4541 120.09 14.3216C120.41 14.1781 120.763 14.1118 121.137 14.1118C121.424 14.1118 121.678 14.156 121.898 14.2443C122.118 14.3326 122.306 14.432 122.449 14.5314C122.625 14.6529 122.78 14.7964 122.901 14.94H122.956V14.2222H124.125V19.8316H122.956V19.0587H122.901C122.78 19.2243 122.625 19.3678 122.449 19.5003C122.306 19.6108 122.118 19.7101 121.898 19.7985C121.678 19.8868 121.424 19.931 121.137 19.931V19.9199ZM121.358 18.8709C121.832 18.8709 122.218 18.7164 122.515 18.3961C122.813 18.0759 122.967 17.6121 122.967 17.0048C122.967 16.3975 122.813 15.9337 122.515 15.6135C122.218 15.2933 121.832 15.1387 121.358 15.1387C120.851 15.1387 120.454 15.2933 120.145 15.6135C119.848 15.9337 119.693 16.3975 119.693 17.0048C119.693 17.6121 119.848 18.0759 120.145 18.3961C120.454 18.7164 120.851 18.8709 121.358 18.8709Z" fill="white"/>
<path d="M125.679 15.2491H125.017V14.2001H125.679V12.9965H126.847V14.2001H128.567V15.2491H126.847V18.7605H128.622V19.8095H125.679V15.2491Z" fill="white"/>
<path d="M130.187 13.383C130 13.383 129.834 13.3168 129.702 13.1843C129.57 13.0518 129.504 12.8861 129.504 12.6984C129.504 12.5107 129.57 12.3451 129.702 12.2126C129.834 12.0801 130 12.0138 130.187 12.0138C130.374 12.0138 130.54 12.0801 130.683 12.2126C130.815 12.3451 130.892 12.5107 130.892 12.6984C130.892 12.8861 130.826 13.0518 130.683 13.1843C130.551 13.3168 130.385 13.383 130.187 13.383ZM129.614 14.2001H130.782V19.8095H129.614V14.2001Z" fill="white"/>
<path d="M134.717 19.9199C134.298 19.9199 133.913 19.8426 133.56 19.6991C133.207 19.5445 132.887 19.3458 132.634 19.0807C132.369 18.8157 132.16 18.5176 132.017 18.1532C131.862 17.7999 131.785 17.4134 131.785 17.0048C131.785 16.5963 131.862 16.2098 132.017 15.8565C132.171 15.5031 132.38 15.1939 132.634 14.9289C132.898 14.6639 133.207 14.4651 133.56 14.3106C133.913 14.156 134.309 14.0897 134.717 14.0897C135.125 14.0897 135.522 14.167 135.875 14.3106C136.227 14.4651 136.547 14.6639 136.8 14.9289C137.065 15.1939 137.274 15.4921 137.418 15.8565C137.572 16.2098 137.649 16.5963 137.649 17.0048C137.649 17.4134 137.572 17.7999 137.418 18.1532C137.263 18.5066 137.054 18.8157 136.8 19.0807C136.536 19.3458 136.227 19.5445 135.875 19.6991C135.511 19.8537 135.125 19.9199 134.717 19.9199ZM134.717 18.8709C134.971 18.8709 135.202 18.8268 135.412 18.7384C135.621 18.6501 135.808 18.5286 135.952 18.363C136.106 18.1974 136.216 18.0097 136.304 17.7778C136.393 17.5459 136.437 17.2919 136.437 17.0048C136.437 16.7177 136.393 16.4638 136.304 16.2319C136.216 16 136.095 15.8012 135.952 15.6467C135.797 15.481 135.621 15.3596 135.412 15.2712C135.202 15.1829 134.971 15.1387 134.717 15.1387C134.464 15.1387 134.232 15.1829 134.023 15.2712C133.813 15.3596 133.626 15.481 133.483 15.6467C133.328 15.8123 133.218 16 133.13 16.2319C133.042 16.4638 132.998 16.7177 132.998 17.0048C132.998 17.2919 133.042 17.5459 133.13 17.7778C133.218 18.0097 133.328 18.2084 133.483 18.363C133.637 18.5286 133.813 18.6501 134.023 18.7384C134.232 18.8268 134.464 18.8709 134.717 18.8709Z" fill="white"/>
<path d="M139.821 14.2001V14.9731H139.876C139.975 14.8075 140.118 14.6639 140.284 14.5314C140.427 14.421 140.614 14.3216 140.835 14.2333C141.055 14.1449 141.32 14.1008 141.65 14.1008C142.345 14.1008 142.885 14.2995 143.282 14.697C143.678 15.0945 143.866 15.6798 143.866 16.4638V19.8206H142.697V16.5742C142.697 16.0773 142.587 15.7129 142.367 15.481C142.146 15.2491 141.816 15.1387 141.364 15.1387C141.143 15.1387 140.934 15.1829 140.746 15.2602C140.559 15.3375 140.394 15.4479 140.25 15.5914C140.107 15.735 139.997 15.9117 139.92 16.1104C139.843 16.3092 139.799 16.5411 139.799 16.784V19.8095H138.63V14.2001H139.821Z" fill="white"/>
<path d="M147.47 19.9199C147.095 19.9199 146.743 19.8537 146.423 19.7101C146.103 19.5666 145.817 19.3789 145.574 19.1249C145.332 18.8709 145.144 18.5618 145.012 18.2084C144.88 17.844 144.803 17.4465 144.803 17.0159C144.803 16.5852 144.869 16.1767 145.012 15.8233C145.144 15.4589 145.343 15.1608 145.574 14.9068C145.817 14.6529 146.092 14.4541 146.423 14.3216C146.743 14.1781 147.095 14.1118 147.47 14.1118C147.757 14.1118 148.01 14.156 148.231 14.2443C148.451 14.3326 148.639 14.432 148.782 14.5314C148.958 14.6529 149.113 14.7964 149.234 14.94H149.289V14.2222H150.457V19.8316H149.289V19.0587H149.234C149.113 19.2243 148.958 19.3678 148.782 19.5003C148.639 19.6108 148.451 19.7101 148.231 19.7985C148.01 19.8868 147.757 19.931 147.47 19.931V19.9199ZM147.691 18.8709C148.165 18.8709 148.55 18.7164 148.848 18.3961C149.146 18.0759 149.3 17.6121 149.3 17.0048C149.3 16.3975 149.146 15.9337 148.848 15.6135C148.55 15.2933 148.165 15.1387 147.691 15.1387C147.184 15.1387 146.787 15.2933 146.478 15.6135C146.17 15.9337 146.026 16.3975 146.026 17.0048C146.026 17.6121 146.181 18.0759 146.478 18.3961C146.776 18.7164 147.184 18.8709 147.691 18.8709Z" fill="white"/>
<path d="M151.791 12.1132H152.959V19.8095H151.791V12.1132Z" fill="white"/>
<path d="M110.875 24.2043H114.259C114.733 24.2043 115.152 24.2705 115.527 24.392C115.902 24.5245 116.21 24.7012 116.464 24.922C116.717 25.1429 116.916 25.4079 117.048 25.706C117.18 26.0041 117.257 26.3244 117.257 26.6777C117.257 26.9538 117.213 27.2188 117.125 27.4727C117.037 27.7267 116.905 27.9475 116.739 28.1573C116.574 28.3671 116.365 28.5438 116.111 28.6984C115.869 28.853 115.582 28.9745 115.262 29.0518L117.202 31.9117H115.703L113.874 29.1622H112.154V31.9117H110.875V24.2043ZM114.259 27.9365C114.844 27.9365 115.262 27.8261 115.527 27.5942C115.792 27.3623 115.924 27.0642 115.924 26.6667C115.924 26.2691 115.792 25.971 115.527 25.7391C115.262 25.5072 114.844 25.3968 114.259 25.3968H112.154V27.9255H114.259V27.9365Z" fill="white"/>
<path d="M120.741 32C120.344 32 119.969 31.9227 119.616 31.7792C119.264 31.6356 118.955 31.4258 118.701 31.1608C118.437 30.8958 118.239 30.5977 118.084 30.2333C117.941 29.8799 117.864 29.4934 117.864 29.0849C117.864 28.6763 117.941 28.2899 118.084 27.9365C118.227 27.5832 118.437 27.274 118.701 27.009C118.966 26.744 119.275 26.5452 119.616 26.3906C119.969 26.236 120.344 26.1698 120.741 26.1698C121.137 26.1698 121.512 26.2471 121.865 26.3906C122.218 26.5452 122.526 26.744 122.791 27.009C123.055 27.274 123.254 27.5721 123.408 27.9365C123.551 28.2899 123.629 28.6763 123.629 29.0849V29.4714H119.032C119.076 29.7032 119.153 29.913 119.253 30.1008C119.352 30.2885 119.484 30.4431 119.638 30.5645C119.793 30.697 119.969 30.7854 120.156 30.8516C120.344 30.9179 120.542 30.951 120.752 30.951C121.038 30.951 121.292 30.9179 121.49 30.8406C121.7 30.7633 121.865 30.6749 121.986 30.5756C122.129 30.4651 122.251 30.3326 122.35 30.1891H123.573C123.43 30.5314 123.243 30.8406 122.989 31.1056C122.879 31.216 122.758 31.3264 122.614 31.4369C122.471 31.5473 122.317 31.6467 122.129 31.7239C121.942 31.8123 121.733 31.8785 121.512 31.9227C121.281 31.9779 121.027 32 120.763 32H120.741ZM122.405 28.5438C122.372 28.3782 122.317 28.2236 122.24 28.058C122.163 27.8923 122.052 27.7598 121.909 27.6384C121.766 27.5169 121.6 27.4175 121.413 27.3402C121.215 27.2629 120.994 27.2298 120.752 27.2298C120.564 27.2298 120.377 27.2629 120.189 27.3181C120.013 27.3734 119.848 27.4617 119.693 27.5721C119.539 27.6825 119.418 27.8261 119.308 27.9917C119.208 28.1574 119.131 28.3451 119.087 28.5438H122.416H122.405Z" fill="white"/>
<path d="M126.902 32C126.616 32 126.351 31.9779 126.12 31.9227C125.888 31.8675 125.679 31.8012 125.502 31.7129C125.326 31.6246 125.172 31.5252 125.039 31.4148C124.907 31.3043 124.797 31.1829 124.698 31.0725C124.477 30.7964 124.323 30.4872 124.246 30.1339H125.524C125.579 30.2885 125.679 30.432 125.8 30.5535C125.899 30.6529 126.042 30.7522 126.219 30.8295C126.395 30.9179 126.627 30.951 126.902 30.951C127.123 30.951 127.31 30.9289 127.453 30.8958C127.597 30.8627 127.718 30.8075 127.817 30.7522C127.905 30.686 127.971 30.6197 128.015 30.5424C128.049 30.4651 128.071 30.3768 128.071 30.2995C128.071 30.1339 127.982 30.0124 127.806 29.9241C127.63 29.8357 127.409 29.7585 127.145 29.7032C126.88 29.648 126.594 29.5818 126.296 29.5155C125.987 29.4493 125.712 29.3499 125.447 29.2284C125.183 29.0959 124.962 28.9303 124.786 28.7095C124.61 28.4886 124.521 28.2015 124.521 27.8261C124.521 27.6163 124.565 27.4175 124.676 27.2188C124.775 27.02 124.918 26.8433 125.117 26.6888C125.315 26.5342 125.546 26.4127 125.811 26.3133C126.087 26.2139 126.395 26.1698 126.748 26.1698C127.299 26.1698 127.74 26.2581 128.071 26.4458C128.401 26.6335 128.644 26.8323 128.82 27.0531C129.019 27.3071 129.162 27.6052 129.239 27.9365H128.015C127.96 27.804 127.883 27.6825 127.773 27.5832C127.674 27.4948 127.542 27.4175 127.376 27.3402C127.211 27.2629 127.001 27.2298 126.737 27.2298C126.384 27.2298 126.131 27.2961 125.976 27.4175C125.822 27.539 125.745 27.6825 125.745 27.8482C125.745 28.0138 125.833 28.1353 126.009 28.2126C126.186 28.3009 126.406 28.3671 126.671 28.4224C126.935 28.4776 127.222 28.5438 127.519 28.6101C127.817 28.6763 128.104 28.7757 128.368 28.8972C128.633 29.0186 128.853 29.1953 129.03 29.4161C129.206 29.637 129.294 29.9241 129.294 30.2995C129.294 30.5204 129.239 30.7302 129.14 30.94C129.041 31.1498 128.886 31.3264 128.688 31.481C128.489 31.6356 128.236 31.7681 127.938 31.8565C127.641 31.9558 127.299 32 126.913 32H126.902Z" fill="white"/>
<path d="M132.832 32C132.436 32 132.061 31.9227 131.708 31.7792C131.355 31.6246 131.047 31.4258 130.793 31.1608C130.529 30.8958 130.33 30.5977 130.176 30.2333C130.033 29.8799 129.955 29.4934 129.955 29.0849C129.955 28.6763 130.033 28.2899 130.176 27.9365C130.319 27.5832 130.529 27.274 130.793 27.009C131.058 26.744 131.366 26.5452 131.708 26.3906C132.061 26.236 132.436 26.1698 132.832 26.1698C133.229 26.1698 133.604 26.2471 133.957 26.3906C134.309 26.5452 134.618 26.744 134.871 27.009C135.136 27.274 135.334 27.5721 135.489 27.9365C135.632 28.2899 135.709 28.6763 135.709 29.0849V29.4714H131.113C131.157 29.7032 131.234 29.913 131.333 30.1008C131.432 30.2885 131.565 30.4431 131.719 30.5645C131.873 30.697 132.05 30.7854 132.237 30.8516C132.424 30.9179 132.623 30.951 132.832 30.951C133.119 30.951 133.372 30.9179 133.571 30.8406C133.78 30.7633 133.946 30.6749 134.067 30.5756C134.21 30.4651 134.331 30.3326 134.431 30.1891H135.654C135.511 30.5314 135.312 30.8406 135.07 31.1056C134.96 31.216 134.838 31.3264 134.695 31.4369C134.552 31.5473 134.398 31.6467 134.21 31.7239C134.023 31.8123 133.813 31.8785 133.593 31.9227C133.361 31.9779 133.108 32 132.843 32H132.832ZM134.497 28.5438C134.464 28.3782 134.409 28.2236 134.331 28.058C134.254 27.8923 134.144 27.7598 134.001 27.6384C133.857 27.5169 133.692 27.4175 133.505 27.3402C133.317 27.2629 133.086 27.2298 132.843 27.2298C132.656 27.2298 132.469 27.2629 132.281 27.3181C132.105 27.3734 131.928 27.4617 131.785 27.5721C131.631 27.6825 131.51 27.8261 131.399 27.9917C131.3 28.1574 131.223 28.3451 131.179 28.5438H134.508H134.497Z" fill="white"/>
<path d="M139.038 32C138.663 32 138.311 31.9337 137.991 31.7902C137.671 31.6467 137.385 31.4589 137.153 31.205C136.911 30.951 136.723 30.6418 136.591 30.2885C136.459 29.9241 136.382 29.5266 136.382 29.0959C136.382 28.6653 136.448 28.2567 136.591 27.9034C136.723 27.539 136.911 27.2409 137.153 26.9869C137.396 26.7329 137.671 26.5342 137.991 26.4017C138.311 26.2581 138.663 26.1919 139.038 26.1919C139.325 26.1919 139.578 26.236 139.799 26.3244C140.019 26.4127 140.206 26.5121 140.35 26.6115C140.526 26.7329 140.68 26.8765 140.802 27.02H140.857V26.3023H142.025V31.9117H140.857V31.1387H140.802C140.68 31.3043 140.526 31.4479 140.35 31.5804C140.206 31.6908 140.019 31.7902 139.799 31.8785C139.578 31.9669 139.325 32.011 139.038 32.011V32ZM139.258 30.962C139.732 30.962 140.118 30.8075 140.416 30.4872C140.713 30.167 140.868 29.7032 140.868 29.0959C140.868 28.4886 140.713 28.0248 140.416 27.7046C140.118 27.3844 139.732 27.2298 139.258 27.2298C138.751 27.2298 138.355 27.3844 138.046 27.7046C137.748 28.0248 137.594 28.4886 137.594 29.0959C137.594 29.7032 137.748 30.167 138.046 30.4872C138.344 30.8075 138.751 30.962 139.258 30.962Z" fill="white"/>
<path d="M143.37 26.2912H144.538V27.1194H144.593C144.682 26.9538 144.803 26.8102 144.946 26.6777C145.067 26.5673 145.233 26.4569 145.431 26.3464C145.629 26.236 145.861 26.1808 146.148 26.1808H146.809V27.285H146.092C145.872 27.285 145.663 27.3181 145.475 27.3954C145.288 27.4727 145.122 27.5721 144.979 27.7046C144.836 27.8371 144.726 28.0028 144.648 28.1905C144.571 28.3782 144.527 28.599 144.527 28.8309V31.8896H143.359V26.2802L143.37 26.2912Z" fill="white"/>
<path d="M150.182 32C149.785 32 149.41 31.9337 149.057 31.7902C148.705 31.6467 148.407 31.4479 148.165 31.1829C147.911 30.9179 147.713 30.6197 147.569 30.2553C147.426 29.902 147.349 29.5155 147.349 29.0849C147.349 28.6542 147.426 28.2678 147.569 27.9144C147.713 27.5611 147.911 27.2519 148.165 26.9869C148.418 26.7219 148.716 26.5231 149.057 26.3796C149.41 26.236 149.774 26.1698 150.182 26.1698C150.457 26.1698 150.722 26.2029 150.942 26.2581C151.174 26.3133 151.372 26.3906 151.56 26.49C151.736 26.5894 151.901 26.6998 152.034 26.8213C152.166 26.9427 152.287 27.0752 152.386 27.1967C152.618 27.4948 152.794 27.8261 152.893 28.2126H151.67C151.615 28.0248 151.515 27.8703 151.383 27.7157C151.273 27.5942 151.119 27.4727 150.931 27.3734C150.744 27.274 150.49 27.2188 150.182 27.2188C149.961 27.2188 149.752 27.2629 149.553 27.3513C149.355 27.4396 149.19 27.5611 149.046 27.7267C148.903 27.8923 148.793 28.0801 148.705 28.3119C148.617 28.5438 148.572 28.7978 148.572 29.0849C148.572 29.372 148.617 29.6259 148.705 29.8578C148.793 30.0897 148.903 30.2885 149.046 30.4431C149.19 30.5977 149.366 30.7302 149.553 30.8185C149.752 30.9068 149.961 30.951 150.182 30.951C150.501 30.951 150.755 30.8958 150.953 30.7964C151.152 30.697 151.306 30.5756 151.427 30.4541C151.56 30.3106 151.659 30.1449 151.725 29.9572H152.893C152.794 30.3437 152.618 30.686 152.386 30.9841C152.287 31.1056 152.166 31.2271 152.034 31.3485C151.901 31.47 151.747 31.5804 151.56 31.6687C151.383 31.7681 151.174 31.8454 150.942 31.9006C150.711 31.9558 150.457 31.989 150.182 31.989V32Z" fill="white"/>
<path d="M153.841 24.2043H155.01V27.0642H155.065C155.164 26.8986 155.307 26.755 155.473 26.6225C155.616 26.5121 155.803 26.4127 156.024 26.3244C156.244 26.236 156.509 26.1919 156.839 26.1919C157.534 26.1919 158.074 26.3906 158.471 26.7881C158.868 27.1856 159.055 27.7709 159.055 28.5549V31.9006H157.887V28.6542C157.887 28.1574 157.776 27.793 157.556 27.5611C157.335 27.3292 157.005 27.2188 156.553 27.2188C156.332 27.2188 156.123 27.2629 155.936 27.3402C155.748 27.4175 155.583 27.5279 155.439 27.6715C155.296 27.815 155.186 27.9917 155.109 28.1905C155.032 28.3892 154.999 28.6211 154.999 28.864V31.8896H153.83V24.1932L153.841 24.2043Z" fill="white"/>
<path d="M163.552 24.2043H168.986V25.4079H164.831V27.6052H168.104V28.8088H164.831V31.8896H163.552V24.1932V24.2043Z" fill="white"/>
<path d="M171.863 32C171.169 32 170.629 31.8012 170.232 31.4037C169.835 31.0062 169.648 30.421 169.648 29.637V26.2802H170.816V29.5266C170.816 30.0235 170.926 30.3879 171.147 30.6197C171.367 30.8516 171.698 30.962 172.15 30.962C172.37 30.962 172.58 30.9179 172.767 30.8406C172.954 30.7633 173.12 30.6529 173.263 30.5093C173.406 30.3658 173.516 30.2001 173.594 29.9903C173.671 29.7916 173.704 29.5597 173.704 29.3168V26.2912H174.872V31.9006H173.704V31.1277H173.649C173.549 31.2933 173.406 31.4369 173.241 31.5694C173.098 31.6798 172.91 31.7792 172.69 31.8675C172.469 31.9558 172.194 32 171.885 32H171.863Z" fill="white"/>
<path d="M176.184 26.2912H177.352V27.0642H177.407C177.507 26.8986 177.65 26.755 177.815 26.6225C177.958 26.5121 178.146 26.4127 178.366 26.3244C178.587 26.236 178.851 26.1919 179.182 26.1919C179.876 26.1919 180.417 26.3906 180.813 26.7881C181.21 27.1856 181.398 27.7709 181.398 28.5549V31.9006H180.229V28.6542C180.229 28.1574 180.119 27.793 179.898 27.5611C179.678 27.3292 179.347 27.2188 178.895 27.2188C178.675 27.2188 178.466 27.2629 178.278 27.3402C178.091 27.4175 177.925 27.5279 177.782 27.6715C177.639 27.815 177.529 27.9917 177.451 28.1905C177.374 28.3892 177.33 28.6211 177.33 28.864V31.8896H176.162V26.2802L176.184 26.2912Z" fill="white"/>
<path d="M185.002 32C184.627 32 184.274 31.9337 183.955 31.7902C183.635 31.6467 183.349 31.4589 183.117 31.205C182.875 30.951 182.687 30.6418 182.555 30.2885C182.423 29.9241 182.345 29.5266 182.345 29.0959C182.345 28.6653 182.412 28.2567 182.555 27.9034C182.687 27.539 182.875 27.2409 183.117 26.9869C183.36 26.7329 183.635 26.5342 183.955 26.4017C184.274 26.2581 184.627 26.1919 185.002 26.1919C185.288 26.1919 185.542 26.236 185.762 26.3244C185.983 26.4127 186.17 26.5121 186.314 26.6115C186.49 26.7329 186.644 26.8765 186.765 27.02H186.821V24.2153H187.989V31.9117H186.821V31.1939H186.765C186.644 31.3485 186.49 31.4921 186.314 31.6135C186.17 31.7129 185.983 31.8123 185.762 31.8896C185.542 31.9779 185.288 32.011 185.002 32.011V32ZM185.222 30.962C185.696 30.962 186.082 30.8075 186.38 30.4872C186.677 30.167 186.832 29.7032 186.832 29.0959C186.832 28.4886 186.677 28.0248 186.38 27.7046C186.082 27.3844 185.696 27.2298 185.222 27.2298C184.715 27.2298 184.318 27.3844 184.01 27.7046C183.701 28.0248 183.558 28.4886 183.558 29.0959C183.558 29.7032 183.712 30.167 184.01 30.4872C184.307 30.8075 184.715 30.962 185.222 30.962Z" fill="white"/>
<path d="M39.637 0L69.1663 29.2616V0H39.637Z" fill="white"/>
<path d="M27.0052 0V4.69289H0V12.9745H18.8926V17.6674H0V31.8675H32.1637V0H26.9941H27.0052Z" fill="white"/>
<path d="M37.0026 3.89786V31.8785H65.2423L37.0026 3.89786Z" fill="white"/>
<path d="M94.4189 17.6784L106.114 29.2616V17.6784H94.4189Z" fill="white"/>
<path d="M87.9266 17.6784H87.8935V13.0186H101.374V4.70393H79.1086V0H73.939V3.9089H73.928V31.8785H102.168L87.8715 17.7115L87.9045 17.6784H87.9266Z" fill="white"/>
</g>
<defs>
<clipPath id="clip0_43_2117">
<rect width="188" height="32" fill="white"/>
</clipPath>
</defs>
</svg>
