<svg width="120" height="40" viewBox="0 0 120 40" fill="none" xmlns="http://www.w3.org/2000/svg">
<g clip-path="url(#clip0_43_2065)">
<path d="M29.3271 23.6517V18.1826H14.6678V23.6517H29.3271ZM7.32967 18.1826H14.6593V5.46915H31.1722V0H7.32967V18.1826ZM44.672 35.1648V35.1057C45.5523 34.8267 46.0432 34.0406 46.0432 33.1276C46.0432 31.5638 44.799 30.9045 42.9454 30.9045H40.3216V40H43.1401C45.1968 40 46.5849 39.1124 46.5849 37.3457C46.5849 36.0947 45.8062 35.3677 44.672 35.1648ZM41.2696 31.6737H42.7761C44.2996 31.6737 45.0952 32.0964 45.0952 33.246C45.0952 34.2265 44.4012 34.8352 42.7169 34.8352H41.2696V31.6737ZM42.9708 39.2392H41.2696V35.5706H42.9708C44.6805 35.5706 45.6454 36.1285 45.6454 37.3204C45.6454 38.6391 44.6466 39.2392 42.9708 39.2392ZM60.8295 23.6517V14.5647H58.7558V23.6517H60.8295ZM107.668 13.8884C108.244 13.8884 108.65 13.4658 108.65 12.9163C108.65 12.3669 108.244 11.9442 107.668 11.9442C107.093 11.9442 106.686 12.3669 106.686 12.9163C106.686 13.4658 107.093 13.8884 107.668 13.8884ZM76.6653 16.2806V14.5562H70.9268V23.6517H76.8091V21.9273H73.0004V19.8309H76.1236V18.1065H73.0004V16.2806H76.6737H76.6653ZM42.3868 5.56213H45.5607V3.8377H42.3868V1.73288H46.1024V0H40.3216V9.09552H42.3953V5.56213H42.3868ZM74.2615 7.37109H70.4528V5.27472H73.576V3.5503H70.4528V1.72443H74.1261V0H68.3876V9.09552H74.27V7.37109H74.2615ZM110.783 13.8884C111.358 13.8884 111.765 13.4658 111.765 12.9163C111.765 12.3669 111.358 11.9442 110.783 11.9442C110.207 11.9442 109.801 12.3669 109.801 12.9163C109.801 13.4658 110.207 13.8884 110.783 13.8884ZM45.6115 19.645C45.6115 21.4201 45.0106 22.0372 43.9865 22.0372C42.9623 22.0372 42.3953 21.4201 42.3953 19.645V14.5562H40.3216V19.4336C40.3216 22.4852 41.6081 23.8123 43.9865 23.8123C46.3648 23.8123 47.609 22.4852 47.609 19.4336V14.5562H45.6115V19.645ZM62.3275 7.37109H58.5188V5.27472H61.642V3.5503H58.5188V1.72443H62.1921V0H56.4537V9.09552H62.336V7.37109H62.3275ZM66.2886 0H64.215V9.08707H66.2886V0ZM0 40H7.32967V25.4522H0V40ZM79.5514 35.9594C79.5514 36.8808 79.6191 37.8445 79.6699 38.7574H79.6107L78.6035 36.8977L75.0741 30.9045H74.0838V39.9915H74.9894V34.8774C74.9894 33.956 74.9217 33.0431 74.8709 32.1471H74.9302L75.9374 33.9983L79.4668 40H80.457V30.9129H79.5514V35.9679V35.9594ZM91.5108 18.5292L90.3428 18.0642C89.5387 17.743 88.9463 17.5486 88.9463 16.9907C88.9463 16.4666 89.3948 16.1792 90.1143 16.1792C90.8337 16.1792 91.4092 16.4328 92.0186 16.8893L93.0681 15.5959C92.281 14.8183 91.1807 14.4041 90.1227 14.4041C88.2184 14.4041 86.8557 15.6044 86.8557 17.109C86.8557 18.4277 87.7529 19.2054 88.7093 19.5858L89.9027 20.093C90.6983 20.4227 91.223 20.6002 91.223 21.175C91.223 21.716 90.7998 22.0541 89.9365 22.0541C89.1832 22.0541 88.3369 21.6653 87.6851 21.0989L86.4918 22.5106C87.4312 23.3812 88.6923 23.8292 89.8857 23.8292C92.0694 23.8292 93.339 22.519 93.339 21.0144C93.339 19.7295 92.6449 18.9856 91.5193 18.5376L91.5108 18.5292ZM85.4253 17.388C85.4253 15.224 83.8341 14.5562 81.8874 14.5562H78.5865V23.6433H80.6602V20.3719H81.8028L83.5548 23.6433H85.8654L83.7918 20.0085C84.7736 19.5689 85.4253 18.7236 85.4253 17.388ZM81.7182 18.7489H80.6602V16.1961H81.7182C82.81 16.1961 83.394 16.492 83.394 17.3965C83.394 18.3009 82.81 18.7489 81.7182 18.7489ZM94.964 23.6517H97.0377V14.5647H94.964V23.6517ZM112.882 14.5562V16.2806H115.404V23.6517H117.478V16.2806H120V14.5562H112.882ZM105.578 14.5562H98.4596V16.2806H100.982V23.6517H103.055V16.2806H105.578V14.5562ZM108.041 14.5562L105.163 23.6433H107.279L107.846 21.4793H110.639L111.198 23.6433H113.39L110.512 14.5562H108.032H108.041ZM108.261 19.8901L108.481 19.0533C108.735 18.1488 108.98 17.0837 109.2 16.12H109.259C109.505 17.0668 109.75 18.1488 110.004 19.0533L110.224 19.8901H108.261ZM61.7774 33.4066C61.7774 31.5723 60.4994 30.9129 58.6458 30.9129H55.8781V40H56.8345V36.0271H58.6119L60.931 40H62.0144L59.6107 35.9341C60.931 35.672 61.7859 34.8352 61.7859 33.4066H61.7774ZM58.4765 35.2494H56.8261V31.6906H58.4765C59.9831 31.6906 60.8125 32.1471 60.8125 33.4066C60.8125 34.6661 59.9831 35.2494 58.4765 35.2494ZM56.6907 14.5562H54.7186V17.7684C54.7186 18.8419 54.8879 20.1099 54.981 21.0735H54.9217L54.0161 19.0786L51.6293 14.5562H49.5049V23.6433H51.4769V20.4142C51.4769 19.3407 51.3077 18.1234 51.2146 17.1175H51.2738L52.1794 19.104L54.5662 23.6348H56.6907V14.5478V14.5562ZM49.835 5.81572H50.9776L52.7296 9.08707H55.0402L52.9666 5.45224C53.9484 5.01268 54.6001 4.16737 54.6001 2.83178C54.6001 0.667794 53.0089 0 51.0622 0H47.7613V9.08707H49.835V5.81572ZM49.8265 1.63145H50.8845C51.9763 1.63145 52.5603 1.9273 52.5603 2.83178C52.5603 3.73626 51.9763 4.18428 50.8845 4.18428H49.8265V1.63145ZM49.4879 35.6044H53.0427V34.8013H49.4879V31.716H53.7114V30.9129H48.54V40H53.8553V39.197H49.4964V35.6129L49.4879 35.6044ZM70.4697 40H71.4262V30.9129H70.4697V40ZM64.6974 30.9045H63.741V39.9915H68.7854V39.1885H64.6974V30.9045ZM66.7033 18.7912C66.441 19.7887 66.2463 20.7016 65.967 21.7075H65.9077C65.6284 20.7016 65.4507 19.7887 65.1714 18.7912L64.0626 14.5562H61.8705L64.6382 23.6433H67.1265L69.8942 14.5562H67.7783L66.6949 18.7912H66.7033Z" fill="white"/>
</g>
<defs>
<clipPath id="clip0_43_2065">
<rect width="120" height="40" fill="white"/>
</clipPath>
</defs>
</svg>
