<svg width="189" height="40" viewBox="0 0 189 40" fill="none" xmlns="http://www.w3.org/2000/svg">
<g clip-path="url(#clip0_43_2062)">
<path d="M19.2181 26.2057L17.957 32.8112H18.6346L18.8887 31.475H20.5545L20.8086 32.8112H21.5427L20.2816 26.2057H19.2181ZM18.9828 30.8446L19.7075 27.0337L20.451 30.8446H18.9828ZM16.9311 23.317H17.6652V16.7115H16.9311V23.317ZM19.3216 17.3795H20.5357V23.317H21.2698V17.3795H22.4839V16.7115H19.3122V17.3795H19.3216ZM26.399 21.755C26.399 22.0561 26.3425 22.2913 26.2202 22.4607C26.0978 22.6301 25.9002 22.7148 25.6367 22.7148C25.3732 22.7148 25.1661 22.6301 25.0438 22.4607C24.9214 22.2913 24.8555 22.0561 24.8555 21.755V16.7115H24.1309V21.7173C24.1309 22.2255 24.2532 22.6207 24.4885 22.9312C24.7238 23.2323 25.1002 23.3922 25.599 23.3922C26.0978 23.3922 26.4837 23.2417 26.719 22.9312C26.9543 22.6301 27.0766 22.2255 27.0766 21.7173V16.7115H26.3896V21.755H26.399ZM36.281 22.6489H34.3046V20.3059H35.914V19.6472H34.3046V17.3889H36.281V16.7209H33.5611V23.3264H36.281V22.6583V22.6489ZM28.7236 17.3795H29.9377V23.317H30.6718V17.3795H31.8953V16.7115H28.7236V17.3795ZM25.7402 30.9763L24.2156 26.2057H23.2838V32.8112H23.9426V27.476L25.6367 32.8112H26.399V26.2057H25.7496V30.9763H25.7402ZM12.0843 17.3795H13.2983V23.317H14.0324V17.3795H15.2559V16.7115H12.0843V17.3795ZM29.853 26.2057H28.3095V32.8112H29.853C30.3706 32.8112 30.7471 32.6701 30.9918 32.3784C31.2365 32.0867 31.3588 31.6915 31.3588 31.1833V27.8524C31.3588 27.3443 31.2365 26.9396 30.9918 26.6479C30.7471 26.3562 30.3706 26.2057 29.853 26.2057ZM30.6247 31.2022C30.6247 31.5033 30.5589 31.7385 30.4271 31.8985C30.2953 32.0584 30.0977 32.1431 29.8342 32.1431H29.0342V26.8738H29.8248C30.0977 26.8738 30.2953 26.9585 30.4271 27.1184C30.5589 27.2784 30.6247 27.5136 30.6247 27.8147V31.2116V31.2022ZM80.0441 13.9074C80.5523 13.9074 80.9287 13.7569 81.1734 13.4558C81.4181 13.1547 81.5405 12.75 81.5405 12.2513V10.3036H80.1664V10.9622H80.844V12.2796C80.844 12.5807 80.7782 12.8159 80.6558 12.9853C80.5335 13.1547 80.3358 13.2393 80.0629 13.2393C79.79 13.2393 79.6017 13.1547 79.4794 12.9853C79.357 12.8159 79.2912 12.5807 79.2912 12.2796V8.78862C79.2912 8.48751 79.357 8.25227 79.4794 8.0829C79.6017 7.91353 79.7994 7.82884 80.0629 7.82884C80.3264 7.82884 80.5335 7.91353 80.6558 8.0829C80.7782 8.25227 80.844 8.48751 80.844 8.78862V9.39083H81.5405V8.82626C81.5405 8.32755 81.4181 7.92294 81.1734 7.62183C80.9287 7.32073 80.5523 7.17018 80.0441 7.17018C79.79 7.17018 79.5735 7.20781 79.3853 7.28309C79.197 7.35837 79.0465 7.47128 78.9241 7.62183C78.8018 7.76298 78.7076 7.94176 78.6512 8.14877C78.5947 8.35578 78.5665 8.58161 78.5665 8.83567V12.2513C78.5665 12.7594 78.6888 13.1547 78.9335 13.4558C79.1782 13.7569 79.5453 13.9074 80.0535 13.9074H80.0441ZM61.8424 23.3264H62.5765V16.7209H61.8424V23.3264ZM70.3691 13.9168C70.8773 13.9168 71.2538 13.7663 71.4891 13.4558C71.7244 13.1547 71.8467 12.75 71.8467 12.2419V7.22663H71.1597V12.2702C71.1597 12.5713 71.1032 12.8065 70.9809 12.9759C70.8585 13.1452 70.6703 13.2299 70.3974 13.2299C70.1244 13.2299 69.9268 13.1452 69.8045 12.9759C69.6821 12.8065 69.6162 12.5713 69.6162 12.2702V7.22663H68.8915V12.2419C68.8915 12.7406 69.0139 13.1452 69.2492 13.4558C69.4845 13.7569 69.8609 13.9168 70.3597 13.9168H70.3691ZM61.8989 13.4369C62.1436 13.1735 62.2659 12.7877 62.2659 12.289V11.7338C62.2659 11.3668 62.2 11.0657 62.0589 10.8211C61.9271 10.5764 61.6918 10.4071 61.3718 10.3224C61.6636 10.2377 61.8612 10.0777 61.9742 9.86131C62.0871 9.64489 62.1436 9.3626 62.1436 9.00504V8.69452C62.1436 8.20523 62.0306 7.83825 61.8142 7.59361C61.5977 7.34896 61.2212 7.22663 60.713 7.22663H59.2354V13.8321H60.7507C61.2683 13.8321 61.6448 13.7004 61.8895 13.4275L61.8989 13.4369ZM59.9695 7.90412H60.6942C60.9577 7.90412 61.1459 7.96999 61.2589 8.12054C61.3718 8.26168 61.4283 8.4781 61.4283 8.77921V9.165C61.4283 9.51315 61.353 9.74839 61.2024 9.86131C61.0518 9.98363 60.8354 10.0401 60.5342 10.0401H59.9695V7.90412ZM59.9695 10.7082H60.6095C60.9295 10.7082 61.1648 10.7834 61.3154 10.9246C61.4659 11.0657 61.5318 11.3198 61.5318 11.6962V12.2796C61.5318 12.8818 61.2683 13.1735 60.7507 13.1735H59.9695V10.7082ZM81.5311 17.3889V16.7209H78.8112V23.3264H81.5311V22.6583H79.5547V20.3059H81.164V19.6472H79.5547V17.3889H81.5311ZM74.4725 11.0187H74.9901C75.3007 11.0187 75.536 11.094 75.7054 11.2351C75.8748 11.3762 75.9595 11.6303 75.9595 12.0067V13.0417C75.9595 13.2582 75.9595 13.4275 75.9877 13.5404C76.0066 13.6534 76.0348 13.7569 76.0819 13.851H76.8254C76.7595 13.738 76.7218 13.6157 76.7124 13.4746C76.703 13.3428 76.6936 13.2017 76.6936 13.0511V12.0255C76.6936 11.6679 76.6277 11.3668 76.5054 11.1316C76.383 10.8964 76.1666 10.7364 75.8654 10.6423C76.1477 10.5576 76.3548 10.3977 76.4865 10.1718C76.6183 9.94599 76.6842 9.6543 76.6842 9.28732V8.75098C76.6842 8.26168 76.5713 7.8853 76.3454 7.63124C76.1101 7.37719 75.743 7.24545 75.216 7.24545H73.7478V13.851H74.4819V11.0281L74.4725 11.0187ZM74.4725 7.90412H75.1878C75.4607 7.90412 75.6583 7.9794 75.7807 8.12995C75.8936 8.2805 75.9595 8.50633 75.9595 8.80744V9.43788C75.9595 9.79544 75.8748 10.0401 75.7148 10.1624C75.5548 10.2847 75.3195 10.3412 75.0278 10.3412H74.4819V7.89471L74.4725 7.90412ZM36.7892 13.1735H34.8975V7.23604H34.1634V13.8415H36.7892V13.1735ZM9.96669 20.3341C9.80669 20.1554 9.62788 19.9954 9.43024 19.8448C9.24201 19.6943 9.06319 19.5437 8.89379 19.3932C8.73379 19.2426 8.59262 19.0733 8.47968 18.8851C8.36675 18.6969 8.31969 18.4899 8.31969 18.2452C8.31969 17.9535 8.37616 17.7183 8.49851 17.5583C8.62085 17.3984 8.80908 17.3137 9.0726 17.3137C9.33612 17.3137 9.53376 17.3984 9.6467 17.5583C9.76905 17.7183 9.82551 17.9535 9.82551 18.2546V18.471H10.522V18.2923C10.522 17.7936 10.3996 17.3889 10.1643 17.0878C9.92904 16.7867 9.55258 16.6362 9.05378 16.6362C8.55497 16.6362 8.18793 16.7867 7.95264 17.0784C7.71736 17.3701 7.59501 17.7747 7.59501 18.2829C7.59501 18.5934 7.65148 18.8568 7.76442 19.0827C7.87735 19.3085 8.00911 19.5061 8.17852 19.6849C8.34792 19.8637 8.51733 20.0236 8.70556 20.1742C8.89379 20.3247 9.0726 20.4753 9.2326 20.6258C9.39259 20.7764 9.53376 20.9458 9.6467 21.1245C9.75963 21.3033 9.8161 21.5197 9.8161 21.7644C9.8161 22.0655 9.75022 22.3007 9.62788 22.4607C9.50553 22.6207 9.30789 22.7053 9.04437 22.7053C8.78085 22.7053 8.58321 22.6207 8.46086 22.4607C8.33851 22.3007 8.27263 22.0655 8.27263 21.7644V21.3504H7.5856V21.7267C7.5856 22.2255 7.69854 22.6301 7.94323 22.9312C8.17852 23.2323 8.55497 23.3828 9.06319 23.3828C9.57141 23.3828 9.94786 23.2323 10.1926 22.9312C10.4373 22.6301 10.5596 22.2349 10.5596 21.7267C10.5596 21.4162 10.5031 21.1528 10.3996 20.9269C10.2867 20.7011 10.1549 20.5035 9.98551 20.3247L9.96669 20.3341ZM5.10099 21.4821L3.57634 16.7115H2.64461V23.317H3.30341V17.9817L4.99746 23.317H5.75978V16.7115H5.1104V21.4821H5.10099ZM53.7768 8.58161L54.8685 13.8321H55.5744L56.6191 8.53456V13.851H57.3155V7.24545H56.2897L55.245 12.5242L54.1627 7.24545H53.1368V13.851H53.7768V8.59102V8.58161ZM0 23.317H0.73409V16.7115H0V23.317ZM35.5751 26.8738H36.7892V32.8112H37.5233V26.8738H38.7374V26.2057H35.5657V26.8738H35.5751ZM188.972 21.4256C188.878 19.8072 188.492 18.264 187.88 16.8244C188.275 15.6388 188.266 14.4908 187.777 13.3993C187.447 12.6748 186.873 12.0631 186.13 11.5644C185.075 7.67829 181.979 4.47904 177.8 2.68182C177.198 2.10784 176.52 1.61854 175.786 1.21393C172.361 -0.658571 168.182 -0.27278 164.267 1.82555C156.973 3.80156 151.844 9.49433 152.23 15.8834C152.277 16.5891 152.399 17.2666 152.568 17.9347C151.881 19.7507 151.552 21.6891 151.674 23.6933C152.126 31.0987 158.469 36.942 166.638 38.2029C169.584 39.9436 172.728 40.5176 175.598 39.5108C177.593 38.8145 179.231 37.4878 180.473 35.7376C185.885 32.6606 189.329 27.316 188.972 21.4351V21.4256ZM187.137 14.2462C187.297 14.6884 187.353 15.1683 187.306 15.6576C187.071 15.2247 186.807 14.8013 186.525 14.3967C186.525 14.1991 186.525 14.0015 186.515 13.8039C186.506 13.5969 186.459 13.3993 186.44 13.1923C186.741 13.5122 186.986 13.851 187.137 14.2462ZM186.497 15.253C186.732 15.6764 186.948 16.1092 187.137 16.5515C187.024 16.9185 186.854 17.2949 186.647 17.6806C186.497 17.5301 186.337 17.3795 186.177 17.2384C186.337 16.5891 186.45 15.9305 186.497 15.253ZM186.412 19.4214C187.033 20.2024 187.4 21.0587 187.457 21.9902C187.588 24.2203 185.932 26.3562 183.165 28.0876C183.344 26.4127 183.334 24.6343 183.118 22.7994C183.316 22.583 183.494 22.3572 183.673 22.1314C184.765 21.2469 185.687 20.3341 186.412 19.4214ZM158.526 23.2041C158.131 21.8303 157.858 20.4753 157.679 19.1391C158.253 18.6781 158.883 18.217 159.561 17.7653C162.168 16.5515 165.396 15.6482 168.982 15.253C172.728 14.839 176.276 15.046 179.259 15.714C178.817 18.1041 177.96 20.5694 176.671 22.9688C176.351 23.571 175.993 24.1356 175.636 24.6908C173.913 25.2459 172.041 25.6129 170.064 25.7352C165.66 25.9987 161.594 25.0389 158.526 23.2041ZM168.737 28.6145C166.074 29.3108 163.542 29.6872 161.34 29.7437C160.719 28.6898 160.145 27.5701 159.646 26.3845C162.262 27.7771 165.387 28.5957 168.737 28.624V28.6145ZM159.458 30.7976C158.996 30.647 158.563 30.487 158.14 30.3177C158.498 30.3741 158.865 30.4118 159.251 30.44C159.316 30.5529 159.382 30.6752 159.448 30.7976H159.458ZM169.396 7.14195C171.532 7.01021 173.594 7.1984 175.523 7.64065C176.21 8.3746 176.878 9.17441 177.499 10.0495C174.422 10.2659 170.921 11.0187 167.278 12.3642C164.229 13.4934 161.49 14.8954 159.213 16.4009C158.611 16.6926 158.027 16.9937 157.491 17.3137C157.359 15.2059 157.5 13.2017 157.905 11.4045C160.898 9.00504 164.907 7.41482 169.396 7.14195ZM158.055 10.774C159.006 7.15136 161.02 4.41318 163.947 3.39695C167.476 2.16429 171.523 3.69805 174.958 7.07608C173.179 6.71852 171.297 6.56796 169.358 6.69029C165.01 6.95376 161.095 8.46869 158.046 10.7834L158.055 10.774ZM181.556 11.3104C182.28 11.3762 182.958 11.4986 183.57 11.6491C184.351 12.3454 185.047 13.1076 185.65 13.9262C185.602 14.8013 185.442 15.6576 185.17 16.4668C184.153 15.7893 182.92 15.2153 181.527 14.7449C181.64 13.5687 181.65 12.4113 181.565 11.301L181.556 11.3104ZM181.151 17.2102C181.584 18.4805 181.913 19.7413 182.158 20.9834C181.264 21.8208 180.219 22.5548 179.062 23.2041C180.04 21.2186 180.737 19.1956 181.141 17.2102H181.151ZM179.494 14.1991C176.398 13.4934 172.746 13.277 168.907 13.7192C168.182 13.8039 167.476 13.9168 166.77 14.0391C167.1 13.9074 167.42 13.7757 167.749 13.6534C171.523 12.2513 175.193 11.4703 178.318 11.2821C178.751 11.9785 179.165 12.7124 179.551 13.4746C179.532 13.7192 179.513 13.9639 179.485 14.2085L179.494 14.1991ZM179.062 11.2445C179.24 11.2445 179.438 11.2257 179.607 11.2257C179.617 11.5362 179.607 11.8655 179.607 12.1855C179.429 11.8655 179.25 11.5456 179.052 11.2445H179.062ZM178.233 9.99304C177.697 9.24028 177.132 8.55338 176.549 7.90412C177.527 8.18641 178.478 8.52515 179.363 8.92976C179.429 9.26851 179.476 9.61666 179.513 9.97422C179.099 9.97422 178.666 9.97422 178.233 10.0025V9.99304ZM176.699 27.1184C178.958 26.2057 180.934 24.9354 182.516 23.3922C182.704 25.1706 182.694 26.8926 182.506 28.4922C179.843 29.9977 176.285 31.1363 172.342 31.6538C173.913 30.4212 175.391 28.8968 176.699 27.1278V27.1184ZM181.725 16.7961C181.669 16.6456 181.612 16.5044 181.556 16.3633C182.713 16.7679 183.73 17.2572 184.586 17.8218C184.115 18.7533 183.475 19.619 182.732 20.4188C182.478 19.2238 182.148 18.01 181.734 16.8056L181.725 16.7961ZM185.885 18.8568C185.706 19.0921 185.518 19.3367 185.301 19.572C185.442 19.2709 185.584 18.9792 185.706 18.6686C185.772 18.7251 185.819 18.791 185.885 18.8568ZM185.64 12.8912C185.64 13.0041 185.64 13.117 185.64 13.2299C185.264 12.7783 184.878 12.3454 184.454 11.9314C184.878 12.0914 185.245 12.289 185.584 12.496C185.593 12.6277 185.621 12.7594 185.631 12.8912H185.64ZM185.348 11.1128C184.511 10.6988 183.513 10.3882 182.374 10.2001C182.026 9.9554 181.678 9.72957 181.311 9.50375C180.859 7.10431 179.89 4.99657 178.45 3.35931C181.96 5.07185 184.511 7.81943 185.348 11.1034V11.1128ZM174.544 1.54326C174.61 1.5809 174.666 1.61854 174.732 1.65618C172.794 1.1857 170.714 0.978691 168.549 1.11042C167.617 1.16688 166.714 1.29862 165.829 1.46799C168.888 0.207107 171.975 0.131831 174.553 1.54326H174.544ZM164.276 2.21134C165.631 1.84437 167.071 1.59031 168.568 1.49622C171.081 1.34566 173.481 1.64677 175.664 2.28662C177.49 3.70746 178.704 5.86225 179.269 8.43106C178.233 7.96999 177.142 7.59361 176.003 7.30191C172.285 3.4534 167.711 1.57149 163.599 2.59713C163.824 2.45599 164.06 2.32426 164.286 2.20193L164.276 2.21134ZM162.883 2.64418C162.686 2.77591 162.488 2.89824 162.29 3.02997C160.079 3.96152 158.356 5.73992 157.18 8.09231C156.465 9.0615 155.797 10.0965 155.204 11.2069C154.319 12.8441 153.651 14.519 153.171 16.1845C153.086 15.7517 153.02 15.3188 152.992 14.8672C152.672 9.5602 156.804 4.78015 162.883 2.64418ZM155.665 12.9665C154.94 13.7569 154.3 14.6131 153.764 15.507C154.225 14.1332 154.818 12.75 155.542 11.3951C155.825 10.8681 156.126 10.36 156.437 9.87072C156.098 10.8399 155.844 11.875 155.674 12.9665H155.665ZM155.797 21.0399C155.797 21.0399 155.74 20.974 155.712 20.9458C155.731 20.9269 155.749 20.8987 155.778 20.8799C155.787 20.9363 155.797 20.9834 155.806 21.0399H155.797ZM155.486 18.7157C155.157 18.9886 154.855 19.2614 154.573 19.5437C154.084 18.8098 153.707 18.0194 153.434 17.1819C153.952 15.9493 154.677 14.7919 155.561 13.7192C155.364 15.3 155.335 16.9749 155.486 18.7157ZM152.898 18.9698C153.105 19.5343 153.331 20.0895 153.622 20.6164C153.171 21.2186 152.823 21.8303 152.597 22.4607C152.597 21.3316 152.691 20.1648 152.898 18.9698ZM153.557 26.7044C153.472 26.5444 153.397 26.3751 153.34 26.2057C153.331 26.1681 153.312 26.1304 153.303 26.0928C153.133 24.9072 153.632 23.571 154.658 22.1784C155.222 22.9312 155.853 23.6557 156.587 24.305C156.7 24.6908 156.813 25.0671 156.945 25.4529C157.462 26.9396 158.093 28.3417 158.799 29.6496C157.312 29.4896 156.06 29.1227 155.128 28.5769C154.441 28.0029 153.905 27.3819 153.557 26.7044ZM160.841 33.8086C158.62 32.7359 156.719 31.2586 155.298 29.5084C155.712 29.7061 156.164 29.866 156.634 29.9977C157.575 30.5153 158.639 30.9669 159.806 31.3433C160.38 32.2466 161.001 33.0841 161.66 33.8651C161.387 33.8651 161.114 33.8463 160.841 33.818V33.8086ZM161.782 30.4776C164.719 30.3365 168.107 29.6308 171.636 28.4263C172.069 28.3699 172.492 28.2946 172.906 28.2193C171.467 29.7531 169.904 31.014 168.285 31.9455C166.206 31.9832 164.248 31.8326 162.469 31.5221C162.234 31.1834 161.999 30.8258 161.773 30.4682L161.782 30.4776ZM162.883 32.0867C164.257 32.3313 165.735 32.4631 167.269 32.5007C166.224 33.0088 165.17 33.3852 164.126 33.611C163.702 33.1311 163.279 32.623 162.883 32.0867ZM176.153 38.3346C174.601 38.8804 172.944 38.8804 171.278 38.4287C171.278 38.4287 171.278 38.4287 171.288 38.4287C174.13 38.2593 176.775 37.5348 179.127 36.4245C178.271 37.2807 177.283 37.9394 176.144 38.3346H176.153ZM181.678 32.1808C178.807 34.185 175.165 35.5117 171.128 35.7564C169.349 35.8693 167.627 35.7564 165.98 35.4553C165.81 35.3047 165.65 35.1542 165.481 34.9942C167.476 34.5708 169.5 33.6675 171.401 32.3407C175.673 31.9079 179.494 30.7505 182.431 29.1132C182.261 30.2048 182.007 31.2304 181.678 32.1808ZM182.44 31.6256C182.713 30.7129 182.93 29.7531 183.071 28.7557C185.151 27.4854 186.713 25.961 187.579 24.2861C186.779 27.109 184.972 29.6496 182.44 31.6256ZM187.184 18.3017C187.306 18.0947 187.428 17.8782 187.532 17.6712C187.711 18.2546 187.824 18.8662 187.918 19.4873C187.729 19.0733 187.485 18.6781 187.184 18.3017ZM75.1784 26.1398C74.9243 26.1398 74.7078 26.1775 74.5196 26.2527C74.3313 26.328 74.1808 26.4409 74.0584 26.5915C73.9361 26.7326 73.8419 26.9114 73.7855 27.1184C73.729 27.3254 73.7008 27.5513 73.7008 27.8053V31.221C73.7008 31.7291 73.8231 32.1243 74.0678 32.4254C74.3125 32.7265 74.6796 32.8771 75.1878 32.8771C75.696 32.8771 76.0724 32.7265 76.3171 32.4254C76.5618 32.1243 76.6748 31.7197 76.6748 31.221V29.2732H75.3007V29.9319H75.9783V31.2492C75.9783 31.5503 75.9125 31.7856 75.7901 31.9549C75.6678 32.1243 75.4701 32.209 75.1972 32.209C74.9243 32.209 74.736 32.1243 74.6137 31.9549C74.4913 31.7856 74.4255 31.5503 74.4255 31.2492V27.7583C74.4255 27.4572 74.4913 27.2219 74.6137 27.0526C74.736 26.8832 74.9337 26.7985 75.1972 26.7985C75.4607 26.7985 75.6678 26.8832 75.7901 27.0526C75.9125 27.2219 75.9783 27.4572 75.9783 27.7583V28.3605H76.6748V27.7959C76.6748 27.2972 76.5524 26.8926 76.3171 26.5915C76.0724 26.2904 75.696 26.1398 75.1878 26.1398H75.1784ZM71.5079 21.4915L69.9833 16.7209H69.0515V23.3264H69.7103V17.9817L71.4044 23.3264H72.1667V16.7209H71.5173V21.4915H71.5079ZM75.4984 16.655C75.2442 16.655 75.0278 16.6926 74.8396 16.7773C74.6513 16.8526 74.5007 16.9655 74.3784 17.1067C74.2561 17.2478 74.1619 17.4266 74.1055 17.6336C74.049 17.8406 74.0208 18.0664 74.0208 18.3205V21.7362C74.0208 22.2443 74.1431 22.6395 74.3878 22.9406C74.6325 23.2417 74.9996 23.3922 75.5078 23.3922C76.016 23.3922 76.3924 23.2417 76.6371 22.9406C76.8818 22.6395 77.0042 22.2349 77.0042 21.7362V20.9175H76.3077V21.7738C76.3077 22.0749 76.2419 22.3101 76.1195 22.4795C75.9972 22.6489 75.7995 22.7336 75.5266 22.7336C75.2537 22.7336 75.0654 22.6489 74.9431 22.4795C74.8207 22.3101 74.7549 22.0749 74.7549 21.7738V18.2829C74.7549 17.9817 74.8207 17.7465 74.9431 17.5771C75.0654 17.4078 75.2631 17.3231 75.5266 17.3231C75.7901 17.3231 75.9972 17.4078 76.1195 17.5771C76.2419 17.7465 76.3077 17.9817 76.3077 18.2829V18.9133H77.0042V18.3205C77.0042 17.8218 76.8818 17.4172 76.6371 17.1161C76.3924 16.815 76.016 16.6644 75.5078 16.6644L75.4984 16.655ZM70.3691 26.1398C69.8609 26.1398 69.4845 26.2904 69.2304 26.5915C68.9857 26.8926 68.8539 27.2972 68.8539 27.8053V31.221C68.8539 31.7197 68.9762 32.1243 69.2304 32.4254C69.4751 32.7265 69.8609 32.8771 70.3691 32.8771C70.8773 32.8771 71.2632 32.7265 71.5079 32.4254C71.762 32.1243 71.8844 31.7197 71.8844 31.221V27.8053C71.8844 27.2972 71.762 26.8926 71.5079 26.5915C71.2538 26.2904 70.8773 26.1398 70.3691 26.1398ZM71.1503 31.2492C71.1503 31.5503 71.0844 31.7856 70.9621 31.9549C70.8397 32.1243 70.6421 32.209 70.3691 32.209C70.0962 32.209 69.908 32.1243 69.7762 31.9549C69.6445 31.7856 69.588 31.5503 69.588 31.2492V27.7583C69.588 27.4572 69.6539 27.2219 69.7762 27.0526C69.908 26.8926 70.1056 26.8079 70.3691 26.8079C70.6327 26.8079 70.8397 26.8926 70.9621 27.0526C71.0844 27.2219 71.1503 27.4572 71.1503 27.7583V31.2492ZM79.95 29.452L78.9241 26.2057H78.1618L79.5547 30.44V32.8112H80.2794V30.44L81.6817 26.2057H80.9852L79.95 29.452ZM64.4964 23.3264H67.2163V22.6583H65.2399V20.3059H66.8493V19.6472H65.2399V17.3889H67.2163V16.7209H64.4964V23.3264ZM88.8532 0.78109C88.7026 0.78109 88.5802 0.875186 88.5802 0.99751V39.0027C88.5802 39.125 88.7026 39.2191 88.8532 39.2191C89.0037 39.2191 89.1261 39.125 89.1261 39.0027V0.99751C89.1261 0.875186 89.0037 0.78109 88.8532 0.78109ZM128.071 7.17018H122.254C121.426 7.17018 120.739 7.44305 120.184 7.99822C119.628 8.55338 119.346 9.24969 119.346 10.0777V19.0544C119.346 19.8825 119.628 20.5694 120.184 21.1245C120.739 21.6797 121.435 21.962 122.254 21.962H126.132C126.414 21.962 126.649 22.0467 126.828 22.2349C127.007 22.4136 127.101 22.6489 127.101 22.9406V28.0406C127.101 28.3323 127.007 28.5581 126.828 28.7369C126.649 28.9156 126.414 29.0097 126.132 29.0097H124.193C123.911 29.0097 123.675 28.9251 123.497 28.7369C123.318 28.5581 123.224 28.3228 123.224 28.0406V26.5162C123.224 26.2339 123.13 25.9987 122.951 25.8199C122.772 25.6411 122.537 25.547 122.245 25.547H120.306C120.024 25.547 119.788 25.6411 119.61 25.8199C119.431 25.9987 119.337 26.2339 119.337 26.5162V29.9789C119.337 30.807 119.619 31.4939 120.174 32.049C120.73 32.6042 121.426 32.8865 122.245 32.8865H128.061C128.889 32.8865 129.576 32.6136 130.132 32.049C130.687 31.4939 130.969 30.7976 130.969 29.9789V21.0022C130.969 20.1742 130.696 19.4873 130.132 18.9321C129.576 18.377 128.889 18.0947 128.061 18.0947H124.184C123.901 18.0947 123.666 18.01 123.487 17.8218C123.308 17.643 123.214 17.4078 123.214 17.1255V13.9639C123.214 13.1358 122.932 12.4489 122.377 11.8844C121.821 11.3292 121.125 11.0469 120.306 11.0469H126.122C126.405 11.0469 126.64 11.141 126.819 11.3198C126.998 11.4986 127.092 11.7338 127.092 12.0255V13.5499C127.092 13.8415 127.186 14.0674 127.365 14.2462C127.543 14.4249 127.779 14.519 128.071 14.519H130.009C130.292 14.519 130.527 14.4249 130.706 14.2462C130.885 14.0674 130.979 13.8321 130.979 13.5499V10.0871C130.979 9.2591 130.706 8.5722 130.141 8.00763C129.586 7.45246 128.899 7.17958 128.071 7.17958V7.17018ZM144.898 7.17018H135.204C134.913 7.17018 134.687 7.25486 134.499 7.43364C134.32 7.61242 134.226 7.84766 134.226 8.13936V10.0777C134.226 10.36 134.31 10.5953 134.499 10.774C134.677 10.9528 134.913 11.0469 135.204 11.0469H137.143C137.435 11.0469 137.661 11.141 137.84 11.3198C138.018 11.4986 138.112 11.7338 138.112 12.0255V31.9079C138.112 32.1996 138.207 32.4348 138.385 32.6042C138.564 32.783 138.8 32.8771 139.082 32.8771H141.021C141.303 32.8771 141.538 32.7924 141.717 32.6042C141.896 32.4254 141.981 32.1902 141.981 31.9079V13.9545C141.981 13.1264 141.698 12.4395 141.143 11.8844C140.588 11.3292 139.891 11.0469 139.072 11.0469H144.889C145.171 11.0469 145.406 10.9622 145.595 10.774C145.773 10.5953 145.867 10.36 145.867 10.0777V8.13936C145.867 7.84766 145.773 7.62183 145.595 7.43364C145.416 7.25486 145.18 7.17018 144.889 7.17018H144.898ZM65.3152 26.2057H64.5811V32.8112H67.2069V32.1431H65.3152V26.2057ZM113.52 7.17018H111.582C111.29 7.17018 111.064 7.26427 110.885 7.44305C110.706 7.62183 110.612 7.85707 110.612 8.13936V31.8985C110.612 32.1902 110.706 32.416 110.885 32.5948C111.064 32.7736 111.299 32.8677 111.582 32.8677H113.52C113.803 32.8677 114.038 32.783 114.217 32.5948C114.396 32.416 114.49 32.1808 114.49 31.8985V8.13936C114.49 7.85707 114.396 7.62183 114.217 7.44305C114.038 7.26427 113.803 7.17018 113.52 7.17018ZM106.829 28.9909H97.1352C97.954 28.9909 98.6504 28.718 99.2057 28.1629C99.761 27.6077 100.034 26.9114 100.034 26.0928V8.13936C100.034 7.85707 99.9398 7.62183 99.7704 7.44305C99.5916 7.26427 99.3563 7.17018 99.0645 7.17018H97.1258C96.8434 7.17018 96.6082 7.26427 96.4293 7.44305C96.2505 7.62183 96.1658 7.85707 96.1658 8.13936V29.9601C96.1658 30.7881 96.4388 31.475 96.994 32.0302C97.5493 32.5854 98.2457 32.8677 99.0645 32.8677H106.82C107.102 32.8677 107.337 32.783 107.516 32.5948C107.695 32.416 107.789 32.1808 107.789 31.8985V29.9601C107.789 29.6778 107.695 29.4426 107.516 29.2638C107.337 29.085 107.102 28.9909 106.82 28.9909H106.829ZM57.1837 30.9763L55.6591 26.2057H54.7274V32.8112H55.3862V27.476L57.0802 32.8112H57.8425V26.2057H57.1932V30.9763H57.1837ZM46.3983 26.1398C46.1442 26.1398 45.9277 26.1775 45.7395 26.2527C45.5512 26.328 45.4007 26.4409 45.2783 26.5915C45.156 26.7326 45.0618 26.9114 45.0054 27.1184C44.9489 27.3254 44.9207 27.5513 44.9207 27.8053V31.221C44.9207 31.7291 45.043 32.1243 45.2877 32.4254C45.5324 32.7265 45.8995 32.8771 46.4077 32.8771C46.9159 32.8771 47.2924 32.7265 47.537 32.4254C47.7817 32.1243 47.9041 31.7197 47.9041 31.221V30.4024H47.2076V31.2586C47.2076 31.5597 47.1418 31.795 47.0194 31.9643C46.8971 32.1337 46.6994 32.2184 46.4265 32.2184C46.1536 32.2184 45.9653 32.1337 45.843 31.9643C45.7206 31.795 45.6548 31.5597 45.6548 31.2586V27.7677C45.6548 27.4666 45.7206 27.2313 45.843 27.062C45.9653 26.8926 46.163 26.8079 46.4265 26.8079C46.69 26.8079 46.8971 26.8926 47.0194 27.062C47.1418 27.2313 47.2076 27.4666 47.2076 27.7677V28.3981H47.9041V27.8053C47.9041 27.3066 47.7817 26.902 47.537 26.6009C47.2924 26.2998 46.9159 26.1492 46.4077 26.1492L46.3983 26.1398ZM45.4383 23.3264H46.1724V20.4659H47.6876V19.7978H46.1724V17.3889H48.0547V16.7209H45.4289V23.3264H45.4383ZM66.6893 13.4558C66.9434 13.1547 67.0657 12.75 67.0657 12.2513V8.83567C67.0657 8.32755 66.9434 7.92294 66.6893 7.62183C66.4352 7.32073 66.0587 7.17018 65.5505 7.17018C65.0423 7.17018 64.6658 7.32073 64.4117 7.62183C64.167 7.92294 64.0353 8.32755 64.0353 8.83567V12.2513C64.0353 12.75 64.1576 13.1547 64.4117 13.4558C64.6564 13.7569 65.0423 13.9074 65.5505 13.9074C66.0587 13.9074 66.4446 13.7569 66.6893 13.4558ZM64.7693 12.289V8.79803C64.7693 8.49692 64.8352 8.26168 64.967 8.09231C65.0987 7.92294 65.2964 7.83825 65.5599 7.83825C65.8234 7.83825 66.0305 7.92294 66.1528 8.09231C66.2752 8.26168 66.341 8.49692 66.341 8.79803V12.289C66.341 12.5901 66.2752 12.8253 66.1528 12.9947C66.0305 13.1641 65.8328 13.2487 65.5599 13.2487C65.287 13.2487 65.0987 13.1641 64.967 12.9947C64.8352 12.8253 64.7693 12.5901 64.7693 12.289ZM46.05 13.8415H46.8218L45.5042 10.4353L46.7371 7.23604H46.05L45.0242 9.88013L44.0078 7.23604H43.2454L44.4878 10.4353L43.1607 13.8415H43.8572L44.9583 10.9905L46.05 13.8415ZM42.0596 16.655C41.5514 16.655 41.1749 16.8056 40.9208 17.1067C40.6761 17.4078 40.5444 17.8124 40.5444 18.3205V21.7362C40.5444 22.2443 40.6667 22.6395 40.9208 22.9406C41.1655 23.2417 41.5514 23.3922 42.0596 23.3922C42.5678 23.3922 42.9443 23.2417 43.1984 22.9406C43.4525 22.6395 43.5748 22.2349 43.5748 21.7362V18.3205C43.5748 17.8124 43.4525 17.4078 43.1984 17.1067C42.9443 16.8056 42.5678 16.655 42.0596 16.655ZM42.8408 21.7644C42.8408 22.0655 42.7749 22.3007 42.6525 22.4701C42.5302 22.6395 42.3325 22.7242 42.0596 22.7242C41.7867 22.7242 41.5984 22.6395 41.4667 22.4701C41.3349 22.3007 41.269 22.0655 41.269 21.7644V18.2734C41.269 17.9723 41.3349 17.7371 41.4667 17.5677C41.5984 17.3984 41.7961 17.3137 42.0596 17.3137C42.3231 17.3137 42.5302 17.3984 42.6525 17.5677C42.7749 17.7371 42.8408 17.9723 42.8408 18.2734V21.7644ZM40.4126 32.8018H43.1325V32.1337H41.1561V29.7813H42.7655V29.1227H41.1561V26.8644H43.1325V26.1963H40.4126V32.8018ZM51.3016 13.1735H49.3158V10.8211H50.9252V10.1624H49.3158V7.90412H51.3016V7.23604H48.5817V13.8415H51.3016V13.1735ZM61.2024 26.1398C60.6942 26.1398 60.3177 26.2904 60.0636 26.5915C59.8189 26.8926 59.6872 27.2972 59.6872 27.8053V31.221C59.6872 31.7197 59.8095 32.1243 60.0636 32.4254C60.3083 32.7265 60.6942 32.8771 61.2024 32.8771C61.7106 32.8771 62.0965 32.7265 62.3412 32.4254C62.5953 32.1243 62.7177 31.7197 62.7177 31.221V27.8053C62.7177 27.2972 62.5953 26.8926 62.3412 26.5915C62.0871 26.2904 61.7106 26.1398 61.2024 26.1398ZM61.9836 31.2492C61.9836 31.5503 61.9177 31.7856 61.7953 31.9549C61.673 32.1243 61.4753 32.209 61.2024 32.209C60.9295 32.209 60.7413 32.1243 60.6095 31.9549C60.4777 31.7856 60.4119 31.5503 60.4119 31.2492V27.7583C60.4119 27.4572 60.4777 27.2219 60.6095 27.0526C60.7413 26.8926 60.9389 26.8079 61.2024 26.8079C61.4659 26.8079 61.673 26.8926 61.7953 27.0526C61.9177 27.2219 61.9836 27.4572 61.9836 27.7583V31.2492ZM60.0166 20.9081H59.3201V21.7644C59.3201 22.0655 59.2543 22.3007 59.1319 22.4701C59.0096 22.6395 58.8119 22.7242 58.539 22.7242C58.2661 22.7242 58.0778 22.6395 57.9555 22.4701C57.8331 22.3007 57.7673 22.0655 57.7673 21.7644V18.2734C57.7673 17.9723 57.8331 17.7371 57.9555 17.5677C58.0778 17.3984 58.2755 17.3137 58.539 17.3137C58.8025 17.3137 59.0096 17.3984 59.1319 17.5677C59.2543 17.7371 59.3201 17.9723 59.3201 18.2734V18.9039H60.0166V18.3111C60.0166 17.8124 59.8942 17.4078 59.6495 17.1067C59.4048 16.8056 59.0284 16.655 58.5202 16.655C58.2661 16.655 58.0496 16.6926 57.8614 16.7773C57.6731 16.8526 57.5226 16.9655 57.4002 17.1067C57.2779 17.2478 57.1837 17.4266 57.1273 17.6336C57.0708 17.8406 57.0426 18.0664 57.0426 18.3205V21.7362C57.0426 22.2443 57.1649 22.6395 57.4002 22.9406C57.6449 23.2417 58.012 23.3922 58.5202 23.3922C59.0284 23.3922 59.4048 23.2417 59.6495 22.9406C59.8942 22.6395 60.0166 22.2349 60.0166 21.7362V20.9175V20.9081ZM52.0733 29.1697H50.4546V26.1963H49.7205V32.8018H50.4546V29.8284H52.0733V32.8018H52.8074V26.1963H52.0733V29.1697ZM41.429 12.2513V7.23604H40.742V12.2796C40.742 12.5807 40.6855 12.8159 40.5632 12.9853C40.4408 13.1547 40.2526 13.2393 39.9797 13.2393C39.7068 13.2393 39.5091 13.1547 39.3868 12.9853C39.2644 12.8159 39.1985 12.5807 39.1985 12.2796V7.23604H38.4739V12.2513C38.4739 12.75 38.5962 13.1547 38.8315 13.4652C39.0668 13.7663 39.4432 13.9262 39.942 13.9262C40.4408 13.9262 40.8267 13.7757 41.062 13.4652C41.2973 13.1641 41.4196 12.7594 41.4196 12.2513H41.429ZM55.2921 21.7362C55.2921 21.4256 55.2356 21.1622 55.1321 20.9363C55.0191 20.7105 54.8874 20.5129 54.718 20.3341C54.558 20.1554 54.3791 19.9954 54.1815 19.8542C53.9933 19.7037 53.8145 19.5531 53.6451 19.4026C53.4851 19.252 53.3439 19.0827 53.231 18.8945C53.118 18.7157 53.071 18.4993 53.071 18.2546C53.071 17.9629 53.1274 17.7277 53.2498 17.5677C53.3721 17.4078 53.5604 17.3231 53.8239 17.3231C54.0874 17.3231 54.285 17.4078 54.398 17.5677C54.5203 17.7277 54.5768 17.9629 54.5768 18.264V18.4805H55.2732V18.3017C55.2732 17.803 55.1509 17.3984 54.9156 17.0973C54.6803 16.7961 54.3039 16.6456 53.805 16.6456C53.3062 16.6456 52.9392 16.7961 52.7039 17.0878C52.4686 17.3795 52.3463 17.7841 52.3463 18.2923C52.3463 18.6028 52.4027 18.8662 52.5157 19.0921C52.6192 19.3179 52.7604 19.5155 52.9298 19.6943C53.0898 19.8731 53.2686 20.033 53.4568 20.1836C53.6451 20.3341 53.8239 20.4847 53.9839 20.6352C54.1439 20.7858 54.285 20.9552 54.398 21.1339C54.5109 21.3127 54.5674 21.5291 54.5674 21.7738C54.5674 22.0749 54.5015 22.3101 54.3791 22.4701C54.2568 22.6395 54.0592 22.7148 53.7956 22.7148C53.5321 22.7148 53.3345 22.6301 53.2121 22.4701C53.0898 22.3101 53.0239 22.0749 53.0239 21.7738V21.3598H52.3369V21.7362C52.3369 22.2349 52.4592 22.6395 52.6945 22.9406C52.9298 23.2417 53.3062 23.3922 53.8145 23.3922C54.3227 23.3922 54.6991 23.2417 54.9438 22.9406C55.1885 22.6395 55.3109 22.2443 55.3109 21.7362H55.2921Z" fill="white"/>
</g>
<defs>
<clipPath id="clip0_43_2062">
<rect width="189" height="40" fill="white"/>
</clipPath>
</defs>
</svg>
