<svg width="120" height="40" viewBox="0 0 120 40" fill="none" xmlns="http://www.w3.org/2000/svg">
<g clip-path="url(#clip0_43_2077)">
<path d="M45.3584 32.2191H48.303V31.7398H45.8977V29.7796H48.226V29.3002H45.8977V27.3999H48.303V26.9206H45.3584V32.2106V32.2191ZM30.5243 18.9685C28.761 18.5063 27.6824 18.1639 27.6824 17.0939C27.6824 15.5617 28.5641 15.0653 30.5243 15.0653H34.1365V10.2375H29.1804C25.2258 10.2375 21.9987 12.6856 21.9645 16.5975H16.2037V27.477H9.63835L16.2037 16.5975V16.5632C25.5682 10.3574 25.4569 4.64796 17.7017 0.00854492L14.5517 5.10163C20.0385 7.25014 19.7732 7.78085 16.2037 16.5547V10.229H1.72908V15.0909H10.443L0 32.339H16.2037V33.5288C16.2037 34.7956 15.7073 35.138 14.5517 35.138C14.2863 35.138 14.1322 35.061 14.1322 35.061V40H14.7486C16.9399 40 18.8915 39.1954 20.2782 37.6632C21.5878 36.2422 21.9645 35.138 21.9645 32.5701V32.339H29.1804C33.135 32.339 36.4734 29.4629 36.4734 25.4825C36.4734 21.5022 34.8641 20.1155 30.5243 18.9685ZM27.9135 27.4684H21.9645V17.2394C21.9987 21.0742 23.6165 22.4524 27.9135 23.5994C29.6426 24.0188 30.7126 24.404 30.7126 25.474C30.7126 27.0062 29.8309 27.4684 27.9135 27.4684ZM53.1479 20.3809C53.1479 19.679 52.7456 19.0798 52.0864 18.823C51.8297 18.7289 51.4102 18.6689 50.8624 18.6689H49.4928V23.9589H50.0321V19.1483H50.9737C51.4616 19.1483 51.7612 19.1996 52.0265 19.3452C52.3775 19.542 52.6086 19.9443 52.6086 20.3467C52.6086 20.8602 52.309 21.2797 51.8125 21.4594C51.5557 21.5536 51.3845 21.5707 50.5714 21.5707L52.4032 23.9675H53.0708L51.5557 21.9901C52.4888 21.9388 53.1564 21.2711 53.1564 20.3895L53.1479 20.3809ZM42.3111 15.81C43.2442 15.81 43.9803 15.0396 43.9803 14.0638C43.9803 13.6358 43.8434 13.2591 43.5609 12.9681C43.3212 12.6942 43.0986 12.5829 42.4909 12.4117C42.1314 12.3176 41.9944 12.2662 41.8832 12.1806C41.6948 12.0608 41.5836 11.8468 41.5836 11.6156C41.5836 11.2048 41.926 10.8624 42.3283 10.8624C42.7306 10.8624 43.0302 11.1791 43.0644 11.6584H43.869C43.8519 11.3161 43.792 11.0935 43.6465 10.8538C43.3469 10.383 42.9103 10.1348 42.3625 10.1348C41.4466 10.1348 40.7789 10.811 40.7789 11.744C40.7789 12.1292 40.9073 12.4887 41.147 12.7455C41.3524 12.9681 41.4552 13.028 42.0544 13.2163L42.1314 13.242L42.2084 13.2763C42.3111 13.3105 42.2683 13.2934 42.3539 13.3191C42.5851 13.3961 42.6107 13.4046 42.7306 13.4646C43.0216 13.6101 43.1671 13.8583 43.1671 14.1665C43.1671 14.6801 42.7819 15.0738 42.2769 15.0738C41.9688 15.0738 41.6606 14.9112 41.5151 14.6629C41.4209 14.5089 41.3867 14.3719 41.3524 14.0809H40.5649C40.5649 14.5517 40.6677 14.8256 40.9073 15.1423C41.2412 15.5703 41.7205 15.8014 42.294 15.8014L42.3111 15.81ZM47.8836 23.3854C48.1575 23.0259 48.2859 22.5808 48.2859 21.9645V18.6689H47.7466V21.9645C47.7466 22.9403 47.2587 23.5309 46.4541 23.5309C45.6495 23.5309 45.1616 22.9403 45.1616 21.9645V18.6689H44.6223V21.9645C44.6223 22.5808 44.7507 23.0259 45.0246 23.3854C45.3499 23.8048 45.8806 24.0531 46.4541 24.0531C47.0276 24.0531 47.5583 23.8048 47.8836 23.3854ZM41.6092 21.545H43.7064V21.0657H41.6092V19.1483H43.792V18.6689H41.07V23.9589H41.6092V21.545ZM43.5951 29.4029C44.006 29.0948 44.1857 28.7781 44.1857 28.3415C44.1857 27.9307 43.9889 27.5369 43.6722 27.2801C43.364 27.0404 42.9788 26.9291 42.431 26.9291H41.0785V32.2191H42.431C43.1842 32.2191 43.501 32.1506 43.8605 31.911C44.2542 31.6542 44.4939 31.2005 44.4939 30.7297C44.4939 30.1134 44.1686 29.6341 43.5951 29.4029ZM41.6092 27.4085H42.3283C42.7905 27.4085 43.0815 27.4684 43.287 27.6311C43.501 27.7937 43.6379 28.0676 43.6379 28.3244C43.6379 28.6154 43.4582 28.915 43.2014 29.0605C42.9874 29.1804 42.7648 29.2232 42.2769 29.2232H41.6007V27.4171L41.6092 27.4085ZM43.364 31.6028C43.1329 31.7055 42.8504 31.7483 42.3539 31.7483H41.6007V29.694H42.2598C42.8333 29.694 43.0473 29.7197 43.3126 29.8138C43.6893 29.9593 43.9461 30.3188 43.9461 30.7297C43.9461 31.0807 43.6978 31.4487 43.364 31.6028ZM52.9253 28.6411C52.9253 27.9392 52.523 27.34 51.8639 27.0832C51.6071 26.9891 51.1877 26.9291 50.6398 26.9291H49.2703V32.2191H49.8095V27.4085H50.7511C51.2476 27.4085 51.5386 27.4599 51.804 27.6054C52.1549 27.8023 52.386 28.2046 52.386 28.6069C52.386 29.1205 52.0865 29.5399 51.59 29.7197C51.3332 29.8138 51.162 29.8309 50.3488 29.8309L52.1806 32.2277H52.8483L51.3332 30.2504C52.2662 30.199 52.9339 29.5313 52.9339 28.6497L52.9253 28.6411ZM51.3589 14.9711H49.4586V10.2375H48.6625V15.6987H51.3589V14.9711ZM105.534 13.165L107.357 15.7072H108.359L106.826 13.67C107.254 13.6101 107.46 13.5416 107.708 13.3875C108.136 13.1051 108.401 12.5915 108.401 12.0265C108.401 11.4616 108.222 11.0079 107.896 10.6997C107.563 10.3916 107.109 10.2461 106.433 10.2461H104.738V15.7072H105.534V13.165ZM105.534 10.9651H106.381C107.109 10.9651 107.597 11.3674 107.597 11.9837C107.597 12.3604 107.426 12.6599 107.109 12.8397C106.835 12.9938 106.57 13.0537 106.082 13.0537H105.534V10.9651ZM54.3634 26.9291H53.8241V32.2191H56.5889V31.7398H54.3634V26.9291ZM97.0083 11.4787L99.7389 15.7072H100.561V10.2461H99.7646V14.4061L97.0854 10.2461H96.2123V15.7072H97.0083V11.4787ZM102.256 15.6987H103.052V10.9651H104.096V10.2375H101.203V10.9651H102.264V15.6987H102.256ZM107.366 23.5908C108.162 23.12 108.675 22.2469 108.675 21.3139C108.675 20.4579 108.222 19.6362 107.494 19.1483C107.032 18.8401 106.39 18.6689 105.662 18.6689H104.122V23.9589H105.697C106.381 23.9589 106.938 23.8305 107.366 23.5823V23.5908ZM104.669 23.4881V19.1483H105.448C106.202 19.1483 106.672 19.251 107.083 19.4992C107.759 19.9015 108.136 20.5435 108.136 21.3139C108.136 21.9645 107.871 22.538 107.383 22.9488C106.903 23.3511 106.433 23.4881 105.448 23.4881H104.669ZM114.368 19.1483V18.6689H111.423V23.9589H114.368V23.4795H111.962V21.5194H114.291V21.04H111.962V19.1397H114.368V19.1483ZM114.727 11.0935L116.593 15.7072H117.081L118.947 11.0935V15.7072H119.743V10.2461H118.485L116.841 14.4318L115.189 10.2461H113.931V15.7072H114.727V11.0935ZM116.131 18.6689H115.403V23.9589H115.943V19.3024L119.144 23.9589H119.683V18.6689H119.144V23.0601L116.122 18.6689H116.131ZM67.3058 23.5908C68.1019 23.12 68.6154 22.2469 68.6154 21.3139C68.6154 20.4579 68.1618 19.6362 67.4342 19.1483C66.972 18.8401 66.33 18.6689 65.6024 18.6689H64.0616V23.9589H65.6366C66.3214 23.9589 66.8778 23.8305 67.3058 23.5823V23.5908ZM64.6009 23.4881V19.1483H65.3798C66.1331 19.1483 66.6039 19.251 67.0148 19.4992C67.691 19.9015 68.0676 20.5435 68.0676 21.3139C68.0676 21.9645 67.8023 22.538 67.3144 22.9488C66.835 23.3511 66.3642 23.4881 65.3798 23.4881H64.6009ZM52.8397 11.0935L54.7058 15.7072H55.1937L57.0597 11.0935V15.7072H57.8558V10.2461H56.5975L54.954 14.4318L53.3019 10.2461H52.0437V15.7072H52.8397V11.0935ZM47.7637 14.9711H45.6067V13.3105H47.7637V12.5829H45.6067V10.9651H47.7637V10.2375H44.8106V15.6987H47.7637V14.9711ZM47.2673 18.1382V17.2394H46.728V18.1382H47.2673ZM46.1887 18.1382V17.2394H45.6495V18.1382H46.1887ZM81.6092 21.4766H84.3912V23.9589H84.9305V18.6689H84.3912V20.9972H81.6092V18.6689H81.07V23.9589H81.6092V21.4766ZM75.7201 14.9711H73.563V13.3105H75.7201V12.5829H73.563V10.9651H75.7201V10.2375H72.767V15.6987H75.7201V14.9711ZM67.1603 15.0824C66.8521 15.0824 66.544 14.9197 66.3985 14.6715C66.3043 14.5174 66.2701 14.3805 66.2358 14.0894H65.4483C65.4483 14.5602 65.551 14.8341 65.7907 15.1509C66.1245 15.5788 66.6039 15.81 67.1774 15.81C68.1104 15.81 68.8466 15.0396 68.8466 14.0638C68.8466 13.6358 68.7096 13.2591 68.4271 12.9681C68.1875 12.6942 67.9649 12.5829 67.3572 12.4117C66.9976 12.3176 66.8607 12.2662 66.7494 12.1806C66.5611 12.0608 66.4498 11.8468 66.4498 11.6156C66.4498 11.2048 66.7922 10.8624 67.1945 10.8624C67.5968 10.8624 67.8964 11.1791 67.9307 11.6584H68.7353C68.7182 11.3161 68.6582 11.0935 68.5127 10.8538C68.2131 10.383 67.7766 10.1348 67.2288 10.1348C66.3129 10.1348 65.6452 10.811 65.6452 11.744C65.6452 12.1292 65.7736 12.4887 66.0133 12.7455C66.2187 12.9681 66.3214 13.028 66.9206 13.2163L66.9976 13.242L67.0747 13.2763C67.1774 13.3105 67.1346 13.2934 67.2202 13.3191C67.4513 13.3961 67.477 13.4046 67.5968 13.4646C67.8879 13.6101 68.0334 13.8583 68.0334 14.1665C68.0334 14.6801 67.6482 15.0738 67.1432 15.0738L67.1603 15.0824ZM57.5219 22.4096C57.5219 22.7006 57.5048 22.8718 57.462 23.0002C57.3507 23.3683 57.034 23.5823 56.6232 23.5823C56.1352 23.5823 55.7415 23.2056 55.6987 22.7092H55.1765C55.2108 23.4967 55.81 24.0531 56.606 24.0531C57.1453 24.0531 57.6075 23.8134 57.8558 23.4111C58.0098 23.1543 58.0612 22.9317 58.0612 22.401V18.6689H57.5219V22.401V22.4096ZM93.593 20.9287C93.1821 20.8174 92.9424 20.7062 92.7969 20.5863C92.6428 20.4579 92.5401 20.2183 92.5401 19.9871C92.5401 19.4564 92.9424 19.0456 93.4646 19.0456C93.9867 19.0456 94.3976 19.4308 94.4404 20.0043H95.0053C95.0053 19.1996 94.3548 18.5662 93.5245 18.5662C92.6428 18.5662 92.0009 19.1654 92.0009 20.0043C92.0009 20.3723 92.1378 20.7062 92.3775 20.9373C92.5915 21.1513 92.8312 21.2626 93.3875 21.3995C93.8326 21.5108 94.0295 21.5964 94.2178 21.759C94.449 21.9473 94.5859 22.2298 94.5859 22.5123C94.5859 23.0858 94.0894 23.5737 93.5159 23.5737C93.1821 23.5737 92.874 23.4282 92.6685 23.1971C92.5059 23.0088 92.4374 22.8119 92.3946 22.4695H91.8211C91.8639 23.4111 92.5401 24.0445 93.4903 24.0445C94.4404 24.0445 95.1252 23.3426 95.1252 22.4866C95.1252 22.0501 94.9197 21.6221 94.5945 21.3482C94.3548 21.1513 94.235 21.0999 93.593 20.9287ZM84.6737 14.3976L81.9944 10.2375H81.1213V15.6987H81.9174V11.4701L84.648 15.6987H85.4697V10.2375H84.6737V14.3976ZM91.6841 32.2191H94.6287V31.7398H92.2234V29.7796H94.5517V29.3002H92.2234V27.3999H94.6287V26.9206H91.6841V32.2106V32.2191ZM96.7687 23.9589H97.3079V19.1483H98.5406V18.6689H95.5275V19.1483H96.7601V23.9589H96.7687ZM99.3366 31.3203L96.315 26.9291H95.5874V32.2191H96.1267V27.5626L99.328 32.2191H99.8673V26.9291H99.328V31.3203H99.3366ZM89.1248 23.4881H86.7194V21.5279H89.0477V21.0486H86.7194V19.1483H89.1248V18.6689H86.1802V23.9589H89.1248V23.4795V23.4881ZM91.5215 10.9651V10.2375H88.3801V10.9651H90.6313L88.2602 14.9711V15.6987H91.6242V14.9711H89.1675L91.5215 10.9651ZM89.6469 27.4085C89.1847 27.1003 88.5427 26.9291 87.8151 26.9291H86.2743V32.2191H87.8493C88.5341 32.2191 89.0905 32.0907 89.5185 31.8425C90.3146 31.3717 90.8282 30.4986 90.8282 29.5656C90.8282 28.7096 90.3745 27.8878 89.6469 27.3999V27.4085ZM89.5356 31.2091C89.0563 31.6114 88.5855 31.7483 87.6011 31.7483H86.8222V27.4085H87.6011C88.3544 27.4085 88.8252 27.5112 89.236 27.7595C89.9123 28.1618 90.2889 28.8038 90.2889 29.5741C90.2889 30.2247 90.0235 30.7982 89.5356 31.2091ZM92.3604 15.6987H95.3135V14.9711H93.1564V13.3105H95.3135V12.5829H93.1564V10.9651H95.3135V10.2375H92.3604V15.6987ZM113.717 28.6411C113.717 27.9392 113.315 27.34 112.656 27.0832C112.399 26.9891 111.979 26.9291 111.432 26.9291H110.062V32.2191H110.601V27.4085H111.543C112.039 27.4085 112.33 27.4599 112.596 27.6054C112.947 27.8023 113.178 28.2046 113.178 28.6069C113.178 29.1205 112.878 29.5399 112.382 29.7197C112.125 29.8138 111.954 29.8309 111.141 29.8309L112.972 32.2277H113.64L112.125 30.2504C113.058 30.199 113.726 29.5313 113.726 28.6497L113.717 28.6411ZM110.173 18.6689H109.634V23.9589H110.173V18.6689ZM116.345 29.7881V30.2675H119.349C119.118 31.1663 118.168 31.8425 117.175 31.8425C115.874 31.8425 114.804 30.8239 114.804 29.6084C114.804 28.3929 115.857 27.3143 117.175 27.3143C117.946 27.3143 118.707 27.7338 119.067 28.3415H119.675C119.563 28.0334 119.332 27.7509 118.947 27.4427C118.434 27.0404 117.817 26.835 117.141 26.835C115.549 26.835 114.265 28.0676 114.265 29.5913C114.265 31.1149 115.592 32.3133 117.158 32.3133C118.725 32.3133 119.889 31.2176 120.009 29.7881H116.354H116.345ZM103.565 29.4029C103.976 29.0948 104.156 28.7781 104.156 28.3415C104.156 27.9307 103.959 27.5369 103.642 27.2801C103.334 27.0404 102.949 26.9291 102.401 26.9291H101.049V32.2191H102.401C103.154 32.2191 103.471 32.1506 103.831 31.911C104.224 31.6542 104.464 31.2005 104.464 30.7297C104.464 30.1134 104.139 29.6341 103.565 29.4029ZM101.579 27.4085H102.298C102.761 27.4085 103.052 27.4684 103.257 27.6311C103.471 27.7937 103.608 28.0676 103.608 28.3244C103.608 28.6154 103.428 28.915 103.171 29.0605C102.957 29.1804 102.735 29.2232 102.247 29.2232H101.571V27.4171L101.579 27.4085ZM103.343 31.6028C103.111 31.7055 102.829 31.7483 102.333 31.7483H101.579V29.694H102.238C102.812 29.694 103.026 29.7197 103.291 29.8138C103.668 29.9593 103.925 30.3188 103.925 30.7297C103.925 31.0807 103.676 31.4487 103.343 31.6028ZM102.521 23.3854C102.795 23.0259 102.923 22.5808 102.923 21.9645V18.6689H102.384V21.9645C102.384 22.9403 101.887 23.5309 101.091 23.5309C100.295 23.5309 99.7988 22.9403 99.7988 21.9645V18.6689H99.2596V21.9645C99.2596 22.5808 99.388 23.0259 99.6619 23.3854C99.9872 23.8048 100.518 24.0531 101.091 24.0531C101.665 24.0531 102.196 23.8048 102.521 23.3854ZM111.021 15.81C111.543 15.81 112.014 15.6216 112.382 15.2621C112.733 14.9197 112.887 14.5602 112.887 14.0295V10.2375H112.091V13.9182C112.091 14.3633 112.031 14.5517 111.817 14.7657C111.62 14.9711 111.355 15.0738 111.064 15.0738C110.755 15.0738 110.507 14.9797 110.31 14.7742C110.096 14.5517 110.011 14.312 110.011 13.9182V10.2375H109.215V14.0295C109.215 15.0225 110.011 15.81 111.021 15.81ZM108.401 30.2332C108.401 31.2091 107.905 31.7997 107.109 31.7997C106.313 31.7997 105.816 31.2091 105.816 30.2332V26.9377H105.277V30.2332C105.277 30.8495 105.406 31.2947 105.679 31.6542C106.005 32.0736 106.535 32.3218 107.109 32.3218C107.682 32.3218 108.213 32.0736 108.538 31.6542C108.812 31.2947 108.941 30.8495 108.941 30.2332V26.9377H108.401V30.2332ZM74.6244 28.6411C74.6244 27.9392 74.2221 27.34 73.563 27.0832C73.3062 26.9891 72.8868 26.9291 72.339 26.9291H70.9694V32.2191H71.5087V27.4085H72.4502C72.9467 27.4085 73.2377 27.4599 73.5031 27.6054C73.854 27.8023 74.0852 28.2046 74.0852 28.6069C74.0852 29.1205 73.7856 29.5399 73.2891 29.7197C73.0323 29.8138 72.8611 29.8309 72.0479 29.8309L73.8797 32.2277H74.5474L73.0323 30.2504C73.9653 30.199 74.633 29.5313 74.633 28.6497L74.6244 28.6411ZM62.7691 31.3203L59.7475 26.9291H59.0199V32.2191H59.5592V27.5626L62.7605 32.2191H63.2998V26.9291H62.7605V31.3203H62.7691ZM84.5709 31.3203L81.5493 26.9291H80.8217V32.2191H81.361V27.5626L84.5624 32.2191H85.1016V26.9291H84.5624V31.3203H84.5709ZM64.0531 30.4558H65.9362V29.9764H64.0531V30.4558ZM59.1911 18.6689V21.9645C59.1911 22.5808 59.3195 23.0259 59.5934 23.3854C59.9187 23.8048 60.4494 24.0531 61.0229 24.0531C61.5964 24.0531 62.1271 23.8048 62.4524 23.3854C62.7263 23.0259 62.8547 22.5808 62.8547 21.9645V18.6689H62.3154V21.9645C62.3154 22.9403 61.819 23.5309 61.0229 23.5309C60.2268 23.5309 59.7304 22.9403 59.7304 21.9645V18.6689H59.1911ZM60.2183 17.248V18.1468H60.7575V17.248H60.2183ZM59.8502 14.0894H61.819L62.4267 15.6987H63.2741L61.1941 10.2375H60.4751L58.395 15.6987H59.2425L59.8502 14.0894ZM60.8431 11.2733L61.5365 13.3618H60.1327L60.8346 11.2733H60.8431ZM69.1975 29.4029C69.6084 29.0948 69.7881 28.7781 69.7881 28.3415C69.7881 27.9307 69.5913 27.5369 69.2746 27.2801C68.9664 27.0404 68.5812 26.9291 68.0334 26.9291H66.6809V32.2191H68.0334C68.7866 32.2191 69.1034 32.1506 69.4629 31.911C69.8566 31.6542 70.0963 31.2005 70.0963 30.7297C70.0963 30.1134 69.771 29.6341 69.1975 29.4029ZM67.2202 27.4085H67.9392C68.4015 27.4085 68.6925 27.4684 68.8979 27.6311C69.1119 27.7937 69.2574 28.0676 69.2574 28.3244C69.2574 28.6154 69.0777 28.915 68.8209 29.0605C68.6069 29.1804 68.3843 29.2232 67.8964 29.2232H67.2202V27.4171V27.4085ZM68.975 31.6028C68.7438 31.7055 68.4614 31.7483 67.9649 31.7483H67.2116V29.694H67.8707C68.4443 29.694 68.6582 29.7197 68.9236 29.8138C69.3002 29.9593 69.557 30.3188 69.557 30.7297C69.557 31.0807 69.3088 31.4487 68.975 31.6028ZM61.2882 17.248V18.1468H61.8275V17.248H61.2882ZM77.2865 26.9291L74.9839 32.2191H75.5403L76.3278 30.4387H78.8273L79.6062 32.2191H80.1969L77.8857 26.9291H77.278H77.2865ZM76.5418 29.9593L77.6032 27.5369L78.639 29.9593H76.5504H76.5418ZM80.2653 12.018C80.2653 11.4701 80.0856 10.9993 79.7689 10.6912C79.4351 10.383 78.9814 10.2375 78.3052 10.2375H76.6103V15.6987H77.4064V13.1564L79.2296 15.6987H80.2311L78.6989 13.6614C79.1269 13.6015 79.3323 13.533 79.5806 13.379C80.0086 13.0965 80.2739 12.5829 80.2739 12.018H80.2653ZM78.9814 12.8483C78.7075 13.0023 78.4421 13.0623 77.9542 13.0623H77.4064V10.9737H78.2538C78.9814 10.9737 79.4693 11.376 79.4693 11.9923C79.4693 12.3689 79.2981 12.6685 78.9814 12.8483ZM77.6889 24.0531C78.7075 24.0531 79.6576 23.4795 80.1626 22.5722H79.5634C79.3666 22.829 79.2296 22.966 79.0499 23.1115C78.6732 23.3939 78.1339 23.5823 77.6974 23.5823C76.4819 23.5823 75.4119 22.538 75.4119 21.331C75.4119 20.1241 76.4648 19.0541 77.6717 19.0541C78.425 19.0541 79.1355 19.4308 79.5463 20.0299H80.1455C80.0257 19.7475 79.8202 19.4992 79.4778 19.2168C78.9728 18.8059 78.348 18.5833 77.706 18.5833C76.0967 18.5833 74.8727 19.7903 74.8727 21.3482C74.8727 22.906 76.131 24.0616 77.6974 24.0616L77.6889 24.0531ZM72.5872 23.5823C72.2534 23.5823 71.9452 23.4367 71.7398 23.2056C71.5771 23.0173 71.5087 22.8204 71.4659 22.478H70.8924C70.9352 23.4196 71.6114 24.0531 72.5615 24.0531C73.5117 24.0531 74.1964 23.3512 74.1964 22.4952C74.1964 22.0586 73.991 21.6306 73.6657 21.3567C73.4261 21.1598 73.3062 21.1085 72.6642 20.9373C72.2534 20.826 72.0137 20.7147 71.8682 20.5949C71.7141 20.4665 71.6114 20.2268 71.6114 19.9957C71.6114 19.465 72.0137 19.0541 72.5358 19.0541C73.058 19.0541 73.4689 19.4393 73.5117 20.0128H74.0766C74.0766 19.2082 73.4261 18.5748 72.5958 18.5748C71.7141 18.5748 71.0721 19.174 71.0721 20.0128C71.0721 20.3809 71.2091 20.7147 71.4487 20.9458C71.6627 21.1598 71.9024 21.2711 72.4588 21.4081C72.9039 21.5194 73.1008 21.6049 73.2891 21.7676C73.5202 21.9559 73.6572 22.2384 73.6572 22.5208C73.6572 23.0944 73.1607 23.5823 72.5872 23.5823ZM71.0807 15.6987V10.9651H72.125V10.2375H69.2318V10.9651H70.2932V15.6987H71.0892H71.0807ZM69.5656 23.9589H70.1049V18.6689H69.5656V23.9589ZM57.3251 32.2191H57.8643V26.9291H57.3251V32.2191Z" fill="white"/>
</g>
<defs>
<clipPath id="clip0_43_2077">
<rect width="120" height="40" fill="white"/>
</clipPath>
</defs>
</svg>
