<svg width="123" height="40" viewBox="0 0 123 40" fill="none" xmlns="http://www.w3.org/2000/svg">
<g clip-path="url(#clip0_43_2068)">
<path d="M82.2277 16.7179C80.3666 16.1709 77.7885 15.0598 76.5762 13.8462C75.4664 12.6496 75.2786 11.2479 75.2786 9.67521C75.2786 7.96581 76.764 4.99145 80.469 4.99145C82.6033 4.99145 84.0716 5.64103 85.2839 6.94017C86.94 8.70085 87.6913 10.547 88.1523 11.8462C88.2376 12.1197 88.4255 12.1709 88.6133 12.1197L89.3475 11.8803C89.5353 11.8291 89.6206 11.7436 89.6206 11.5556C89.6206 11.094 88.8865 4.59829 88.8865 3.86325C88.8865 3.40171 88.784 3.12821 88.5108 3.12821C88.2376 3.12821 88.0498 3.21368 87.862 3.40171L87.2644 4C87.0254 4.22222 86.7522 4.32479 86.2912 4.13675C85.3522 3.76068 83.5082 3.02564 80.452 3.02564C77.7714 3.02564 75.7225 3.67521 73.8785 5.24786C71.6589 7.00855 70.6345 9.1453 70.6345 11.7436C70.6345 14.5812 71.3858 16.8889 72.9566 18.3761C75.1762 20.4274 78.2324 21.7094 79.7178 22.2735C84.618 24.1197 86.5644 25.5214 86.5644 29.7778C86.5644 33.6239 83.0301 35.1966 80.5373 35.1966C78.2153 35.1966 75.8079 34.0855 74.4249 31.8632C73.1273 29.8291 72.7517 28.0684 72.6663 26.5812C72.6663 26.2906 72.5809 26.2051 72.3931 26.2051L72.4273 26.2393L71.4028 26.1538C71.215 26.1538 71.1809 26.2564 71.1297 26.5299C71.0272 27.0769 70.3784 34.5812 70.293 35.1453C70.293 35.6068 70.4808 35.8803 70.8565 35.8803C71.2321 35.8803 71.4199 35.7778 71.6931 35.3162C71.9663 34.8547 72.1541 34.4786 72.4273 34.4786C72.7004 34.4786 72.9736 34.6667 73.5371 35.0427C75.381 36.4273 77.6177 37.265 81.4081 37.265C87.5205 37.265 91.2256 32.6325 91.2256 26.9744C91.2256 23.8632 90.389 21.9145 88.9035 20.3419C87.1278 18.4786 84.9082 17.5556 82.2277 16.7179ZM122.863 28.9744H122.829L122.044 28.2735C121.89 28.1368 121.719 28.2735 121.48 28.5983C119.534 31.4359 115.505 33.9829 110.417 33.9829C108.18 33.9829 105.499 33.6068 102.443 30.359C99.0283 26.6496 98.1917 21.1795 98.1917 18.3077C98.1917 11.641 101.248 4.95727 108.658 4.95727C112.278 4.95727 114.685 6.44444 116.717 8.39316C118.663 10.4444 119.773 12.7521 120.336 14.4274C120.473 14.8034 120.61 14.9744 120.849 14.8889L121.737 14.6154C121.924 14.5641 121.976 14.4274 121.924 14.1538C121.737 12.7692 120.815 5.35043 120.815 4.51282C120.815 3.86325 120.712 3.77778 120.166 3.77778C119.619 3.77778 119.517 3.77778 119.432 4.05128L119.056 5.24786C118.971 5.62393 118.783 5.62393 118.134 5.24786C116.461 4.32479 113.029 3.02564 108.777 3.02564C103.228 3.02564 99.2332 5.24786 96.7404 7.93162C93.4964 11.453 92.011 15.812 92.011 20.359C92.011 24.4274 93.5818 29.812 97.0136 32.8718C99.8991 35.4701 103.228 37.2308 109.153 37.2308C115.727 37.2308 120.166 33.4188 122.949 29.4359C123.051 29.2479 123 29.1111 122.863 28.9744ZM71.0955 5.02564V3.96581C71.0955 3.7265 71.0443 3.58974 70.6345 3.58974C70.2589 3.58974 68.7735 3.7265 65.9051 3.7265C62.8488 3.7265 60.7146 3.58974 60.2536 3.58974C59.9634 3.58974 59.878 3.69231 59.878 3.96581V5.12821C59.878 5.31624 59.9804 5.45299 60.2536 5.45299H61.9268C62.9342 5.45299 63.6855 6.2906 63.822 7.48718C63.9586 8.54701 64.3343 12.6325 64.3343 16.3419V24.6838C64.3343 28.0684 63.4123 30.7521 61.6537 32.5128C60.1853 33.8974 57.6755 34.735 55.4559 34.735C53.2363 34.735 50.7264 34 49.1556 31.8632C48.0458 30.3932 47.6702 28.2564 47.5336 26.1197C47.4482 24.6325 47.397 21.3504 47.397 19.0256V13.2821C47.397 10.5812 47.4824 7.81197 47.5336 7.24786C47.5848 6.2735 48.4214 5.4359 49.8044 5.4359H51.7508C52.0411 5.4359 52.1265 5.33333 52.1265 5.05983V3.89744C52.1265 3.65812 52.024 3.57265 51.7508 3.57265C51.1874 3.57265 48.9678 3.7094 45.075 3.7094C40.6187 3.7094 38.3991 3.57265 37.9381 3.57265C37.5625 3.57265 37.4771 3.67521 37.4771 3.94872V5.00855C37.4771 5.33333 37.5795 5.4188 37.8527 5.4188H39.987C41.1821 5.4188 41.5577 6.17094 41.5577 7.74359H41.5407V18.735C41.5407 24.8205 41.7285 27.8803 42.3773 29.9145C43.2993 32.8718 45.1603 35.0085 47.8409 36.1197C49.6166 36.8547 52.2972 37.2308 54.5168 37.2308C58.0511 37.2308 61.0049 36.1197 62.9513 34.359C65.4611 32.1368 66.5709 29.2479 66.8441 25.453C67.0319 23.6068 67.1173 15.5385 67.1173 14.8889C67.1173 14.2906 67.1173 7.81197 67.2027 7.24786C67.3051 6.73504 67.4758 5.4359 69.1491 5.4359H70.8223C71.0443 5.4359 71.0955 5.29915 71.0955 5.02564ZM23.818 17.6239L23.8863 17.3846L23.6302 17.4188C23.6302 17.4188 23.2546 17.4872 22.8619 17.9145C22.4692 17.2821 21.8375 16.8889 21.8033 16.8718L21.1716 16.4957L21.5813 17.094C21.6496 17.1966 21.8375 17.5556 21.7692 17.7949C21.7179 17.9145 21.6667 18.0171 21.5984 18.1026C21.1886 17.6752 20.5569 17.5043 20.5228 17.5043L20.1984 17.4188L20.335 17.7265C20.5228 18.1538 20.3691 18.4444 20.2154 18.7692C20.0959 19.0256 19.9593 19.2991 19.9593 19.6581C19.9593 20.1026 20.1813 20.3932 20.4032 20.5641C20.2496 20.7009 20.1471 20.906 20.1471 21.1282C20.1471 21.4188 20.3179 21.6752 20.5569 21.7949C20.5911 22.188 20.7618 22.4273 20.9838 22.547L21.2057 27.5385C20.8984 27.6068 20.6764 27.8632 20.6764 28.188C20.6764 28.5299 20.9325 28.8034 21.2569 28.8547L21.3594 30.9402C21.3594 31.265 21.6155 31.5214 21.9399 31.5214C22.2643 31.5214 22.5204 31.265 22.5204 30.9402L22.6228 28.8547C22.9643 28.8205 23.2375 28.5299 23.2375 28.188C23.2375 27.8462 22.9985 27.5897 22.6911 27.5214L22.9131 22.5299C22.9131 22.5299 23.0497 22.4615 23.1009 22.4103C23.2546 22.2564 23.3229 22.0342 23.34 21.7607C23.3912 21.7265 23.4595 21.6923 23.4936 21.6581C23.6302 21.5214 23.7156 21.3162 23.7156 21.1111C23.7156 20.906 23.6131 20.7179 23.4936 20.5812C23.8692 20.359 24.2619 19.9145 24.0571 19.2479C24.0571 19.2479 23.5961 18.3419 23.818 17.6239ZM21.6155 18.5983C21.8033 18.3932 21.957 18.2222 22.0765 17.9145H22.1106C22.1619 17.7949 22.1619 17.6581 22.1277 17.5214C22.4692 17.8291 22.8619 18.3077 22.8619 18.906C22.8619 19.641 22.4009 20.188 22.2131 20.3932H22.0936C21.9399 20.188 21.6667 19.7436 21.957 19.2308C22.0082 19.1282 22.2814 18.7179 22.3155 18.6325C22.3667 18.5299 22.3497 18.4444 22.3497 18.4444C22.2984 18.5128 22.2302 18.5983 22.2302 18.5983C22.1448 18.6838 21.8887 18.9573 21.8033 19.0598C21.3594 19.5897 21.6667 20.188 21.7692 20.3761H21.3935C20.7447 19.4872 21.4448 18.8034 21.4789 18.7521C21.5301 18.7009 21.5813 18.6496 21.6155 18.5983ZM20.3179 19.6923H20.3008C20.3008 19.4188 20.4203 19.1966 20.5228 18.9573C20.6594 18.6667 20.813 18.359 20.7618 17.9658C20.9667 18.0513 21.2228 18.188 21.4106 18.3932C21.3594 18.4444 21.3082 18.4957 21.274 18.547C21.274 18.547 20.4374 19.3675 21.035 20.3932H20.9325C20.9325 20.3932 20.813 20.3932 20.7618 20.4103C20.6764 20.3761 20.3179 20.188 20.3179 19.6923ZM22.2131 30.9744C22.2131 31.1282 22.0936 31.2308 21.957 31.2308H21.9399C21.8033 31.2308 21.6838 31.1111 21.6838 30.9573L21.5984 28.906H22.3155L22.2131 30.9744ZM22.9131 28.2222H22.896C22.896 28.4103 22.7424 28.5812 22.5375 28.5812H21.3423C21.1545 28.5812 20.9838 28.4274 20.9838 28.2222C20.9838 28.0171 21.1374 27.8632 21.3423 27.8632H22.5546C22.7424 27.8632 22.9131 28.0171 22.9131 28.2222ZM21.2911 22.6667H22.5887L22.3667 27.5385H21.5131L21.2911 22.6667ZM22.8619 22.2051C22.8619 22.2051 22.6741 22.3248 22.5546 22.3248H21.2911C21.0862 22.3248 20.9325 22.1709 20.8813 21.9145H22.9985C22.9985 22.0342 22.9302 22.1368 22.8619 22.2051ZM23.2887 21.453C23.2887 21.453 23.1009 21.5897 22.9814 21.5897H20.9155C20.6764 21.5897 20.4715 21.4017 20.4715 21.1453C20.4715 20.906 20.6764 20.7009 20.9155 20.7009H22.9814C23.2204 20.7009 23.4253 20.8889 23.4253 21.1453C23.4253 21.265 23.3741 21.3675 23.2887 21.453ZM23.1351 20.3932C23.1351 20.3932 23.0155 20.3761 22.9643 20.3761H22.6399C22.879 20.0684 23.1863 19.5385 23.1863 18.8889C23.1863 18.6154 23.0668 18.188 23.0668 18.188C23.2034 18.0171 23.34 17.9145 23.4424 17.8462C23.357 18.5983 23.7497 19.3504 23.7668 19.3675C23.9546 20.0171 23.3058 20.3248 23.1521 20.3932H23.1351ZM11.1834 19.2991C11.1834 19.2991 10.7053 18.3932 10.9443 17.6752L11.0297 17.4359L10.7736 17.4701C10.7736 17.4701 10.398 17.5385 10.0053 17.9658C9.61258 17.3333 8.98084 16.9402 8.9467 16.9231L8.33204 16.5641L8.72474 17.1624C8.79303 17.2821 8.98084 17.6239 8.91255 17.8632C8.86133 17.9829 8.81011 18.0855 8.74181 18.1709C8.33204 17.7436 7.7003 17.5726 7.66616 17.5726L7.34175 17.4872L7.47835 17.7949C7.66616 18.2051 7.51249 18.5128 7.35883 18.8376C7.23931 19.094 7.10272 19.3675 7.10272 19.7265C7.10272 20.2051 7.34175 20.4957 7.54664 20.6325C7.54664 20.6325 7.52957 20.6325 7.51249 20.6496C7.3759 20.7863 7.29053 20.9915 7.29053 21.1966C7.29053 21.4872 7.46127 21.7436 7.70031 21.8632C7.73445 22.2051 7.88812 22.4786 8.12715 22.6154L8.34911 27.6068C8.04178 27.6752 7.81982 27.9316 7.81982 28.2564C7.81982 28.5983 8.07593 28.8718 8.40033 28.9231L8.50278 31.0085C8.50278 31.3333 8.77596 31.6068 9.08329 31.6068C9.39062 31.6068 9.6638 31.3333 9.6638 31.0256L9.76624 28.9402C9.91991 28.9402 10.0736 28.8718 10.176 28.7521C10.3126 28.6154 10.3809 28.4444 10.3809 28.2735C10.3809 27.9487 10.1419 27.6752 9.83454 27.6068L10.0565 22.6325C10.0565 22.6325 10.1931 22.5641 10.2614 22.5128C10.415 22.3761 10.4833 22.1538 10.5004 21.8803C10.7224 21.7436 10.8931 21.5043 10.8931 21.2137C10.8931 20.9915 10.7907 20.8034 10.6541 20.6496H10.6199C10.9956 20.4103 11.3712 19.9658 11.1834 19.2991ZM8.74181 18.6496C8.92962 18.4444 9.08329 18.2735 9.2028 17.9658H9.23695C9.28817 17.8462 9.28817 17.7094 9.25403 17.5726C9.5955 17.8803 9.9882 18.359 9.9882 18.9573C9.9882 19.6923 9.52721 20.2393 9.33939 20.4444H9.21988C9.06621 20.2393 8.79303 19.7949 9.08329 19.2821C9.13451 19.1795 9.40769 18.7692 9.44184 18.6838C9.47599 18.5812 9.47599 18.4957 9.47599 18.4957C9.42476 18.5641 9.35647 18.6496 9.35647 18.6496C9.2711 18.735 9.01499 19.0085 8.92962 19.1111C8.4857 19.641 8.79303 20.2393 8.89548 20.4274H8.51985C7.87104 19.5385 8.57107 18.8547 8.60522 18.8034C8.65644 18.7521 8.70766 18.7009 8.74181 18.6496ZM7.4442 19.7436H7.42712C7.42712 19.4701 7.52957 19.2479 7.64908 19.0085C7.78568 18.7179 7.93934 18.4103 7.88812 18.0171C8.093 18.1026 8.34911 18.2393 8.53692 18.4444C8.4857 18.4957 8.43448 18.547 8.40033 18.5983C8.40033 18.5983 7.56371 19.4188 8.1613 20.4444H8.05886C8.05886 20.4444 7.95641 20.4615 7.90519 20.4786C7.87104 20.4786 7.4442 20.2906 7.4442 19.7436ZM9.33939 31.0256C9.33939 31.1624 9.21988 31.2821 9.08329 31.2821C8.9467 31.2821 8.82718 31.1624 8.82718 31.0085L8.74181 28.9573H9.45891L9.35647 31.0256H9.33939ZM10.0394 28.2735C10.0394 28.3761 10.0053 28.4615 9.93698 28.5299C9.86868 28.5983 9.78331 28.6325 9.68087 28.6325H8.4857C8.29789 28.6325 8.12715 28.4786 8.12715 28.2735C8.12715 28.0684 8.28082 27.9145 8.4857 27.9145H9.68087C9.88576 27.9145 10.0394 28.0684 10.0394 28.2735ZM8.43448 22.7179H9.71502L9.49306 27.5897H8.65644L8.43448 22.7179ZM10.0053 22.2735C10.0053 22.2735 9.81746 22.3761 9.68087 22.3761H8.41741C8.21252 22.3761 8.05886 22.2222 8.00764 21.9658H10.1248C10.1077 22.0855 10.0736 22.2051 10.0053 22.2735ZM10.0906 21.6239H10.1077H8.04178C7.80275 21.6239 7.59786 21.4359 7.59786 21.1966C7.59786 21.0769 7.64908 20.9744 7.71738 20.8889C7.80275 20.8034 7.90519 20.7521 8.02471 20.7521H10.0906C10.3297 20.7521 10.5346 20.9402 10.5346 21.1966C10.5346 21.4359 10.3297 21.641 10.0906 21.641V21.6239ZM10.2614 20.4444C10.2614 20.4444 10.1419 20.4274 10.0906 20.4274H9.76624C10.0053 20.1026 10.3126 19.5897 10.3126 18.9402C10.3126 18.6667 10.1931 18.2393 10.1931 18.2393H10.176C10.3126 18.0684 10.4492 17.9658 10.5516 17.8974C10.4663 18.6496 10.859 19.4017 10.876 19.4188C11.0639 20.0684 10.415 20.3761 10.2614 20.4444ZM18.1324 19.3162C18.1324 19.3162 17.7568 18.359 18.0812 17.3333L18.1495 17.094L17.8934 17.1282C17.8934 17.1282 17.4324 17.1966 16.9202 17.7436C16.425 16.7009 15.3494 16.0513 15.2982 16.0171L14.7518 15.6923L15.0762 16.2393C15.0762 16.2393 15.4348 16.8547 15.2811 17.2821C15.2128 17.4701 15.1274 17.6068 15.0421 17.7436C14.4786 17.1453 13.6079 16.9402 13.5737 16.9231L13.2493 16.8547L13.3859 17.1624C13.6591 17.7778 13.4371 18.2051 13.2152 18.6838C13.0444 19.0427 12.8566 19.4188 12.8566 19.8974C12.8566 20.547 13.1981 20.9573 13.5054 21.1624C13.2664 21.3504 13.1127 21.641 13.1127 21.9658C13.1127 22.359 13.3517 22.7009 13.6762 22.8718C13.7274 23.2479 13.9493 23.6239 14.2737 23.812L14.5981 30.9744C14.1884 31.0427 13.864 31.4188 13.864 31.8462C13.864 32.3077 14.2225 32.6838 14.6835 32.735L14.8201 35.6923C14.8201 35.8974 14.9055 36.0855 15.0421 36.2222C15.1787 36.359 15.3665 36.4444 15.5713 36.4444C15.7762 36.4444 15.964 36.359 16.1006 36.2222C16.2372 36.0855 16.3226 35.8803 16.3226 35.6923L16.4592 32.735C16.9373 32.7179 17.3129 32.3248 17.3129 31.8462C17.3129 31.4017 16.9714 31.0256 16.5446 30.9744L16.869 23.7949C17.1934 23.6068 17.4324 23.2137 17.4665 22.8547C17.5519 22.8034 17.6373 22.7521 17.7056 22.6838C17.8934 22.4957 17.9958 22.2393 17.9958 21.9658C17.9958 21.6239 17.8251 21.3162 17.5519 21.1282V21.094C17.9105 20.8376 18.3885 20.2564 18.1324 19.3162ZM15.5713 17.4017C15.6567 17.1624 15.6226 16.8889 15.5713 16.6496C16.0836 17.0598 16.8348 17.8291 16.8348 18.8034C16.8348 19.8632 16.1519 20.6838 15.8958 20.9402H15.8104C15.6738 20.735 15.5201 20.4103 15.5201 20.0342C15.5201 19.3162 15.8616 18.8889 15.8616 18.8889C15.8616 18.8889 15.4177 19.1966 15.3494 19.8462C15.3152 20.1709 15.3835 20.4957 15.5884 20.9231H15.1616C15.0079 20.6838 14.564 20 15.025 19.2308C15.1104 19.094 15.5714 18.4957 15.6055 18.3932C15.6567 18.2564 15.6567 18.1368 15.6567 18.1368C15.5884 18.2393 15.486 18.359 15.486 18.359C15.3835 18.4786 15.0079 18.8718 14.8884 19.0085C14.2225 19.8291 14.7689 20.7179 14.8884 20.9231H14.6323C13.642 19.6239 14.6835 18.6154 14.7347 18.547C14.803 18.4786 14.8713 18.3932 14.9225 18.3419C15.1787 18.0684 15.4006 17.8291 15.5543 17.4017H15.5713ZM13.181 19.8974C13.181 19.5043 13.3347 19.1795 13.5054 18.8376C13.7274 18.3932 13.9323 17.9487 13.7957 17.3504C14.0859 17.453 14.5128 17.6581 14.8372 18.0171C14.803 18.0513 14.7689 18.1026 14.7177 18.1368C14.6494 18.2051 14.5811 18.2735 14.5298 18.3419C14.5298 18.3419 13.3347 19.5043 14.2567 20.9402H14.1201C14.1201 20.9402 13.9493 20.9402 13.864 20.9744C13.7957 20.9402 13.181 20.6838 13.181 19.8974ZM15.9982 35.6923C15.9982 35.7949 15.947 35.8974 15.8787 35.9829C15.7933 36.0684 15.6909 36.1026 15.5713 36.1026C15.4518 36.1026 15.3494 36.0513 15.264 35.9829C15.1786 35.8974 15.1445 35.7949 15.1445 35.6752L15.0079 32.735H16.1348L15.9982 35.6923ZM16.9885 31.8291C16.9885 32.1368 16.7324 32.3932 16.425 32.3932H14.7518C14.4445 32.3932 14.1884 32.1368 14.1884 31.8291C14.1884 31.5214 14.4445 31.265 14.7518 31.265H16.425C16.7324 31.265 16.9885 31.5214 16.9885 31.8291ZM14.5981 23.8974H16.5275L16.2031 30.9402H14.9225L14.5981 23.8974ZM16.4421 23.5726H14.6835C14.4103 23.5726 14.1542 23.265 14.0518 22.9402H17.1251C17.0226 23.2479 16.7324 23.5726 16.4421 23.5726ZM17.7056 21.9487C17.7056 22.1368 17.6373 22.3077 17.5007 22.4274C17.3641 22.5641 17.1934 22.6325 17.0226 22.6325H14.1371C13.7615 22.6325 13.4542 22.3248 13.4542 21.9487C13.4542 21.5727 13.7615 21.265 14.1371 21.265H17.0226C17.3983 21.265 17.7056 21.5727 17.7056 21.9487ZM17.1934 20.9402C17.1934 20.9402 17.0568 20.9231 16.9885 20.9231H16.3397C16.6811 20.5128 17.1763 19.7436 17.1592 18.7863C17.1592 18.5299 17.108 18.3077 17.0397 18.0855C17.2787 17.812 17.4836 17.6581 17.6544 17.5726C17.4495 18.5983 17.791 19.4188 17.791 19.4359C18.0641 20.3761 17.3983 20.8376 17.1934 20.9402ZM30.9549 7.81197C30.8866 6.94017 30.7841 6.03419 30.6476 5.11111L30.5451 4.47863C30.4939 4.13675 30.4256 3.81197 30.3402 3.47009L30.2719 3.17949L29.9988 3.26496C29.9988 3.26496 29.5378 3.40171 28.7865 3.52137L26.9596 3.7265C26.6011 3.74359 26.2084 3.76068 25.7986 3.76068C24.74 3.76068 23.6985 3.65812 22.6911 3.48718L22.0423 3.36752H22.0082C22.0082 3.36752 21.4789 3.24786 20.6935 2.99145L19.8398 2.66667C18.9861 2.32479 17.9788 1.82906 16.9714 1.16239L16.1348 0.547009C15.9811 0.42735 15.8275 0.290598 15.6738 0.153846L15.486 0L15.3152 0.17094C15.3152 0.17094 15.1616 0.307692 14.8713 0.547009L14.0176 1.16239C13.3176 1.62393 12.3444 2.18803 11.1321 2.66667L10.2785 2.99145C9.86868 3.12821 9.44184 3.26496 8.98084 3.38462H8.9467L8.21252 3.53846C7.34175 3.69231 6.40269 3.77778 5.41241 3.77778C4.93434 3.77778 4.45627 3.77778 4.02943 3.7265L2.20253 3.52137C1.48542 3.40171 1.02443 3.29915 1.02443 3.29915L0.751249 3.23077L0.682954 3.50427C0.631732 3.77778 0.580511 4.05128 0.529289 4.30769L0.392699 5.12821C0.256108 6.03419 0.153665 6.92308 0.0853692 7.77778L0.0341477 8.71795C0.0170738 9.17949 0 9.62393 0 10.0513V10.9573C0.0512215 13.5214 0.358551 15.2821 0.392699 15.4188C0.426846 15.641 0.956135 19.7607 3.005 24.735C4.93434 29.4017 8.62229 35.7949 15.2469 39.8291L15.5372 40L15.8275 39.8291C22.4521 35.7778 26.123 29.3846 28.0353 24.7009C30.067 19.7265 30.5963 15.5897 30.6305 15.3846C30.6646 15.2479 30.9549 13.5043 31.0061 10.9573V10.0513C31.0061 9.62393 31.0061 9.17949 30.989 8.73504H31.0061L30.9549 7.81197ZM30.511 7.88034L20.9325 10.5641C20.7618 10.3077 20.574 10.0684 20.3862 9.82906L30.2207 5.26496C30.3573 6.17094 30.4597 7.04274 30.511 7.88034ZM21.3765 13.2137C20.5057 13.1795 19.3447 13.0256 18.0471 12.5812C17.6544 12.4444 17.1421 12.2735 16.5958 12.188C16.2885 12.1368 15.9982 12.1026 15.7079 12.1026H15.6909C15.486 12.0855 15.264 12.0855 15.0591 12.1368C14.4274 12.2222 13.8298 12.4103 13.3517 12.5812C12.0371 13.0427 10.8419 13.1966 9.97113 13.2308C10.3638 10.3761 12.7712 8.25641 15.6738 8.25641C18.5763 8.25641 20.9838 10.4103 21.3765 13.2137ZM27.8133 4.11966C28.8207 4.03419 29.5719 3.88034 29.9475 3.77778C29.9817 3.94872 30.0158 4.11966 30.05 4.2906L20.1471 9.58974L19.8398 9.28205L27.8133 4.11966ZM22.8107 3.94872C23.8009 4.13675 24.8424 4.23932 25.901 4.22222H26.2767L19.6179 9.09402C19.3447 8.8718 19.0544 8.68376 18.7642 8.49573L22.8107 3.94872ZM20.5569 3.38462C21.1203 3.57265 21.5643 3.7094 21.8033 3.76068L18.4056 8.32479C18.2349 8.23932 18.0641 8.17094 17.8763 8.08547L20.5569 3.38462ZM17.0397 1.69231C17.9958 2.30769 18.9178 2.76923 19.7374 3.07692L17.5007 7.94872C17.0909 7.81197 16.6641 7.7265 16.2202 7.69231L17.0397 1.69231ZM15.6055 0.649573C15.8104 0.820513 15.9982 0.974359 16.2031 1.12821L15.8445 7.67521H15.3835L15.025 1.11111C15.2811 0.923077 15.4689 0.752137 15.6055 0.649573ZM14.1884 1.69231L15.0079 7.69231C14.564 7.74359 14.1201 7.82906 13.7103 7.96581L11.4736 3.07692C12.6005 2.63248 13.4883 2.11966 14.1884 1.69231ZM10.637 3.38462L13.3176 8.08547C13.1298 8.15385 12.9591 8.23932 12.7883 8.32479L9.39062 3.77778C9.83454 3.65812 10.2272 3.53846 10.637 3.38462ZM5.49778 4.25641C6.52221 4.2735 7.49542 4.18803 8.40033 4.01709L12.4298 8.52991C12.1224 8.70085 11.8322 8.90598 11.559 9.12821L4.90019 4.25641H5.49778ZM1.24639 3.84615C1.62202 3.93162 2.37327 4.06838 3.3294 4.17094L11.32 9.33333C11.2175 9.4359 11.1151 9.53846 11.0126 9.64103L1.14395 4.34188C1.1781 4.17094 1.21224 4.01709 1.24639 3.84615ZM0.973209 5.31624L10.8077 9.86325C10.6199 10.0855 10.4492 10.3077 10.2955 10.547L0.700028 7.86325C0.751249 7.04274 0.836619 6.18803 0.973209 5.31624ZM0.631732 8.76923L10.0906 10.8376C10.0053 10.9915 9.93698 11.1282 9.85161 11.2821L0.597585 10.0513C0.597585 9.64103 0.597585 9.21368 0.631732 8.76923ZM0.631732 10.9573L9.73209 11.6239C9.52721 12.1197 9.39062 12.6496 9.32232 13.2137C8.58815 13.1795 7.61494 12.9402 6.74417 12.6838L5.66852 12.3761C5.12215 12.2222 4.20017 12.1026 3.53429 12.1026C2.56108 12.1026 1.57079 12.3419 0.717102 12.7521C0.682954 12.2222 0.648806 11.6068 0.631732 10.9573ZM27.523 24.5299L27.5913 24.4615C25.7132 29.0598 22.1106 35.3504 15.6055 39.3162C9.10036 35.3675 5.48071 29.0769 3.58551 24.4957C1.84398 20.2735 1.21224 16.6667 1.0415 15.6239C1.8269 15.1795 2.59522 14.9744 3.46599 14.9744C4.08065 14.9744 4.95142 15.094 5.44656 15.2308L5.71974 15.3162C5.97585 15.4017 6.24903 15.4701 6.52221 15.5556C7.47835 15.8291 8.57107 16.1197 9.39062 16.1197C10.3126 16.1197 11.7468 16 13.3517 15.4359C13.8127 15.2821 14.3591 15.094 14.9396 15.0256L15.4689 14.9915H15.5031L16.3226 15.0598C16.8177 15.1453 17.2958 15.2991 17.6885 15.4359C19.2934 16 20.7277 16.1197 21.6496 16.1197C22.2131 16.1197 22.9302 16 23.9205 15.7265C24.3302 15.6239 24.74 15.4872 25.1327 15.3846L25.5937 15.2479C26.0888 15.1111 26.9938 14.9915 27.6084 14.9915C28.4792 14.9915 29.2817 15.1966 30.05 15.6239C29.8963 16.6496 29.2646 20.2735 27.523 24.5299ZM30.1695 15.0769C29.367 14.6838 28.5475 14.4615 27.6426 14.4615L27.6767 14.4103C27.0962 14.4103 26.123 14.5128 25.5083 14.7009L25.0473 14.8376C24.6546 14.9573 24.2449 15.0769 23.8351 15.1795C22.879 15.4359 22.2131 15.5556 21.7009 15.5556C20.8301 15.5556 19.4642 15.4359 17.9275 14.906C17.5178 14.7692 17.0056 14.5983 16.4763 14.5128C15.9299 14.4274 15.4518 14.4103 14.9396 14.4786C14.3079 14.5641 13.7274 14.7521 13.2322 14.9231C11.6956 15.4701 10.3297 15.5726 9.44184 15.5897C8.69059 15.5897 7.64908 15.3162 6.71002 15.0598C6.43684 14.9915 6.16366 14.906 5.90755 14.8205L5.63437 14.735C5.08801 14.5812 4.16602 14.4615 3.50014 14.4615C2.59522 14.4615 1.79275 14.6667 0.990283 15.094C0.973209 14.9573 0.939062 14.7521 0.904914 14.5128C1.69031 14.0855 2.59522 13.8462 3.50014 13.8462C4.1148 13.8462 4.98556 13.9658 5.48071 14.1026L6.55636 14.4103C7.56371 14.7009 8.62229 14.9744 9.42476 14.9744C10.3468 14.9744 11.781 14.8547 13.3859 14.2906C13.8469 14.1197 14.3933 13.9487 14.9738 13.8803L15.5031 13.8462H15.5372L16.3567 13.9145C16.869 14 17.347 14.1538 17.7227 14.2906C19.3276 14.8547 20.7618 14.9744 21.6838 14.9744C22.2302 14.9744 22.9302 14.8547 23.9546 14.5812C24.3815 14.4615 24.8083 14.3419 25.2181 14.2222L25.6278 14.1026C26.123 13.9658 27.0108 13.8462 27.6426 13.8462C28.5645 13.8462 29.4524 14.0855 30.2549 14.5128C30.2207 14.7521 30.2036 14.9402 30.1695 15.0769ZM30.4427 13.8803C29.6231 13.4701 28.7011 13.2308 27.7621 13.2308V13.1795C27.1474 13.1795 26.1913 13.2821 25.5766 13.4701L25.1669 13.5897C24.7571 13.7094 24.3302 13.8291 23.9205 13.9487C23.3229 14.1026 22.435 14.3248 21.7862 14.3248C20.9155 14.3248 19.5496 14.2051 18.0129 13.6752C17.6202 13.5385 17.108 13.3675 16.5616 13.2821C16.2543 13.2308 15.964 13.1966 15.6738 13.1966C15.4518 13.1966 15.2469 13.1966 15.0421 13.2308C14.4103 13.3162 13.8298 13.5043 13.3347 13.6752C11.798 14.2222 10.4321 14.3419 9.54428 14.3419C8.79303 14.3419 7.75153 14.0684 6.81247 13.812L5.73681 13.5043C5.19045 13.3504 4.28554 13.2308 3.60258 13.2308C2.68059 13.2308 1.75861 13.453 0.939062 13.8803C0.921988 13.7094 0.904914 13.5043 0.88784 13.2991C1.70738 12.8718 2.69767 12.6154 3.6538 12.6154C4.26846 12.6154 5.13923 12.735 5.63437 12.8718L6.71002 13.1795C7.71738 13.4701 8.77596 13.7436 9.57843 13.7436C10.5004 13.7436 11.9346 13.6239 13.5396 13.0598C14.0006 12.8889 14.5469 12.7179 15.1274 12.6496L15.6909 12.6154L16.5104 12.6838C17.0226 12.7692 17.5007 12.9231 17.8763 13.0598C19.4813 13.6239 20.9155 13.7436 21.8375 13.7436C22.4009 13.7436 23.1009 13.6239 24.1083 13.3504C24.5351 13.2308 24.962 13.1111 25.3717 12.9915L25.7986 12.8718C26.2937 12.735 27.1986 12.6154 27.8133 12.6154C28.7353 12.6154 29.7085 12.8547 30.4939 13.265C30.4768 13.4872 30.4597 13.6923 30.4427 13.8803ZM30.511 12.6325C29.6743 12.2393 28.7182 12.0342 27.7792 12.0171C27.1986 12.0171 26.2254 12.1197 25.6108 12.3077L25.1839 12.4274C24.7742 12.547 24.3644 12.6667 23.9375 12.7863C23.357 12.9402 22.5375 13.1453 21.9057 13.1624C21.8375 12.6154 21.7009 12.0855 21.496 11.5897L30.5963 10.906C30.5963 11.5385 30.5622 12.1197 30.511 12.6325ZM30.5963 10.0513L21.3423 11.2821C21.274 11.1282 21.1886 10.9915 21.1033 10.8376L30.5622 8.76923C30.5622 9.21368 30.5963 9.64103 30.5963 10.0342V10.0513Z" fill="white"/>
</g>
<defs>
<clipPath id="clip0_43_2068">
<rect width="123" height="40" fill="white"/>
</clipPath>
</defs>
</svg>
