<svg width="152" height="40" viewBox="0 0 152 40" fill="none" xmlns="http://www.w3.org/2000/svg">
<g clip-path="url(#clip0_43_2073)">
<path d="M57.2387 17.0873C57.1457 16.9943 57.0198 17.0873 56.8611 17.3063C55.5422 19.2171 52.8168 20.9417 49.3745 20.9417C47.8695 20.9417 46.0526 20.6898 43.9839 18.4999C41.6635 15.9923 41.0998 12.2967 41.0998 10.3531C41.0998 5.84177 43.1685 1.32494 48.1814 1.32494C50.6222 1.32494 52.2531 2.32685 53.6322 3.64632C54.9457 5.02601 55.7009 6.59184 56.0785 7.71968C56.1715 7.97153 56.2646 8.09745 56.4233 8.03175L57.0198 7.84561C57.1457 7.81276 57.173 7.71968 57.1457 7.53353C57.0198 6.59184 56.3904 1.57679 56.3904 1.01287C56.3904 0.57487 56.3302 0.509171 55.9526 0.509171C55.575 0.509171 55.5148 0.509171 55.4491 0.695319L55.1974 1.51109C55.1372 1.76293 55.0113 1.76293 54.5735 1.51109C53.4461 0.881467 51.1312 0.00547495 48.2471 0.00547495C44.4929 0.00547495 41.7948 1.51109 40.1038 3.32877C37.9092 5.71037 36.9077 8.6559 36.9077 11.7273C36.9077 14.4867 37.9749 18.1221 40.2953 20.1916C42.2381 21.9436 44.4928 23.1371 48.5043 23.1371C52.9536 23.1371 55.9581 20.5694 57.8407 17.8702C57.9009 17.7443 57.8735 17.6512 57.7805 17.5582L57.2497 17.0873H57.2387ZM22.7444 1.35231V0.629619C22.7444 0.476321 22.7116 0.383247 22.4325 0.383247C22.1808 0.383247 21.1793 0.476321 19.2365 0.476321C17.1678 0.476321 15.7285 0.383247 15.4165 0.383247C15.2305 0.383247 15.1648 0.443471 15.1648 0.629619V1.41254C15.1648 1.53846 15.225 1.63701 15.4165 1.63701H16.5439C17.2335 1.63701 17.7369 2.20093 17.83 3.0167C17.923 3.73939 18.1748 6.49877 18.1748 9.00082V14.64C18.1748 16.9286 17.5454 18.7462 16.3578 19.9398C15.3563 20.8815 13.5996 21.4454 12.1603 21.4454C10.721 21.4454 8.96424 20.9417 7.89707 19.5018C7.14731 18.4999 6.89557 17.0599 6.80254 15.6146C6.73686 14.6126 6.7095 12.3843 6.7095 10.8185V6.93129C6.7095 5.11361 6.7697 3.23022 6.80254 2.85792C6.83537 2.20093 7.39906 1.63701 8.34036 1.63701H9.6538C9.83987 1.63701 9.90554 1.57131 9.90554 1.38516V0.602245C9.90554 0.448946 9.84534 0.383247 9.6538 0.383247C9.27618 0.383247 7.7712 0.476321 5.14431 0.476321C2.12887 0.476321 0.629358 0.383247 0.311942 0.383247C0.0601994 0.383247 0 0.443471 0 0.629619V1.35231C0 1.57131 0.0601994 1.63701 0.251743 1.63701H1.69106C2.50648 1.63701 2.75823 2.13523 2.75823 3.20285V10.6269C2.75823 14.7331 2.87863 16.8026 3.32191 18.1768C3.95127 20.1861 5.20451 21.6261 7.02144 22.3761C8.21449 22.8798 10.0259 23.1317 11.5309 23.1317C13.917 23.1317 15.9145 22.3761 17.2335 21.1881C18.9245 19.6824 19.6797 17.7443 19.8658 15.1711C19.9917 13.9173 20.0574 8.46428 20.0574 8.02628C20.0574 7.62113 20.0574 3.23022 20.1176 2.85245C20.1778 2.50753 20.3091 1.63154 21.4365 1.63154H22.5638C22.7225 1.63154 22.7554 1.53846 22.7554 1.34684L22.7444 1.35231ZM30.2639 9.25267C29.0106 8.8749 27.2594 8.12483 26.444 7.30906C25.6942 6.49329 25.5683 5.55708 25.5683 4.48946C25.5683 3.32877 26.5698 1.32494 29.0763 1.32494C30.5156 1.32494 31.5171 1.76293 32.3326 2.63893C33.4599 3.83247 33.9634 5.08623 34.2754 5.96222C34.3356 6.14837 34.4614 6.18122 34.5873 6.14837L35.0908 5.99507C35.2167 5.96222 35.2769 5.89652 35.2769 5.77607C35.2769 5.464 34.7734 1.07857 34.7734 0.57487C34.7734 0.257323 34.7132 0.0711744 34.5216 0.0711744C34.3301 0.0711744 34.2097 0.131399 34.0838 0.257323L33.6734 0.662469C33.5147 0.821243 33.3286 0.881467 33.0166 0.755543C32.3928 0.503696 31.1395 0 29.0708 0C27.2539 0 25.8748 0.437996 24.6216 1.50561C23.1166 2.69368 22.427 4.13906 22.427 5.89105C22.427 7.80181 22.925 9.37312 23.9922 10.375C25.4972 11.7547 27.5659 12.6307 28.5674 13.0085C31.8893 14.2622 33.2027 15.1985 33.2027 18.0838C33.2027 20.6844 30.8221 21.752 29.131 21.752C27.5659 21.752 25.935 21.0019 24.9937 19.4963C24.1181 18.1166 23.8663 16.9286 23.8007 15.9212C23.8007 15.735 23.7405 15.6693 23.6146 15.6693L22.925 15.6091C22.7992 15.6091 22.7663 15.6693 22.7335 15.8609C22.6733 16.2387 22.2355 21.314 22.1698 21.6918C22.1698 22.0038 22.2957 22.1955 22.5474 22.1955C22.7992 22.1955 22.925 22.1298 23.1111 21.8177C23.2972 21.5056 23.423 21.2538 23.6146 21.2538C23.8061 21.2538 23.9867 21.3797 24.3643 21.6261C25.6176 22.5678 27.1226 23.1317 29.6893 23.1317C33.8266 23.1317 36.3331 19.9945 36.3331 16.173C36.3331 14.0706 35.7694 12.7566 34.7679 11.6945C33.5803 10.4407 32.0753 9.81111 30.2584 9.24719L30.2639 9.25267ZM132.406 7.93868C133.643 7.93868 134.201 7.04079 134.201 6.23597C134.201 5.5516 133.676 4.71941 132.592 4.71941C131.355 4.71941 130.704 5.5516 130.704 6.32904C130.704 7.32001 131.727 7.93868 132.406 7.93868ZM64.9169 11.4645C65.3219 12.5814 67.8283 19.6387 68.8189 22.4911C68.9776 22.8908 69.098 23.2028 69.3443 23.2028C69.503 23.2028 69.6562 23.0495 69.7766 22.7977C69.9353 22.4856 73.9249 12.6417 74.297 11.6178C74.8224 10.3148 77.3015 3.96934 78.106 2.97837C78.6916 2.26663 79.2826 1.76841 80.306 1.76841H81.1379C81.3239 1.76841 81.3568 1.67534 81.3568 1.54941V0.777443C81.3568 0.61867 81.3239 0.558445 81.1379 0.558445C80.8588 0.558445 80.0871 0.651519 77.8269 0.651519C75.8732 0.651519 74.4503 0.558445 74.1712 0.558445C74.0179 0.558445 73.9851 0.61867 73.9851 0.777443V1.48919C73.9851 1.67534 74.0179 1.76841 74.1383 1.76841H74.9428C75.7145 1.76841 75.9334 2.10786 75.9334 2.48015C75.9334 2.91267 75.7473 3.47112 75.501 4.24309C75.0359 5.60635 73.8647 9.16507 73.5527 10.0027C73.3065 10.7145 70.8876 17.0928 70.2418 18.5491H70.1816C69.4701 16.6603 67.6751 11.3331 67.303 10.1615C66.7447 8.42595 65.601 4.74131 65.4149 3.62989C65.3218 3.19737 65.289 2.82508 65.289 2.5787C65.289 2.05311 65.7214 1.77388 66.586 1.77388H68.0746C68.288 1.77388 68.3209 1.64796 68.3209 1.49466V0.782918C68.3209 0.656994 68.288 0.56392 68.0089 0.56392C67.7298 0.56392 66.3398 0.656994 63.7402 0.656994C61.3213 0.656994 60.3034 0.56392 59.9915 0.56392C59.8054 0.56392 59.7726 0.624144 59.7726 0.782918V1.55489C59.7726 1.68081 59.7999 1.77388 59.9258 1.77388H60.7303C61.3815 1.77388 61.688 2.08048 61.9999 2.79223C62.3994 3.72297 63.8552 8.21243 64.5995 10.4079L64.9059 11.4591L64.9169 11.4645ZM140.248 31.8259C140.648 31.8259 140.828 31.5357 140.828 31.2729C140.828 31.0539 140.659 30.7802 140.308 30.7802C139.909 30.7802 139.695 31.0485 139.695 31.3003C139.695 31.6233 140.024 31.8204 140.248 31.8204V31.8259ZM76.9075 36.945H76.7378C76.5299 36.945 76.3657 36.9121 76.3657 36.7971C76.3657 36.6055 76.3438 35.9869 76.3438 35.4229V34.8535C76.3438 34.3115 76.3657 33.8024 75.9115 33.3808C75.6324 33.1125 75.3423 32.9811 74.9209 32.9811C74.4776 32.9811 73.8975 33.2111 73.5473 33.6326H73.498V32.9921C73.498 32.4884 73.509 30.4572 73.5309 30.2874C73.5527 30.1177 73.509 30.0356 73.4488 30.0356C73.3667 30.0356 73.301 30.0739 73.2189 30.1177L72.1791 30.6707C72.0915 30.72 72.0587 30.7309 72.0587 30.7692V30.8623C72.0587 30.8897 72.0697 30.9006 72.1299 30.9225L72.2995 30.9828C72.6607 31.1032 72.7811 31.2127 72.7811 31.8259V34.8535C72.7811 35.5051 72.7811 36.6055 72.7537 36.7971C72.7318 36.9176 72.5841 36.9559 72.4254 36.9559H72.2174C72.108 36.9559 72.0697 36.9669 72.0697 37.0381V37.2187C72.0697 37.2899 72.097 37.3173 72.1408 37.3173C72.2284 37.3173 72.6115 37.2844 73.1095 37.2844C73.5692 37.2844 73.9796 37.3173 74.0617 37.3173C74.1219 37.3173 74.1438 37.2789 74.1438 37.2078V37.0381C74.1438 36.9778 74.1055 36.9559 74.0343 36.9559H73.7333C73.5418 36.9559 73.5144 36.8683 73.5144 36.5453V34.3608C73.5144 34.1801 73.6239 33.983 73.7169 33.868C73.996 33.545 74.3572 33.4465 74.6473 33.4465C74.899 33.4465 75.107 33.5396 75.3095 33.7257C75.5995 33.994 75.6378 34.3991 75.6378 34.9576V35.7679C75.6378 36.0909 75.6488 36.6165 75.6378 36.7588C75.6269 36.9286 75.4299 36.9505 75.2602 36.9505H75.0304C74.9702 36.9505 74.9592 36.9833 74.9592 37.0326V37.2023C74.9592 37.2844 74.9811 37.3118 75.0523 37.3118C75.1398 37.3118 75.501 37.2789 75.9936 37.2789C76.5627 37.2789 76.8856 37.3118 76.9567 37.3118C77.017 37.3118 77.0388 37.2735 77.0388 37.1913V37.0435C77.0388 36.9724 77.0115 36.9559 76.9294 36.9559L76.9075 36.945ZM83.4036 22.6718C83.617 22.6718 83.6827 22.5787 83.6827 22.3597V21.8341C83.6827 21.648 83.617 21.5549 83.3707 21.5549H81.9478C81.6085 21.5549 81.5155 21.3359 81.4498 20.7501C81.4225 20.4106 81.4225 19.2937 81.4225 18.0892V14.7167C81.4225 12.1434 81.4225 10.1944 81.4827 9.66877C81.5155 9.44977 81.4827 9.29647 81.3294 9.29647C81.1433 9.29647 80.9901 9.35669 80.7438 9.48262C79.5672 10.1287 78.3906 10.6269 77.4 10.9992C77.2413 11.0649 77.1811 11.1251 77.1811 11.2182V11.4974C77.1811 11.6233 77.2413 11.6835 77.4602 11.7164C79.009 11.9682 79.1896 12.5212 79.1896 13.5724V18.1221C79.1896 19.0528 79.1896 20.0109 79.1622 20.9417C79.1294 21.4344 79.0035 21.5604 78.6642 21.5604H77.1483C76.9294 21.5604 76.8363 21.6206 76.8363 21.8067V22.4254C76.8363 22.6116 76.9294 22.6772 77.0826 22.6772C77.4219 22.6772 78.6314 22.5842 80.4264 22.5787C81.7235 22.5787 83.1518 22.6718 83.3981 22.6718H83.4036ZM65.4422 33.0413C65.1522 32.9537 64.5885 32.7293 64.2985 32.4391C64.0467 32.1763 63.9865 31.8478 63.9865 31.5686C63.9865 31.0594 64.3039 30.3969 65.196 30.3969C65.6666 30.3969 66.0169 30.5393 66.285 30.8295C66.6955 31.262 66.8268 31.6507 66.9035 31.9409C66.9144 31.9737 66.9308 31.9792 66.9637 31.9737L67.0841 31.9409C67.1224 31.9299 67.1333 31.9135 67.1333 31.8587C67.1224 31.6397 66.991 30.6159 66.991 30.2655C66.991 30.1725 66.9636 30.0958 66.9144 30.0958C66.8651 30.0958 66.8323 30.1177 66.7831 30.156L66.6517 30.2765C66.6025 30.3258 66.5532 30.3367 66.4602 30.2874C66.2905 30.2053 65.8472 30.0356 65.2781 30.0356C64.7363 30.0356 64.2383 30.1779 63.8771 30.5174C63.5651 30.8076 63.2586 31.3003 63.2586 31.7985C63.2586 32.461 63.4283 32.9318 63.7621 33.2603C64.1945 33.7093 64.9114 33.9611 65.2233 34.0706C66.0224 34.3498 66.7666 34.7331 66.7666 35.7624C66.7666 36.6658 66.0059 37.0326 65.4039 37.0326C64.8512 37.0326 64.3039 36.7643 64.0029 36.2935C63.6746 35.7843 63.6527 35.4503 63.6417 35.1328C63.6417 35.0725 63.6198 35.0506 63.5815 35.0506L63.4338 35.0397C63.3955 35.0397 63.3736 35.0397 63.3626 35.0999C63.3298 35.3901 63.2313 36.6603 63.193 36.9121C63.1711 37.0216 63.2203 37.0709 63.286 37.0709C63.3572 37.0709 63.4064 37.06 63.4666 36.9505C63.5268 36.8519 63.5651 36.7807 63.6253 36.7807C63.6746 36.7807 63.7348 36.8081 63.8552 36.9012C64.2547 37.2132 64.7472 37.4213 65.4477 37.4213C66.7721 37.4213 67.489 36.4084 67.489 35.2258C67.489 34.5634 67.3084 34.1746 67.0457 33.8626C66.6845 33.4246 66.1263 33.2494 65.4313 33.0304L65.4422 33.0413ZM71.6209 36.4577C71.5935 36.4303 71.5607 36.4358 71.5388 36.4577C71.1995 36.7807 70.9368 36.8902 70.4388 36.8902C70.0995 36.8902 69.6781 36.8081 69.3497 36.3811C69.0761 36.0088 68.8408 35.401 68.8408 34.859C68.8408 33.8297 69.4537 33.3041 70.0229 33.3041C70.2637 33.3041 70.4716 33.3315 70.6905 33.7476C70.8383 34.0159 71.0134 34.1473 71.2433 34.1473C71.4567 34.1473 71.6045 34.0268 71.6154 33.7969C71.6154 33.5888 71.2925 32.9866 70.2527 32.9866C68.9338 32.9866 68.1129 34.1692 68.1129 35.3408C68.1129 35.7898 68.195 36.2113 68.5617 36.7041C69.0214 37.2844 69.5851 37.4049 70.1104 37.4049C70.7945 37.4049 71.4348 37.0216 71.7249 36.6931C71.7741 36.6329 71.7632 36.6001 71.7249 36.5617L71.6264 36.4632L71.6209 36.4577ZM119.649 31.3058C119.649 31.6288 119.977 31.8259 120.202 31.8259C120.601 31.8259 120.782 31.5357 120.782 31.2729C120.782 31.0539 120.612 30.7802 120.262 30.7802C119.863 30.7802 119.649 31.0485 119.649 31.3003V31.3058ZM114.964 2.91267L115.271 3.00575C116.387 3.37805 116.727 3.81057 116.727 5.88557V17.3118C116.727 19.573 116.727 22.1407 116.666 22.5732C116.634 22.7265 116.666 22.7922 116.787 22.8196L117.159 22.9127C117.345 22.94 117.444 22.9127 117.564 22.8196L118.801 22.1352C119.512 22.5677 120.722 22.94 122.451 22.94C125.981 22.94 128.892 19.5346 128.892 15.9102C128.892 11.481 125.948 9.28552 123.228 9.28552C121.712 9.28552 119.95 9.87134 118.96 10.8349V7.24336C118.96 4.48946 118.96 0.958117 118.992 0.711744C119.025 0.339447 118.96 0.186148 118.746 0.186148C118.56 0.186148 118.314 0.312072 118.1 0.465371C117.329 0.958117 115.714 1.76293 114.817 2.16808C114.631 2.26116 114.57 2.32138 114.57 2.41445V2.66083C114.57 2.7539 114.631 2.81413 114.97 2.9072L114.964 2.91267ZM121.898 10.7802C124.93 10.7802 126.506 13.6272 126.506 16.6329C126.506 20.6898 124.213 21.96 122.358 21.96C121.028 21.96 119.726 21.1552 119.419 20.4106C119.047 19.4197 118.954 18.4944 118.954 15.9212V11.8971C119.633 11.1853 120.749 10.7802 121.893 10.7802H121.898ZM151.259 33.8133C151.341 33.8845 151.44 33.9611 151.61 33.9611C151.839 33.9611 151.998 33.7805 151.998 33.5888C152.02 33.3863 151.856 33.1673 151.527 33.1673C151.199 33.1673 150.86 33.3698 150.586 33.556C150.488 33.4355 150.088 32.9756 149.327 32.9756C148.195 32.9756 147.614 33.775 147.614 34.4265C147.614 35.3189 148.156 35.7788 148.545 35.9485V35.9704C148.195 36.1018 147.642 36.4413 147.642 36.9231C147.642 37.2242 147.894 37.5363 148.309 37.6239V37.6622C147.828 37.8702 147.259 38.3028 147.259 38.8612C147.259 39.1897 147.407 39.4525 147.768 39.6715C148.249 39.9398 148.818 39.9945 149.3 39.9945C150.154 39.9945 150.75 39.7153 151.013 39.5237C151.516 39.1514 151.686 38.7627 151.686 38.2918C151.675 38.0509 151.626 37.6512 151.194 37.3282C150.794 37.0162 150.291 36.9286 149.47 36.9669C148.802 37.0052 148.299 37.0381 148.299 36.6274C148.299 36.3482 148.627 36.1456 148.829 36.069C148.977 36.1073 149.119 36.1183 149.338 36.1183C149.667 36.1183 150.241 35.9102 150.499 35.62C150.761 35.308 150.871 34.9302 150.871 34.536C150.871 34.1965 150.8 33.9776 150.723 33.775C150.854 33.7148 150.975 33.7148 151.046 33.7148C151.128 33.7148 151.194 33.764 151.254 33.8024L151.259 33.8133ZM148.671 37.7498L149.628 37.6786C150.63 37.6074 151.079 38.0564 151.079 38.6477C151.128 39.4197 150.028 39.677 149.656 39.677C148.944 39.677 148.583 39.6277 148.255 39.3978C148.052 39.2554 147.866 38.9543 147.866 38.7079C147.866 38.1659 148.359 37.8264 148.665 37.7443L148.671 37.7498ZM149.251 35.8445C149.01 35.8445 148.829 35.7624 148.649 35.5927C148.441 35.3737 148.331 35.0616 148.331 34.7221C148.331 34.3444 148.37 33.879 148.693 33.5396C148.933 33.2987 149.174 33.2603 149.404 33.2603C149.552 33.2603 149.754 33.3534 149.886 33.4793C150.066 33.6819 150.154 33.9392 150.154 34.3827C150.154 35.0123 149.935 35.8445 149.251 35.8445ZM99.6793 22.951C102.432 22.951 104.041 20.8158 104.599 19.573C104.758 19.2335 104.698 19.1404 104.599 19.1076L104.2 18.8886C104.107 18.8557 103.981 18.9214 103.921 19.0419C103.395 20.0657 102.065 21.1443 100.177 21.1443C97.7037 21.1443 95.7828 18.8557 95.7828 15.8226C95.7828 15.1109 95.8156 14.6126 95.8758 14.3389H103.521C104.019 14.3389 104.386 14.2787 104.386 13.8407C104.386 12.6307 103.395 9.28552 99.838 9.29099C98.2892 9.29099 96.7405 9.57022 95.4106 10.9335C93.7743 12.576 93.4623 14.651 93.4623 15.8555C93.4623 18.0235 93.7415 19.1678 94.825 20.7446C95.9743 22.4199 97.9226 22.9455 99.6848 22.9455L99.6793 22.951ZM99.2415 10.2217C101.255 10.2217 101.622 12.2639 101.622 12.9756C101.622 13.2549 101.376 13.4082 100.79 13.4082H95.9907C96.5818 11.1196 97.8788 10.2217 99.2415 10.2217ZM84.2354 11.2784H86.1235C86.0906 12.5814 86.0633 14.651 86.0633 15.2094V15.8883C86.0633 16.3208 85.9702 19.0474 85.9702 20.3175C85.9702 21.4947 87.4533 22.951 88.9748 22.951C90.83 22.951 92.0996 22.0203 92.4061 21.7137C92.4992 21.6206 92.5593 21.4947 92.4718 21.3742L92.3186 21.095C92.2255 20.9691 92.0996 20.9417 91.9464 21.0348C91.5141 21.314 90.6166 21.4399 89.9051 21.4399C89.3469 21.4399 88.2961 21.0348 88.2961 18.7134V15.6146C88.2961 14.1911 88.3235 12.7019 88.3892 11.2784H92.3788C92.5648 11.2784 92.625 11.1853 92.6579 11.0266L92.9643 9.94251C93.03 9.81659 92.9315 9.66329 92.7509 9.66329H88.4439L88.6026 6.59732C88.6026 6.35094 88.5424 6.13195 88.2907 6.13195C88.1046 6.13195 87.9459 6.19217 87.8583 6.43854C87.4533 7.48973 85.0727 9.90966 84.3284 10.3422C83.9563 10.5612 83.7702 10.6488 83.7702 10.9006C83.7702 11.1525 83.9563 11.2729 84.2354 11.2729V11.2784ZM78.5001 6.32904C78.5001 7.32001 79.5234 7.93868 80.2021 7.93868C81.4389 7.93868 81.9971 7.04079 81.9971 6.23597C81.9971 5.5516 81.4717 4.71941 80.3881 4.71941C79.1513 4.71941 78.5001 5.5516 78.5001 6.32904ZM138.524 32.9209C138.092 32.9209 137.621 33.3315 137.326 33.7914H137.288L137.238 33.1016C137.238 33.0413 137.227 32.9811 137.167 32.9811C137.129 32.9811 137.085 32.9921 137.025 33.0194L136.034 33.5286C135.974 33.556 135.952 33.5779 135.952 33.6162V33.6764C135.952 33.7148 135.974 33.7257 136.034 33.7476L136.226 33.8462C136.505 33.994 136.587 34.098 136.587 34.6072V35.5489C136.587 36.069 136.587 36.4194 136.576 36.7534C136.576 36.8848 136.505 36.945 136.357 36.945H135.969C135.876 36.945 135.859 36.9669 135.859 37.0326V37.2023C135.859 37.2844 135.881 37.3008 135.919 37.3008C135.98 37.3008 136.401 37.268 137.019 37.268C137.561 37.268 138.021 37.3008 138.081 37.3008C138.119 37.3008 138.13 37.268 138.13 37.2078V37.0271C138.13 36.9669 138.119 36.9395 138.059 36.9395H137.589C137.375 36.9395 137.309 36.841 137.309 36.5289V34.4265C137.309 34.3991 137.348 34.2184 137.408 34.109C137.578 33.7859 137.84 33.6874 137.999 33.6874C138.13 33.6874 138.251 33.7148 138.327 33.7695C138.409 33.8078 138.508 33.8516 138.617 33.8516C138.798 33.8516 139.039 33.6491 139.039 33.3589C139.039 33.1289 138.869 32.9154 138.53 32.9154L138.524 32.9209ZM121.45 36.945H120.99C120.88 36.945 120.848 36.8738 120.831 36.6822C120.82 36.5727 120.82 36.2113 120.82 35.8226V34.7331C120.82 33.9009 120.82 33.2713 120.842 33.1016C120.853 33.0304 120.842 32.9811 120.793 32.9811C120.733 32.9811 120.683 33.003 120.601 33.0413C120.218 33.2494 119.841 33.4136 119.523 33.5341C119.474 33.556 119.452 33.5724 119.452 33.6053V33.6929C119.452 33.7312 119.474 33.7531 119.54 33.764C120.038 33.8462 120.098 34.0268 120.098 34.3663V35.839C120.098 36.1402 120.098 36.4522 120.087 36.7479C120.076 36.9067 120.038 36.9505 119.928 36.9505H119.436C119.365 36.9505 119.337 36.9724 119.337 37.0326V37.2351C119.337 37.2954 119.365 37.3173 119.414 37.3173C119.523 37.3173 119.917 37.2844 120.497 37.2844C120.919 37.2844 121.378 37.3173 121.461 37.3173C121.532 37.3173 121.548 37.2844 121.548 37.2187V37.049C121.548 36.9888 121.526 36.9614 121.45 36.9614V36.945ZM118.626 33.1727C118.297 33.1727 117.958 33.3753 117.684 33.5615C117.586 33.441 117.186 32.9811 116.42 32.9811C115.287 32.9811 114.707 33.7805 114.707 34.432C114.707 35.3244 115.249 35.7843 115.638 35.954V35.9759C115.287 36.1073 114.735 36.4468 114.735 36.9286C114.735 37.2297 114.986 37.5417 115.408 37.6293V37.6677C114.926 37.8757 114.357 38.3082 114.357 38.8667C114.357 39.1952 114.505 39.458 114.866 39.677C115.348 39.9452 115.917 40 116.398 40C117.252 40 117.849 39.7208 118.111 39.5292C118.615 39.1569 118.784 38.7681 118.784 38.2973C118.773 38.0564 118.724 37.6567 118.292 37.3337C117.892 37.0216 117.389 36.934 116.568 36.9724C115.9 37.0107 115.397 37.0435 115.397 36.6329C115.397 36.3537 115.725 36.1511 115.928 36.0745C116.075 36.1128 116.218 36.1237 116.437 36.1237C116.765 36.1237 117.34 35.9157 117.597 35.6255C117.86 35.3134 117.969 34.9357 117.969 34.5415C117.969 34.202 117.898 33.983 117.821 33.7805C117.953 33.7202 118.073 33.7202 118.139 33.7202C118.221 33.7202 118.286 33.7695 118.352 33.8078C118.434 33.879 118.533 33.9557 118.702 33.9557C118.932 33.9557 119.091 33.775 119.091 33.5834C119.113 33.3808 118.949 33.1618 118.62 33.1618L118.626 33.1727ZM115.763 37.7498L116.721 37.6786C117.723 37.6074 118.171 38.0564 118.171 38.6477C118.221 39.4197 117.121 39.677 116.749 39.677C116.037 39.677 115.676 39.6277 115.348 39.3978C115.145 39.2554 114.959 38.9543 114.959 38.7079C114.959 38.1659 115.452 37.8264 115.758 37.7443L115.763 37.7498ZM116.344 35.8445C116.103 35.8445 115.922 35.7624 115.742 35.5927C115.534 35.3737 115.424 35.0616 115.424 34.7221C115.424 34.3444 115.463 33.879 115.785 33.5396C116.026 33.2987 116.267 33.2603 116.497 33.2603C116.645 33.2603 116.847 33.3534 116.978 33.4793C117.159 33.6819 117.247 33.9392 117.247 34.3827C117.247 35.0123 117.028 35.8445 116.344 35.8445ZM135.191 36.0854C135.164 36.0745 135.12 36.0964 135.104 36.1347C134.934 36.4632 134.502 36.8136 133.894 36.8136C133.095 36.8136 132.472 36.0745 132.472 35.089C132.472 34.859 132.483 34.7002 132.499 34.6072H134.973C135.131 34.6072 135.252 34.5853 135.252 34.4484C135.252 34.0597 134.929 32.9756 133.78 32.9756C133.282 32.9756 132.778 33.0632 132.346 33.5067C131.815 34.0378 131.716 34.7112 131.716 35.0999C131.716 35.8007 131.809 36.173 132.16 36.6822C132.532 37.2242 133.161 37.3939 133.73 37.3939C134.622 37.3939 135.142 36.7041 135.323 36.3044C135.372 36.1949 135.35 36.1621 135.323 36.1566L135.191 36.0854ZM133.588 33.2822C134.239 33.2822 134.36 33.9447 134.36 34.1746C134.36 34.2677 134.278 34.317 134.091 34.317H132.543C132.734 33.5779 133.156 33.2877 133.593 33.2877L133.588 33.2822ZM141.496 36.945H141.036C140.927 36.945 140.894 36.8738 140.878 36.6822C140.867 36.5727 140.867 36.2113 140.867 35.8226V34.7331C140.867 33.9009 140.867 33.2713 140.889 33.1016C140.899 33.0304 140.889 32.9811 140.839 32.9811C140.779 32.9811 140.73 33.003 140.648 33.0413C140.27 33.2494 139.887 33.4136 139.57 33.5341C139.52 33.556 139.498 33.5724 139.498 33.6053V33.6929C139.498 33.7312 139.52 33.7531 139.586 33.764C140.09 33.8462 140.144 34.0268 140.144 34.3663V35.839C140.144 36.1402 140.144 36.4522 140.133 36.7479C140.122 36.9067 140.084 36.9505 139.975 36.9505H139.482C139.411 36.9505 139.384 36.9724 139.384 37.0326V37.2351C139.384 37.2954 139.411 37.3173 139.466 37.3173C139.575 37.3173 139.964 37.2844 140.549 37.2844C140.971 37.2844 141.43 37.3173 141.512 37.3173C141.584 37.3173 141.6 37.2844 141.6 37.2187V37.049C141.6 36.9888 141.578 36.9614 141.501 36.9614L141.496 36.945ZM126.78 36.945H126.457C126.326 36.945 126.238 36.8957 126.238 36.7369V34.1527C126.238 33.9009 125.986 33.4027 125.685 33.2001C125.445 33.0413 125.133 32.9811 124.837 32.9811C124.334 32.9811 123.754 33.3534 123.464 33.7148H123.442L123.371 33.1016C123.36 33.0194 123.338 32.9811 123.288 32.9811C123.25 32.9811 123.19 33.0085 123.108 33.0523L122.249 33.5341C122.199 33.556 122.161 33.5834 122.161 33.6326V33.6819C122.161 33.7093 122.172 33.7421 122.238 33.7695L122.32 33.8078C122.571 33.9283 122.73 34.098 122.73 34.3991V36.7424C122.73 36.9121 122.659 36.945 122.533 36.945H122.243C122.167 36.945 122.145 36.9778 122.145 37.0326V37.2132C122.145 37.2735 122.167 37.3063 122.216 37.3063C122.276 37.3063 122.599 37.2735 123.108 37.2735C123.617 37.2735 123.907 37.3063 123.978 37.3063C124.027 37.3063 124.049 37.2735 124.049 37.2132V37.0435C124.049 36.9724 124.027 36.945 123.951 36.945H123.699C123.491 36.945 123.458 36.8848 123.458 36.6165V34.5415C123.458 34.3498 123.491 34.0816 123.688 33.8626C123.989 33.5396 124.339 33.4739 124.498 33.4739C124.75 33.4739 124.99 33.4739 125.231 33.6545C125.521 33.8626 125.521 34.1527 125.521 34.5579V35.8828C125.521 36.1456 125.51 36.4632 125.499 36.726C125.488 36.9067 125.406 36.9559 125.297 36.9559H125.007C124.908 36.9559 124.875 36.9778 124.875 37.0435V37.2023C124.875 37.2844 124.897 37.3118 124.952 37.3118C125.023 37.3118 125.341 37.2789 125.855 37.2789C126.424 37.2789 126.736 37.3118 126.807 37.3118C126.868 37.3118 126.889 37.2735 126.889 37.2023V37.0435C126.889 36.9833 126.868 36.9559 126.78 36.9559V36.945ZM79.7533 32.9811C79.4249 32.9811 78.9324 33.0632 78.4125 33.4629C77.8214 33.9228 77.5533 34.5634 77.5533 35.078C77.5533 35.7898 77.6408 36.1566 78.106 36.7096C78.5274 37.2132 79.1458 37.3994 79.6274 37.3994C80.8588 37.3994 81.8384 36.288 81.8384 35.1985C81.8384 34.5469 81.6085 34.0268 81.1543 33.5669C80.8533 33.2658 80.3006 32.9866 79.7533 32.9866V32.9811ZM79.7423 37.0983C79.2717 37.0983 78.9816 36.9067 78.7518 36.5782C78.4289 36.1183 78.3687 35.735 78.3687 35.1766C78.3687 34.4155 78.511 34.0049 78.8996 33.6053C79.1404 33.3425 79.3976 33.2822 79.6712 33.2822C80.1802 33.2822 80.9901 33.983 80.9901 35.0944C80.9901 36.2059 80.4976 37.0983 79.7369 37.0983H79.7423ZM135.881 21.8341C135.881 21.648 135.821 21.5549 135.575 21.5549H134.152C133.812 21.5549 133.719 21.3359 133.654 20.7501C133.626 20.4106 133.626 19.2937 133.626 18.0892V14.7167C133.626 12.1434 133.626 10.1944 133.687 9.66877C133.719 9.44977 133.687 9.29647 133.533 9.29647C133.347 9.29647 133.194 9.35669 132.948 9.48262C131.771 10.1287 130.594 10.6269 129.609 10.9992C129.451 11.0649 129.39 11.1251 129.39 11.2182V11.4974C129.39 11.6233 129.451 11.6835 129.67 11.7164C131.218 11.9682 131.404 12.5212 131.404 13.5724V18.1221C131.404 19.0528 131.404 20.0109 131.377 20.9417C131.344 21.4344 131.218 21.5604 130.879 21.5604H129.363C129.144 21.5604 129.051 21.6206 129.051 21.8067V22.4254C129.051 22.6116 129.144 22.6772 129.297 22.6772C129.637 22.6772 130.846 22.5842 132.641 22.5787C133.938 22.5787 135.367 22.6718 135.613 22.6718C135.832 22.6718 135.892 22.5787 135.892 22.3597V21.8341H135.881ZM115.457 10.4681C115.457 9.75636 114.932 9.10485 113.881 9.10485C112.551 9.10485 111.095 10.375 110.165 11.7985H110.039L109.886 9.66329C109.886 9.47714 109.853 9.29099 109.667 9.29099C109.541 9.29099 109.421 9.32384 109.235 9.41692L106.17 10.9937C105.984 11.0868 105.924 11.147 105.924 11.2729V11.4591C105.924 11.585 105.989 11.6178 106.17 11.6781L106.761 11.9847C107.626 12.45 107.872 12.7566 107.872 14.3389V17.2461C107.872 18.8557 107.872 19.9398 107.845 20.9636C107.845 21.3633 107.626 21.5494 107.16 21.5494H105.956C105.677 21.5494 105.617 21.6096 105.617 21.8286V22.3542C105.617 22.6006 105.677 22.6663 105.803 22.6663C105.989 22.6663 107.292 22.5732 109.207 22.5732C110.882 22.5732 112.305 22.6663 112.491 22.6663C112.617 22.6663 112.644 22.5732 112.644 22.3871V21.8286C112.644 21.6425 112.611 21.5494 112.425 21.5494H110.969C110.318 21.5494 110.105 21.2373 110.105 20.2792V13.775C110.105 13.6819 110.231 13.1235 110.411 12.784C110.937 11.793 111.741 11.481 112.239 11.481C112.639 11.481 113.016 11.574 113.262 11.7273C113.514 11.8533 113.821 11.9737 114.16 11.9737C114.718 11.9737 115.462 11.3551 115.462 10.4572L115.457 10.4681ZM130.923 36.0854C130.895 36.0745 130.852 36.0964 130.835 36.1347C130.666 36.4632 130.233 36.8136 129.626 36.8136C128.827 36.8136 128.203 36.0745 128.203 35.089C128.203 34.859 128.214 34.7002 128.23 34.6072H130.704C130.863 34.6072 130.983 34.5853 130.983 34.4484C130.983 34.0597 130.66 32.9756 129.511 32.9756C129.007 32.9756 128.509 33.0632 128.077 33.5067C127.546 34.0378 127.448 34.7112 127.448 35.0999C127.448 35.8007 127.541 36.173 127.891 36.6822C128.263 37.2242 128.892 37.3939 129.462 37.3939C130.354 37.3939 130.874 36.7041 131.054 36.3044C131.103 36.1949 131.082 36.1621 131.054 36.1566L130.923 36.0854ZM129.319 33.2822C129.971 33.2822 130.091 33.9447 130.091 34.1746C130.091 34.2677 130.009 34.317 129.823 34.317H128.274C128.466 33.5779 128.887 33.2877 129.325 33.2877L129.319 33.2822ZM146.826 36.945H146.504C146.372 36.945 146.285 36.8957 146.285 36.7369V34.1527C146.285 33.9009 146.033 33.4027 145.732 33.2001C145.491 33.0413 145.179 32.9811 144.878 32.9811C144.38 32.9811 143.795 33.3534 143.504 33.7148H143.483L143.411 33.1016C143.4 33.0194 143.384 32.9811 143.329 32.9811C143.291 32.9811 143.231 33.0085 143.149 33.0523L142.29 33.5341C142.24 33.556 142.202 33.5834 142.202 33.6326V33.6819C142.202 33.7093 142.213 33.7421 142.284 33.7695L142.366 33.8078C142.618 33.9283 142.777 34.098 142.777 34.3991V36.7424C142.777 36.9121 142.705 36.945 142.574 36.945H142.284C142.202 36.945 142.186 36.9778 142.186 37.0326V37.2132C142.186 37.2735 142.207 37.3063 142.257 37.3063C142.317 37.3063 142.634 37.2735 143.149 37.2735C143.663 37.2735 143.948 37.3063 144.019 37.3063C144.068 37.3063 144.09 37.2735 144.09 37.2132V37.0435C144.09 36.9724 144.068 36.945 143.992 36.945H143.74C143.532 36.945 143.499 36.8848 143.499 36.6165V34.5415C143.499 34.3498 143.526 34.0816 143.729 33.8626C144.03 33.5396 144.38 33.4739 144.539 33.4739C144.791 33.4739 145.031 33.4739 145.272 33.6545C145.562 33.8626 145.562 34.1527 145.562 34.5579V35.8828C145.562 36.1456 145.551 36.4632 145.54 36.726C145.529 36.9067 145.447 36.9559 145.338 36.9559H145.048C144.949 36.9559 144.916 36.9778 144.916 37.0435V37.2023C144.916 37.2844 144.938 37.3118 144.999 37.3118C145.07 37.3118 145.387 37.2789 145.902 37.2789C146.471 37.2789 146.783 37.3118 146.854 37.3118C146.914 37.3118 146.936 37.2735 146.936 37.2023V37.0435C146.936 36.9833 146.914 36.9559 146.826 36.9559V36.945ZM89.5767 36.945H89.128C88.9146 36.945 88.8762 36.8026 88.8653 36.6329C88.8544 36.3208 88.8544 34.8097 88.8544 34.2896V33.3972C88.8544 32.8442 88.8817 30.7638 88.8927 30.2108C88.9036 30.0794 88.8817 30.0301 88.8106 30.0301C88.7504 30.0301 88.6902 30.052 88.6026 30.1122C88.2305 30.3531 87.7817 30.5338 87.4314 30.6926C87.3713 30.7145 87.3384 30.7309 87.3384 30.7638V30.8459C87.3384 30.8459 87.3494 30.8733 87.3986 30.8952L87.6011 30.9663C87.9185 31.0649 88.0827 31.2291 88.0991 31.5686C88.121 31.8314 88.132 32.7402 88.132 33.452V34.0816C88.132 34.6619 88.132 36.3865 88.121 36.6931C88.1101 36.8738 88.0116 36.945 87.9021 36.945H87.4205C87.3111 36.945 87.2892 36.9669 87.2892 37.0326V37.2023C87.2892 37.2625 87.3111 37.3008 87.3603 37.3008C87.4479 37.3008 87.8529 37.268 88.4931 37.268C89.1335 37.268 89.5549 37.3008 89.626 37.3008C89.6643 37.3008 89.6862 37.2625 89.6862 37.2023V37.0326C89.6862 36.9724 89.6643 36.945 89.5767 36.945ZM84.7389 32.9811C84.4105 32.9811 83.918 33.0632 83.3981 33.4629C82.807 33.9228 82.5389 34.5634 82.5389 35.078C82.5389 35.7898 82.6264 36.1566 83.0916 36.7096C83.513 37.2132 84.1314 37.3994 84.613 37.3994C85.8444 37.3994 86.824 36.288 86.824 35.1985C86.824 34.5469 86.5941 34.0268 86.1399 33.5669C85.8389 33.2658 85.2916 32.9866 84.7389 32.9866V32.9811ZM84.728 37.0983C84.2573 37.0983 83.9672 36.9067 83.7374 36.5782C83.4145 36.1183 83.3543 35.735 83.3543 35.1766C83.3543 34.4155 83.4966 34.0049 83.8852 33.6053C84.126 33.3425 84.3832 33.2822 84.6568 33.2822C85.1658 33.2822 85.9757 33.983 85.9757 35.0944C85.9757 36.2059 85.4832 37.0983 84.7225 37.0983H84.728ZM94.431 32.9811C94.1026 32.9811 93.6101 33.0632 93.0902 33.4629C92.4992 33.9228 92.231 34.5634 92.231 35.078C92.231 35.7898 92.3186 36.1566 92.7837 36.7096C93.2051 37.2132 93.8235 37.3994 94.3051 37.3994C95.5365 37.3994 96.5161 36.288 96.5161 35.1985C96.5161 34.5469 96.2862 34.0268 95.832 33.5669C95.531 33.2658 94.9783 32.9866 94.431 32.9866V32.9811ZM94.4255 37.0983C93.9549 37.0983 93.6648 36.9067 93.435 36.5782C93.1121 36.1183 93.0519 35.735 93.0519 35.1766C93.0519 34.4155 93.1942 34.0049 93.5827 33.6053C93.8235 33.3425 94.0808 33.2822 94.3544 33.2822C94.8633 33.2822 95.6733 33.983 95.6733 35.0944C95.6733 36.2059 95.1808 37.0983 94.4201 37.0983H94.4255ZM113.919 36.945H113.602C113.47 36.945 113.383 36.8957 113.383 36.7369V34.1527C113.383 33.9009 113.131 33.4027 112.83 33.2001C112.589 33.0413 112.277 32.9811 111.976 32.9811C111.478 32.9811 110.898 33.3534 110.608 33.7148H110.586L110.515 33.1016C110.504 33.0194 110.488 32.9811 110.433 32.9811C110.395 32.9811 110.335 33.0085 110.253 33.0523L109.393 33.5341C109.344 33.556 109.3 33.5834 109.3 33.6326V33.6819C109.3 33.7093 109.311 33.7421 109.382 33.7695L109.464 33.8078C109.716 33.9283 109.875 34.098 109.875 34.3991V36.7424C109.875 36.9121 109.804 36.945 109.672 36.945H109.382C109.3 36.945 109.284 36.9778 109.284 37.0326V37.2132C109.284 37.2735 109.306 37.3063 109.355 37.3063C109.415 37.3063 109.733 37.2735 110.247 37.2735C110.761 37.2735 111.052 37.3063 111.117 37.3063C111.166 37.3063 111.188 37.2735 111.188 37.2132V37.0435C111.188 36.9724 111.166 36.945 111.09 36.945H110.838C110.63 36.945 110.597 36.8848 110.597 36.6165V34.5415C110.597 34.3498 110.625 34.0816 110.827 33.8626C111.128 33.5396 111.478 33.4739 111.637 33.4739C111.889 33.4739 112.13 33.4739 112.37 33.6545C112.66 33.8626 112.66 34.1527 112.66 34.5579V35.8828C112.66 36.1456 112.65 36.4632 112.639 36.726C112.628 36.9067 112.551 36.9559 112.436 36.9559H112.146C112.048 36.9559 112.015 36.9778 112.015 37.0435V37.2023C112.015 37.2844 112.037 37.3118 112.097 37.3118C112.168 37.3118 112.485 37.2789 113 37.2789C113.569 37.2789 113.881 37.3118 113.952 37.3118C114.012 37.3118 114.034 37.2735 114.034 37.2023V37.0435C114.034 36.9833 114.012 36.9559 113.925 36.9559L113.919 36.945ZM108.923 35.4558C108.862 35.4284 108.83 35.4667 108.802 35.516C108.66 35.746 108.102 36.4687 107.981 36.5672C107.719 36.7862 107.281 36.8957 107.111 36.9176C106.903 36.9395 106.4 36.9505 106.23 36.9505C105.978 36.9505 105.688 36.9176 105.491 36.8793C105.179 36.819 104.933 36.6165 104.922 36.0964C104.922 35.8938 104.9 34.9247 104.9 34.3827V33.764C105.059 33.764 105.754 33.764 106.225 33.8133C106.487 33.8407 106.597 33.994 106.657 34.202C106.684 34.3115 106.745 34.5415 106.766 34.6729C106.777 34.744 106.794 34.7714 106.849 34.7605L107.067 34.7331C107.106 34.7221 107.128 34.7057 107.128 34.651C107.106 34.4429 107.067 33.9611 107.067 33.6107C107.067 33.4629 107.067 32.6417 107.095 32.4719C107.106 32.4336 107.084 32.3898 107.035 32.3898L106.783 32.3789C106.745 32.3789 106.712 32.4008 106.712 32.45C106.701 32.6417 106.662 32.8388 106.63 32.9428C106.542 33.2549 106.46 33.3315 106.17 33.3863C106.049 33.4082 104.977 33.4465 104.9 33.4465V30.5119L106.684 30.5502C106.952 30.5612 107.237 30.6816 107.445 30.8185C107.686 30.9663 108.425 31.919 108.447 31.9628C108.457 31.9847 108.496 32.012 108.529 31.9901L108.676 31.908C108.715 31.8861 108.715 31.8587 108.704 31.8204C108.676 31.7219 108.233 30.3477 108.195 30.2053C108.184 30.1725 108.167 30.156 108.113 30.156C108.058 30.156 107.872 30.1779 107.713 30.1779C106.723 30.1779 105.732 30.1889 104.742 30.1889H104.304C103.642 30.1889 103.291 30.1615 103.072 30.1615C103.023 30.1615 103.001 30.1834 103.001 30.2108V30.4791C103.001 30.5393 103.029 30.5502 103.083 30.5502H103.445C103.817 30.5502 103.915 30.6214 103.953 30.939C103.964 31.0375 103.981 32.2913 103.981 33.1235V36.4796C103.981 36.8519 103.943 36.9176 103.483 36.9176H103.083C103.012 36.9176 102.985 36.9286 102.985 36.9669V37.2351C102.985 37.2844 103.012 37.3063 103.078 37.3063C103.165 37.3063 103.297 37.2954 103.51 37.2844C103.713 37.2844 103.992 37.2735 104.364 37.2735C105.924 37.2735 106.898 37.2844 107.5 37.2844C108.102 37.2954 108.321 37.3063 108.37 37.3063C108.49 37.3063 108.561 37.2461 108.589 37.1585L109.12 35.6857C109.147 35.6036 109.147 35.5762 109.098 35.5434L108.939 35.4503L108.923 35.4558ZM100.248 30.0356C99.6902 30.0356 99.1375 30.2436 98.6067 30.8295C98.2181 31.2674 97.9335 31.919 97.9335 32.9154V33.107H97.3534C97.2713 33.107 97.244 33.118 97.233 33.1782L97.1947 33.4793C97.1728 33.5669 97.1947 33.5888 97.244 33.5888H97.9335V36.6055C97.9226 36.8355 97.8843 36.9559 97.6927 36.9559H97.2111C97.129 36.9559 97.1126 36.9778 97.1126 37.0271V37.2461C97.1126 37.2954 97.1345 37.3173 97.1892 37.3173C97.2713 37.3173 97.7803 37.2844 98.333 37.2844C99.1047 37.2844 99.4768 37.3173 99.5315 37.3173C99.5808 37.3173 99.6027 37.2789 99.6027 37.1968V37.0381C99.6027 36.9778 99.5808 36.9559 99.4932 36.9559H98.9241C98.7161 36.9559 98.6833 36.8683 98.6614 36.6931C98.6504 36.5836 98.6504 35.6638 98.6504 34.4812V33.5888H99.7505C99.8325 33.5888 99.8708 33.5779 99.8818 33.5396L99.931 33.2111C99.942 33.1727 99.931 33.1125 99.8599 33.1125H98.6504V32.9099C98.6504 32.2091 98.6285 31.3386 99.0007 30.8678C99.2196 30.5886 99.4932 30.5174 99.7505 30.5174C99.942 30.5174 100.079 30.5886 100.21 30.7473C100.248 30.7966 100.358 30.928 100.451 30.9773C100.533 31.0156 100.632 31.0375 100.73 31.0375C100.889 31.0375 101.151 30.8459 101.151 30.605C101.151 30.2217 100.708 30.0411 100.243 30.0411L100.248 30.0356Z" fill="white"/>
</g>
<defs>
<clipPath id="clip0_43_2073">
<rect width="152" height="40" fill="white"/>
</clipPath>
</defs>
</svg>
